<svg width="89" height="61" viewBox="0 0 89 61" fill="none" xmlns="http://www.w3.org/2000/svg">
<rect x="0.867188" y="0.5" width="86.8723" height="59.2553" rx="5.5" fill="#1F72CD" stroke="#D9D9D9"/>
<path fill-rule="evenodd" clip-rule="evenodd" d="M16.12 21.3438L7.89844 39.5377H17.7407L18.9609 36.6368H21.7499L22.9701 39.5377H33.8037V37.3237L34.769 39.5377H40.373L41.3384 37.2769V39.5377H63.8694L66.609 36.7122L69.1743 39.5377L80.7467 39.5611L72.4992 30.4915L80.7467 21.3438H69.3538L66.6869 24.1171L64.2024 21.3438H39.6916L37.5869 26.0398L35.4328 21.3438H25.611V23.4825L24.5184 21.3438H16.12ZM49.7656 23.9297H62.704L66.6612 28.2042L70.746 23.9297H74.7033L68.6906 30.4913L74.7033 36.9773H70.5665L66.6093 32.6531L62.5037 36.9773H49.7656V23.9297ZM52.9609 29.0183V26.6351V26.6328H61.0341L64.5567 30.4442L60.878 34.2765H52.9609V31.6747H60.0194V29.0183H52.9609ZM18.0155 23.9297H22.8131L28.2664 36.2671V23.9297H33.522L37.7341 32.7756L41.616 23.9297H46.8453V36.985H43.6634L43.6374 26.7549L38.9985 36.985H36.1521L31.4872 26.7549V36.985H24.9413L23.7003 34.0582H16.9957L15.7572 36.9825H12.25L18.0155 23.9297ZM18.1484 31.3467L20.3573 26.1328L22.5637 31.3467H18.1484Z" fill="white"/>
</svg>
