<svg width="89" height="61" viewBox="0 0 89 61" fill="none" xmlns="http://www.w3.org/2000/svg">
<rect x="1.10156" y="0.5" width="86.8723" height="59.2553" rx="5.5" fill="white" stroke="#D9D9D9"/>
<path d="M37.5938 58.9987L87.1789 44.5625V53.9987C87.1789 56.7601 84.9403 58.9987 82.1789 58.9987H37.5938Z" fill="#FD6020"/>
<path fill-rule="evenodd" clip-rule="evenodd" d="M77.7771 24.125C80.5051 24.125 82.0054 25.339 82.0054 27.6321C82.1418 29.3857 80.9143 30.8694 79.2775 31.1392L82.9602 36.1301H80.0959L76.9587 31.2741H76.6859V36.1301H74.3672V24.125H77.7771ZM76.6953 29.6498H77.3773C78.8777 29.6498 79.5597 28.9754 79.5597 27.7614C79.5597 26.6823 78.8777 26.0078 77.3773 26.0078H76.6953V29.6498ZM66.3125 36.1301H72.8596V34.1068H68.6313V30.8694H72.7232V28.8461H68.6313V26.1483H72.8596V24.125H66.3125V36.1301ZM59.4985 32.2183L56.3614 24.125H53.9062L58.953 36.3999H60.1805L65.2272 24.125H62.7721L59.4985 32.2183ZM31.8125 30.1972C31.8125 33.5694 34.5404 36.4021 37.9504 36.4021C39.0416 36.4021 39.9963 36.1323 40.9511 35.7276V33.0298C40.2691 33.8392 39.3144 34.3787 38.2232 34.3787C36.0408 34.3787 34.2677 32.7601 34.2677 30.6018V30.3321C34.1313 28.1738 35.9044 26.2854 38.0868 26.1505C39.178 26.1505 40.2691 26.6901 40.9511 27.4994V24.8016C40.1327 24.2621 39.0416 24.1272 38.0868 24.1272C34.5404 23.8574 31.8125 26.6901 31.8125 30.1972ZM27.5828 28.7161C26.2189 28.1765 25.8097 27.9068 25.8097 27.2323C25.9461 26.423 26.628 25.7485 27.4464 25.8834C28.1284 25.8834 28.8104 26.2881 29.356 26.8276L30.5836 25.209C29.6288 24.3996 28.4012 23.8601 27.1736 23.8601C25.2641 23.7252 23.6273 25.209 23.4909 27.0974V27.2323C23.4909 28.851 24.1729 29.7952 26.3552 30.4696C26.9008 30.6045 27.4464 30.8743 27.992 31.1441C28.4012 31.4139 28.674 31.8185 28.674 32.3581C28.674 33.3023 27.8556 34.1116 27.0372 34.1116H26.9008C25.8097 34.1116 24.8549 33.4372 24.4457 32.493L22.9453 33.9768C23.7637 35.4605 25.4005 36.2699 27.0372 36.2699C29.2196 36.4048 30.9928 34.7861 31.1292 32.6279V32.2232C30.9928 30.6045 30.3108 29.7952 27.5828 28.7161ZM19.6719 36.1301H21.9906V24.125H19.6719V36.1301ZM8.89062 24.125H12.3006H12.9825C16.2561 24.2599 18.8476 26.9577 18.7112 30.195C18.7112 31.9486 17.8929 33.5672 16.5289 34.7812C15.3013 35.7254 13.8009 36.265 12.3006 36.1301H8.89062V24.125ZM11.9007 34.1093C12.9919 34.2442 14.2195 33.8395 15.0379 33.1651C15.8563 32.3557 16.2655 31.2766 16.2655 30.0626C16.2655 28.9835 15.8563 27.9044 15.0379 27.0951C14.2195 26.4206 12.9919 26.016 11.9007 26.1508H11.2188V34.1093H11.9007Z" fill="black"/>
<path fill-rule="evenodd" clip-rule="evenodd" d="M47.8993 23.8516C44.4893 23.8516 41.625 26.5493 41.625 30.0565C41.625 33.4287 44.3529 36.2613 47.8993 36.3962C51.4456 36.5311 54.1736 33.6985 54.31 30.1913C54.1736 26.6842 51.4456 23.8516 47.8993 23.8516V23.8516Z" fill="#FD6020"/>
</svg>
