<svg width="89" height="61" viewBox="0 0 89 61" fill="none" xmlns="http://www.w3.org/2000/svg">
<rect x="1.33594" y="0.5" width="86.8723" height="59.2553" rx="5.5" fill="white" stroke="#D9D9D9"/>
<path fill-rule="evenodd" clip-rule="evenodd" d="M45.4016 43.0758C42.4099 45.6578 38.529 47.2165 34.2883 47.2165C24.8265 47.2165 17.1562 39.4572 17.1562 29.8856C17.1562 20.314 24.8265 12.5547 34.2883 12.5547C38.529 12.5547 42.4099 14.1134 45.4016 16.6953C48.3932 14.1134 52.2741 12.5547 56.5148 12.5547C65.9766 12.5547 73.6469 20.314 73.6469 29.8856C73.6469 39.4572 65.9766 47.2165 56.5148 47.2165C52.2741 47.2165 48.3932 45.6578 45.4016 43.0758Z" fill="#ED0006"/>
<path fill-rule="evenodd" clip-rule="evenodd" d="M45.3975 43.0792C49.083 39.9004 51.4201 35.1691 51.4201 29.8856C51.4201 24.6021 49.083 19.8708 45.3975 16.692C48.3886 14.112 52.2679 12.5547 56.5068 12.5547C65.9686 12.5547 73.6389 20.314 73.6389 29.8856C73.6389 39.4572 65.9686 47.2165 56.5068 47.2165C52.2679 47.2165 48.3886 45.6591 45.3975 43.0792Z" fill="#F9A000"/>
<path fill-rule="evenodd" clip-rule="evenodd" d="M45.4016 43.0758C49.0848 39.897 51.4203 35.1672 51.4203 29.8856C51.4203 24.6039 49.0848 19.8741 45.4016 16.6953C41.7183 19.8741 39.3828 24.6039 39.3828 29.8856C39.3828 35.1672 41.7183 39.897 45.4016 43.0758Z" fill="#FF5E00"/>
</svg>
