<svg width="88" height="61" viewBox="0 0 88 61" fill="none" xmlns="http://www.w3.org/2000/svg">
<rect x="0.570312" y="0.5" width="86.8723" height="59.2553" rx="5.5" fill="white" stroke="#D9D9D9"/>
<path fill-rule="evenodd" clip-rule="evenodd" d="M24.924 38.2578H21.0184C20.7511 38.2578 20.5238 38.4521 20.4822 38.7158L18.9025 48.7309C18.8711 48.9286 19.0242 49.1067 19.2246 49.1067H21.0892C21.3565 49.1067 21.5838 48.9125 21.6254 48.6482L22.0515 45.947C22.0926 45.6824 22.3204 45.4885 22.5872 45.4885H23.8235C26.3963 45.4885 27.881 44.2435 28.269 41.7764C28.4436 40.6971 28.2764 39.849 27.7708 39.2549C27.2158 38.603 26.2311 38.2578 24.924 38.2578ZM25.3746 41.9157C25.161 43.3172 24.0902 43.3172 23.0549 43.3172H22.4655L22.879 40.6997C22.9035 40.5417 23.0406 40.4252 23.2005 40.4252H23.4706C24.1759 40.4252 24.8413 40.4252 25.1851 40.8271C25.3899 41.0671 25.4528 41.4233 25.3746 41.9157ZM36.5987 41.8708H34.7284C34.5691 41.8708 34.4314 41.9873 34.4068 42.1456L34.3241 42.6686L34.1933 42.4791C33.7884 41.8914 32.8856 41.695 31.9844 41.695C29.9175 41.695 28.1524 43.2603 27.8086 45.4562C27.6299 46.5514 27.8839 47.5987 28.5052 48.3292C29.0753 49.0007 29.8908 49.2806 30.861 49.2806C32.5262 49.2806 33.4499 48.2097 33.4499 48.2097L33.3664 48.7296C33.3349 48.9283 33.4879 49.1064 33.6872 49.1064H35.372C35.6399 49.1064 35.8659 48.9122 35.9082 48.6479L36.9191 42.2466C36.951 42.0497 36.7985 41.8708 36.5987 41.8708ZM33.9916 45.5109C33.8111 46.5794 32.9631 47.2967 31.8816 47.2967C31.3385 47.2967 30.9043 47.1225 30.6258 46.7924C30.3494 46.4647 30.2442 45.998 30.3322 45.4784C30.5008 44.4189 31.3631 43.6784 32.4282 43.6784C32.9591 43.6784 33.3909 43.8547 33.6753 44.1877C33.9602 44.5241 34.0733 44.9935 33.9916 45.5109ZM44.6801 41.8705H46.5597C46.8229 41.8705 46.9764 42.1657 46.8268 42.3816L40.5759 51.4046C40.4747 51.5507 40.3079 51.6377 40.1298 51.6377H38.2526C37.9883 51.6377 37.834 51.3401 37.987 51.1237L39.9334 48.3762L37.8633 42.301C37.7917 42.0898 37.9476 41.8705 38.1723 41.8705H40.019C40.259 41.8705 40.4707 42.028 40.5399 42.2577L41.6385 45.9269L44.2308 42.1086C44.3323 41.9596 44.5009 41.8705 44.6801 41.8705Z" fill="#253B80"/>
<path fill-rule="evenodd" clip-rule="evenodd" d="M65.0512 48.7392L66.654 38.541C66.6786 38.3827 66.8157 38.2662 66.9751 38.2656H68.7796C68.9789 38.2656 69.1319 38.4443 69.1004 38.642L67.5198 48.6565C67.4786 48.9208 67.2513 49.115 66.9836 49.115H65.372C65.1727 49.115 65.0197 48.9369 65.0512 48.7392ZM52.7757 38.2662H48.8694C48.6027 38.2662 48.3755 38.4604 48.3337 38.7241L46.7541 48.7392C46.7227 48.9369 46.8757 49.115 47.0752 49.115H49.0795C49.2658 49.115 49.4252 48.9792 49.4542 48.7942L49.9025 45.9553C49.9437 45.6908 50.1715 45.4968 50.4381 45.4968H51.6739C54.2472 45.4968 55.7316 44.2518 56.1199 41.7848C56.2951 40.7054 56.1267 39.8574 55.6214 39.2633C55.0667 38.6113 54.0828 38.2662 52.7757 38.2662ZM53.2263 41.924C53.0133 43.3255 51.9424 43.3255 50.9065 43.3255H50.3176L50.7318 40.7081C50.7563 40.55 50.8922 40.4335 51.0526 40.4335H51.3227C52.0275 40.4335 52.6935 40.4335 53.0371 40.8355C53.2421 41.0754 53.3045 41.4317 53.2263 41.924ZM64.4494 41.8791H62.5804C62.4197 41.8791 62.2834 41.9956 62.2593 42.154L62.1766 42.677L62.0453 42.4875C61.6404 41.8997 60.7381 41.7034 59.8369 41.7034C57.77 41.7034 56.0054 43.2687 55.6616 45.4646C55.4835 46.5597 55.7364 47.6071 56.3577 48.3375C56.9288 49.0091 57.7433 49.2889 58.7135 49.2889C60.3787 49.2889 61.3021 48.2181 61.3021 48.2181L61.2189 48.7379C61.1874 48.9367 61.3404 49.1148 61.541 49.1148H63.225C63.4917 49.1148 63.7189 48.9205 63.7607 48.6563L64.7721 42.2549C64.803 42.058 64.65 41.8791 64.4494 41.8791ZM61.8426 45.5193C61.6631 46.5877 60.814 47.305 59.7323 47.305C59.1903 47.305 58.7553 47.1308 58.4764 46.8008C58.2 46.4731 58.0961 46.0063 58.1831 45.4868C58.3525 44.4273 59.2138 43.6868 60.2788 43.6868C60.81 43.6868 61.2416 43.863 61.5262 44.196C61.8122 44.5325 61.9253 45.0018 61.8426 45.5193Z" fill="#179BD7"/>
<path d="M39.384 34.685L39.8642 31.6352L38.7947 31.6104H33.6875L37.2368 9.10542C37.2476 9.03747 37.2835 8.97412 37.3359 8.92914C37.3882 8.88416 37.4553 8.85938 37.5251 8.85938H46.1366C48.9956 8.85938 50.9684 9.45429 51.9986 10.6285C52.4814 11.1794 52.789 11.755 52.9378 12.3885C53.0937 13.0532 53.0966 13.8473 52.9441 14.8159L52.933 14.8866V15.5072L53.4161 15.7808C53.8229 15.9965 54.1458 16.2435 54.3937 16.5263C54.807 16.9972 55.0742 17.5958 55.1871 18.3055C55.3036 19.0354 55.265 19.9039 55.0742 20.8872C54.8538 22.0182 54.4976 23.0033 54.0166 23.8094C53.5739 24.5521 53.0102 25.168 52.3411 25.6456C51.702 26.0991 50.9428 26.4434 50.0844 26.6639C49.2524 26.8803 48.3042 26.9897 47.264 26.9897H46.5938C46.1147 26.9897 45.649 27.1623 45.2838 27.4718C44.9175 27.7876 44.6749 28.2189 44.6006 28.6909L44.5501 28.9655L43.7018 34.3406L43.6632 34.538C43.6532 34.6007 43.6357 34.6318 43.6101 34.653C43.5871 34.672 43.5541 34.685 43.5218 34.685H39.384Z" fill="#253B80"/>
<path d="M53.8614 14.9453C53.8357 15.1096 53.8064 15.2776 53.7734 15.4502C52.6375 21.281 48.7523 23.2953 43.79 23.2953H41.2635C40.6567 23.2953 40.1453 23.7359 40.0507 24.3345L38.7571 32.5386L38.3908 34.864C38.3292 35.257 38.6323 35.6113 39.0288 35.6113H43.5101C44.0408 35.6113 44.4914 35.2258 44.5749 34.7025L44.619 34.4747L45.4629 29.1204L45.517 28.8268C45.5995 28.3017 46.0512 27.9161 46.5818 27.9161H47.252C51.5936 27.9161 54.9925 26.1534 55.9859 21.0524C56.4008 18.9215 56.186 17.1423 55.0879 15.8909C54.7557 15.5136 54.3434 15.2005 53.8614 14.9453Z" fill="#179BD7"/>
<path d="M52.6852 14.4779C52.5119 14.4274 52.3327 14.3815 52.149 14.3402C51.9645 14.2998 51.7753 14.264 51.5808 14.2328C50.8995 14.1226 50.1532 14.0703 49.3535 14.0703H42.6038C42.4376 14.0703 42.2798 14.1079 42.1384 14.1759C41.8271 14.3255 41.5958 14.6202 41.5398 14.981L40.1037 24.0756L40.0625 24.3409C40.1571 23.7423 40.6685 23.3016 41.2753 23.3016H43.8018C48.7641 23.3016 52.6496 21.2864 53.7852 15.4566C53.819 15.284 53.8475 15.116 53.8732 14.9517C53.5859 14.7993 53.2746 14.6689 52.9395 14.5578C52.857 14.5303 52.7716 14.5037 52.6852 14.4779Z" fill="#222D65"/>
<path d="M41.5294 14.9824C41.5855 14.6216 41.817 14.3269 42.128 14.1781C42.2705 14.1102 42.4275 14.0725 42.5934 14.0725H49.3434C50.1431 14.0725 50.8894 14.1249 51.5704 14.235C51.7652 14.2663 51.9544 14.3021 52.1389 14.3424C52.3226 14.3838 52.5015 14.4297 52.6751 14.4802C52.7613 14.5059 52.8466 14.5325 52.9301 14.5591C53.2653 14.6702 53.5766 14.8015 53.8638 14.953C54.2019 12.7982 53.8612 11.3312 52.6963 10.0027C51.4119 8.54019 49.0936 7.91406 46.1274 7.91406H37.5156C36.9096 7.91406 36.3929 8.35472 36.2991 8.95424L32.7123 31.6905C32.6415 32.1403 32.9885 32.5463 33.442 32.5463H38.7588L40.0936 24.0769L41.5294 14.9824Z" fill="#253B80"/>
</svg>
