<svg width="88" height="61" viewBox="0 0 88 61" fill="none" xmlns="http://www.w3.org/2000/svg">
<rect x="0.632812" y="0.5" width="86.8723" height="59.2553" rx="5.5" fill="white" stroke="#D9D9D9"/>
<path fill-rule="evenodd" clip-rule="evenodd" d="M26.808 40.8203H21.4846L17.4928 25.5911C17.3033 24.8905 16.901 24.2712 16.3092 23.9793C14.8324 23.2458 13.205 22.662 11.4297 22.3676V21.7812H20.0052C21.1887 21.7812 22.0764 22.662 22.2243 23.6849L24.2956 34.6702L29.6163 21.7812H34.7917L26.808 40.8203ZM37.7462 40.8203H32.7188L36.8586 21.7812H41.886L37.7462 40.8203ZM48.3998 27.0572C48.5477 26.0318 49.4354 25.4455 50.471 25.4455C52.0984 25.2983 53.8711 25.5927 55.3505 26.3237L56.2382 22.2245C54.7587 21.6382 53.1314 21.3438 51.6545 21.3438C46.775 21.3438 43.2244 23.9809 43.2244 27.641C43.2244 30.4254 45.7394 31.8874 47.5147 32.7682C49.4354 33.6464 50.1751 34.2327 50.0272 35.111C50.0272 36.4283 48.5477 37.0146 47.0709 37.0146C45.2956 37.0146 43.5203 36.5755 41.8955 35.842L41.0078 39.9437C42.7831 40.6747 44.7038 40.9691 46.4791 40.9691C51.9504 41.1138 55.3505 38.4792 55.3505 34.5246C55.3505 29.5447 48.3998 29.2528 48.3998 27.0572ZM72.9381 40.8203L68.9462 21.7812H64.6585C63.7708 21.7812 62.8832 22.3676 62.5873 23.2458L55.1953 40.8203H60.3707L61.4037 38.0384H67.7627L68.3545 40.8203H72.9381ZM65.4052 26.9141L66.882 34.0896H62.7422L65.4052 26.9141Z" fill="#172B85"/>
</svg>
