<svg width="93" height="53" viewBox="0 0 93 53" fill="none" xmlns="http://www.w3.org/2000/svg">
<path d="M30.1903 24.9831C30.1225 24.9788 30.0562 25.0202 30.0146 25.1013C29.9483 25.2287 29.9684 25.4064 30.0609 25.4981C30.5586 25.9946 31.474 26.4372 32.8087 26.8256L32.8194 26.8286C36.6167 27.6403 38.705 28.1777 39.0841 28.4411L39.1241 28.4616C40.3971 28.9258 41.593 29.6194 42.7118 30.5426C43.0016 30.8638 43.2744 31.1792 43.5302 31.4886C45.9482 34.4248 46.6247 36.7453 45.5583 38.4508L45.5475 38.4501C45.3626 38.6049 45.153 38.6749 44.9187 38.6606C44.8417 38.6559 44.7631 38.642 44.6814 38.6188C41.6007 36.8455 38.8329 35.8829 36.3732 35.7309C36.2808 35.7251 36.1868 35.7204 36.0943 35.7167C34.5624 35.6551 32.3679 35.9163 29.5138 36.5004C28.3086 36.7811 26.0986 37.475 22.8808 38.5827C22.3491 38.7353 21.9346 38.8265 21.6356 38.8561C21.503 38.8634 21.3721 38.8629 21.238 38.8546C20.8989 38.8336 20.5491 38.7625 20.1885 38.6413L20.1808 38.6409C18.8739 37.8341 17.9785 37.4157 17.4931 37.3855C17.4561 37.3834 17.4206 37.3834 17.3883 37.3855C17.2758 37.3935 17.1895 37.5271 17.1956 37.6838C17.2002 37.8313 17.2866 37.947 17.3898 37.9536C17.396 37.954 17.4037 37.954 17.4098 37.9534C17.4345 37.9517 17.4622 37.9517 17.49 37.9536C17.9138 37.9797 18.7583 38.384 20.0236 39.1661L20.0575 39.1822C20.4566 39.3192 20.8434 39.3993 21.2195 39.4226C21.3674 39.4316 21.5138 39.4321 21.6587 39.4237C21.9839 39.3918 22.42 39.2963 22.9717 39.137L22.9794 39.1344C26.1834 38.0317 28.381 37.341 29.5738 37.0629C32.4049 36.4835 34.5748 36.2244 36.0835 36.2854C36.1744 36.2886 36.2638 36.2931 36.3547 36.2987C38.7712 36.4481 41.4959 37.3988 44.5304 39.1509L44.5658 39.1661C44.6814 39.2017 44.7954 39.2227 44.9048 39.2297C45.2439 39.2505 45.549 39.1346 45.8218 38.882L45.8619 38.8325C47.1148 36.8411 46.4275 34.2505 43.7983 31.0604C43.5333 30.739 43.2482 30.4105 42.943 30.0754L42.906 30.0433C41.7687 29.1057 40.5527 28.3991 39.2597 27.9234C38.8051 27.6311 36.6846 27.08 32.8965 26.2693C31.6158 25.8972 30.7513 25.4859 30.2997 25.0362C30.2658 25.0026 30.2273 24.9853 30.1903 24.9831Z" fill="#E1CBB0" stroke="#E1CBB0" stroke-width="2"/>
<path d="M33.0637 10.5178C33.0426 10.5166 33.02 10.5201 32.9989 10.5293C32.892 10.573 32.8317 10.7274 32.8633 10.8743C33.0381 11.6833 33.0305 12.5403 32.8438 13.4456C32.7398 13.9741 32.6283 14.4305 32.5108 14.8179C31.9173 16.4375 31.5287 17.6305 31.3464 18.3971C31.0903 19.35 30.9457 20.1188 30.9126 20.7038C30.8282 22.0464 31.1219 23.973 31.7923 26.4832C31.8209 26.5908 31.8932 26.6592 31.9715 26.6638C31.9972 26.6654 32.0243 26.66 32.0499 26.6468C32.1538 26.5933 32.2065 26.4337 32.1674 26.2901C31.5166 23.8568 31.2319 22.0103 31.3102 20.7501C31.3419 20.2127 31.479 19.4902 31.7245 18.5812L31.726 18.5711C31.9023 17.8297 32.2849 16.6567 32.8724 15.053L32.8769 15.0374C33.0034 14.625 33.1209 14.1463 33.2279 13.599C33.4373 12.5896 33.4433 11.6287 33.2475 10.7159C33.2219 10.5995 33.1465 10.523 33.0637 10.5178Z" fill="#E1CBB0" stroke="#E1CBB0" stroke-width="2"/>
<path d="M37.5602 9.67924C37.526 9.6766 37.4918 9.68789 37.4605 9.71409C36.7482 10.306 36.1979 10.7089 35.8127 10.9228C34.0845 11.8738 33.1223 12.3816 32.9245 12.4462C32.8174 12.4811 32.7475 12.6494 32.7698 12.8225C32.7876 12.9689 32.8665 13.0715 32.9542 13.0778C32.9706 13.079 32.9869 13.0773 33.0018 13.0717C33.216 13.0018 34.196 12.4866 35.9406 11.5267C36.3451 11.3026 36.9117 10.8877 37.6405 10.2819C37.7387 10.2014 37.7758 10.0091 37.7268 9.85232C37.6925 9.74654 37.6286 9.68405 37.5602 9.67924Z" fill="#E1CBB0" stroke="#E1CBB0" stroke-width="2"/>
<path d="M37.9197 1.19393C37.7321 1.18217 37.5429 1.20827 37.3538 1.27264L37.3235 1.28588C36.2914 1.88038 34.598 2.51017 32.2448 3.17524C31.576 3.37133 29.6873 3.66024 26.5805 4.0426C26.0373 4.12108 25.6332 4.24832 25.3623 4.42453C24.7736 4.80497 24.3287 5.31242 24.023 5.94734L23.9882 6.0936C23.9898 6.08398 23.9792 6.08334 23.9792 6.08334C23.6765 7.14809 23.0833 8.74553 22.1995 10.8765C22.1435 11.0119 22.1753 11.186 22.2706 11.2651C22.3009 11.2892 22.3312 11.3019 22.363 11.3038C22.4356 11.3083 22.5067 11.2578 22.5461 11.1637C23.448 8.98996 24.0518 7.35745 24.3605 6.26661C24.6178 5.71874 25.0097 5.27692 25.5288 4.94054C25.7603 4.79063 26.122 4.68029 26.6153 4.60844C29.7358 4.22437 31.6395 3.93225 32.3235 3.73188C34.6843 3.06489 36.3943 2.42934 37.4521 1.82522C37.5989 1.77304 37.7518 1.75186 37.9031 1.76148C37.9924 1.76726 38.0832 1.78394 38.1725 1.81152L38.1815 1.81388C38.4509 1.87739 38.7672 2.08697 39.1289 2.4426C40.1715 3.61641 41.2899 4.76262 42.4793 5.88083C43.3207 6.76851 43.8807 7.49751 44.1606 8.0672C44.6645 9.48971 45.2805 12.2888 46.0038 16.4643C46.0371 16.6463 46.0553 16.8061 46.0598 16.9457C46.0734 17.3696 45.9297 17.5909 45.6285 17.6099C45.4848 17.6213 45.3455 17.6225 45.2078 17.6138C44.3967 17.5629 43.6764 17.1628 43.0499 16.4137L43.0393 16.4019C42.5036 15.8425 41.9361 14.4131 41.3353 12.1143C41.3171 12.0452 41.2808 11.9887 41.2339 11.9567C39.6434 10.8754 38.6446 10.1199 38.2375 9.68987L38.1967 9.65609C38.1967 9.65588 38.2027 9.65652 38.2027 9.65652C38.0196 9.45829 37.9182 8.92237 37.9031 8.04774C37.9001 7.89783 37.8153 7.77808 37.7109 7.77145C37.7064 7.77124 37.7018 7.77124 37.6958 7.77124C37.5853 7.7753 37.4975 7.90597 37.5006 8.0625C37.5217 9.17173 37.6912 9.86951 38.009 10.1565C38.4373 10.6047 39.4346 11.3617 40.9993 12.4273L40.9887 12.4267C41.6062 14.7647 42.21 16.2419 42.8002 16.8589C43.4948 17.6841 44.2908 18.1249 45.1866 18.1813C45.338 18.1907 45.4908 18.1895 45.6467 18.1771C46.2142 18.1411 46.4866 17.7222 46.4608 16.9203C46.4548 16.7428 46.4336 16.5456 46.3943 16.3292C45.6573 12.0783 45.0277 9.22754 44.5041 7.77659L44.4905 7.74386C44.1848 7.12114 43.5916 6.34552 42.7109 5.41678L42.7018 5.4078C41.5184 4.29537 40.4061 3.15535 39.368 1.98732L39.3574 1.9764C38.9518 1.57693 38.5856 1.33701 38.2602 1.25681C38.1452 1.22196 38.0332 1.20099 37.9197 1.19393Z" fill="#E1CBB0" stroke="#E1CBB0" stroke-width="2"/>
<path d="M23.8527 6.27676C23.7708 6.27193 23.6918 6.33632 23.6585 6.44558C23.5689 6.7029 22.745 7.81167 21.1866 9.7719L12.1168 20.7189L12.1046 20.7346C11.7116 21.2076 11.2169 21.8772 10.616 22.7433L10.6039 22.7622C6.22151 30.7914 3.03185 37.0492 1.03035 41.5442C0.971165 41.6751 1.00151 41.8466 1.09559 41.9272C1.12594 41.953 1.15932 41.9664 1.1927 41.9685C1.2625 41.9727 1.33383 41.9253 1.37328 41.8362C3.3672 37.3574 6.54928 31.1163 10.918 23.1122C11.5128 22.2547 11.9999 21.5978 12.3808 21.1392C12.3808 21.1379 21.4551 10.1878 21.4551 10.1878C23.053 8.17847 23.9073 7.01307 24.0211 6.68759C24.0242 6.67857 24.0272 6.67103 24.0287 6.66431C24.0727 6.52108 24.0242 6.35791 23.921 6.29836C23.8982 6.28514 23.8755 6.27823 23.8527 6.27676Z" fill="#E1CBB0" stroke="#E1CBB0" stroke-width="2"/>
<path d="M19.4845 38.5638C19.4507 38.562 19.4169 38.5698 19.3863 38.5876C18.4721 39.1072 17.8042 40.0407 17.3809 41.3884C17.0365 42.4802 16.7645 43.4504 16.5681 44.2994C16.1545 46.0963 15.8004 47.8132 15.5026 49.4572C15.4415 49.7424 15.3884 49.9555 15.3433 50.0964C15.2998 50.2329 15.3529 50.3874 15.4624 50.4419C15.4865 50.4535 15.5091 50.4595 15.5332 50.4607C15.6217 50.4655 15.7054 50.4014 15.7408 50.2936C15.7923 50.1321 15.8519 49.8953 15.9179 49.5836L15.9195 49.5738C16.2156 47.9392 16.5681 46.231 16.9785 44.4491C17.1733 43.6091 17.4405 42.6564 17.7801 41.5822C18.1599 40.3675 18.7538 39.5307 19.5634 39.0709C19.6712 39.0101 19.7179 38.8524 19.668 38.7191C19.6342 38.625 19.5618 38.5682 19.4845 38.5638Z" fill="#E1CBB0" stroke="#E1CBB0" stroke-width="2"/>
<path d="M45.3278 12.2223C45.1268 12.21 44.9345 12.3218 44.7524 12.5573L44.7336 12.585C44.5962 12.8222 44.5601 13.081 44.6251 13.3613L44.6295 13.3765L44.9577 14.5373L45.4044 16.4153C45.4117 16.4496 45.4261 16.4813 45.4594 16.53C45.7891 17.033 46.0551 17.2961 46.2546 17.3193C46.2575 17.3196 46.259 17.3198 46.2619 17.32C46.3645 17.3263 46.4527 17.2216 46.4614 17.0817C46.4715 16.9383 46.392 16.8118 46.2864 16.7996C46.191 16.7884 46.0204 16.5974 45.7731 16.2258L45.763 16.2253L45.322 14.3707L45.3177 14.3569L44.988 13.189C44.9707 13.1002 44.9808 13.0155 45.0198 12.9354C45.1196 12.8018 45.2179 12.7379 45.3119 12.7436C45.4175 12.7501 45.5071 12.6387 45.5129 12.4951C45.5172 12.351 45.4348 12.229 45.3293 12.2223C45.3293 12.2223 45.3293 12.2223 45.3278 12.2223Z" fill="#E1CBB0" stroke="#E1CBB0" stroke-width="2"/>
<path d="M37.209 1.17398C36.8989 1.15612 36.3096 1.21999 35.4381 1.36521L35.4042 1.37493L31.6991 2.85483C31.5356 2.9193 31.2687 3.01391 30.8985 3.13889C28.9811 3.72529 27.8011 4.02663 27.3553 4.04349C27.2427 4.04785 27.1532 4.16926 27.1563 4.31467C27.1594 4.45333 27.2458 4.56383 27.3522 4.56998C27.3569 4.57038 27.3615 4.57038 27.3677 4.57018C27.8412 4.55213 29.0505 4.24563 30.9957 3.6505C31.3782 3.52156 31.6512 3.42456 31.8194 3.3581C31.8209 3.3579 35.4998 1.88833 35.4998 1.88833L35.4906 1.88774C36.339 1.7461 36.9035 1.6836 37.1889 1.70006C37.1935 1.70026 37.1981 1.70067 37.2028 1.70107C37.5498 1.73102 37.8321 1.83854 38.0481 2.02362C38.0805 2.0512 38.1175 2.06548 38.153 2.06746C38.2224 2.07143 38.2918 2.02997 38.3334 1.95022C38.3951 1.82901 38.3705 1.66555 38.2764 1.58501C37.9987 1.34795 37.6486 1.21126 37.229 1.17516C37.2197 1.17476 37.2136 1.17437 37.209 1.17398Z" fill="#E1CBB0" stroke="#E1CBB0" stroke-width="2"/>
<path d="M41.6204 36.0311C41.3747 36.0187 41.1926 36.1737 41.0758 36.4967C40.9709 36.7085 40.9022 36.9306 40.8679 37.1632L40.8661 37.1804C40.8558 37.2833 40.8575 37.3699 40.8696 37.4401C40.873 37.4561 40.8765 37.4708 40.8799 37.485C40.9246 37.6531 41.0053 37.7405 41.1256 37.7467C41.1668 37.7488 41.2132 37.7409 41.2648 37.7231C41.385 37.681 41.4538 37.5343 41.416 37.3956C41.4005 37.3343 41.3661 37.2849 41.3232 37.2524C41.3438 37.0703 41.3988 36.8962 41.483 36.7299L41.5122 36.611L41.495 36.701C41.5294 36.6086 41.5792 36.5641 41.6445 36.5675C41.6617 36.5685 41.6788 36.5722 41.6977 36.5796C42.0225 36.7643 42.5534 37.0188 43.2853 37.3428C44.2922 37.9031 44.8403 38.2196 44.9279 38.2914L44.9382 38.2919C44.9554 38.3088 44.9777 38.325 45.0001 38.3406L44.9863 38.3398C45.2716 38.5481 45.4038 38.8178 45.3832 39.1489C45.3746 39.2935 45.4691 39.4191 45.5946 39.4294C45.7251 39.4361 45.83 39.3283 45.8385 39.1859C45.8712 38.6557 45.677 38.2316 45.2544 37.9146L45.2423 37.914C45.2286 37.8962 45.2114 37.8796 45.1925 37.8638C45.0843 37.7744 44.5087 37.4401 43.4675 36.8612L43.4503 36.8525C42.7115 36.5264 42.1857 36.2736 41.8696 36.0942L41.8386 36.0802C41.7613 36.0511 41.6891 36.0347 41.6204 36.0311ZM44.9039 38.2536C44.9125 38.2662 44.9245 38.2785 44.9365 38.2906L44.9262 38.29C44.9125 38.2787 44.9004 38.2664 44.8918 38.253L44.9039 38.2536Z" fill="#E1CBB0" stroke="#E1CBB0" stroke-width="2"/>
<path d="M16.3359 38.5758C16.2539 38.5722 16.172 38.611 16.1217 38.6869C15.4233 39.7392 14.9671 40.4118 14.7548 40.7043C14.671 40.819 14.6915 40.9831 14.7995 41.071C14.8423 41.1049 14.8907 41.1224 14.9391 41.1248C15.0174 41.1283 15.0956 41.093 15.1477 41.0225C15.3637 40.7225 15.8237 40.0439 16.5258 38.9877C16.6059 38.8695 16.5779 38.7064 16.4662 38.6233C16.4271 38.5935 16.3805 38.5779 16.3359 38.5758Z" fill="#E1CBB0" stroke="#E1CBB0" stroke-width="2"/>
<path d="M62.7324 25.8807C62.2776 26.2939 61.4097 26.6652 60.1286 26.9943C56.3286 27.6975 54.2059 28.1817 53.7542 28.4479C52.4516 28.8737 51.2291 29.5157 50.0822 30.3741C50.0837 30.3743 50.0467 30.4037 50.0467 30.4037C49.7384 30.712 49.4501 31.0144 49.1834 31.3106C46.5304 34.2488 45.8212 36.6556 47.0591 38.5307L47.0992 38.5772C47.369 38.8167 47.6742 38.9291 48.0134 38.9143C48.1228 38.9096 48.2369 38.8914 48.3541 38.8598L48.388 38.846C51.4372 37.2543 54.1704 36.4057 56.5876 36.3005C56.6786 36.2965 56.7695 36.2937 56.859 36.2917C58.3697 36.2559 60.5372 36.5281 63.3644 37.1081C64.5561 37.3843 66.7497 38.0594 69.9439 39.1328L69.9516 39.135C70.5035 39.2912 70.9382 39.3863 71.2573 39.4202C71.4084 39.4306 71.5548 39.4324 71.7028 39.4258C72.079 39.4094 72.4674 39.3403 72.8667 39.2181L72.9006 39.2033C74.1724 38.4918 75.0203 38.1263 75.4442 38.1081C75.4735 38.1067 75.4997 38.1071 75.5244 38.1091C75.5321 38.1095 75.5383 38.1095 75.5444 38.1093C75.6493 38.1049 75.7356 37.9981 75.7418 37.8604C75.7479 37.7143 75.6632 37.5886 75.5506 37.5796C75.5182 37.5771 75.4828 37.5767 75.4458 37.5783C74.9602 37.5994 74.0614 37.9771 72.748 38.7112L72.7403 38.7116C72.378 38.8197 72.0281 38.8812 71.689 38.8958C71.5548 38.9018 71.4238 38.9002 71.2928 38.8916C70.9922 38.8598 70.5775 38.769 70.0487 38.6194C66.8376 37.5413 64.6331 36.8631 63.4322 36.5851C60.5788 35.9995 58.3867 35.7253 56.8528 35.7614C56.7603 35.7632 56.6678 35.7662 56.5738 35.7704C54.1119 35.8779 51.337 36.7368 48.2477 38.3478C48.1598 38.3681 48.0812 38.3801 48.0041 38.3835C47.7698 38.3935 47.5601 38.3254 47.3767 38.1784L47.3659 38.1788C46.313 36.5733 47.0067 34.4184 49.4486 31.7138C49.706 31.4286 49.982 31.1382 50.2779 30.8427C51.4018 29.9973 52.6026 29.3672 53.8791 28.9522L53.9192 28.9334C54.3015 28.6931 56.3934 28.221 60.198 27.517L60.2088 27.5148C61.5454 27.1709 62.4657 26.7711 62.9682 26.3149C63.0607 26.2308 63.0823 26.0653 63.0176 25.9454C62.9759 25.8691 62.9096 25.8298 62.8434 25.8328C62.8048 25.8344 62.7663 25.8502 62.7324 25.8807Z" fill="#E1CBB0" stroke="#E1CBB0" stroke-width="2"/>
<path d="M59.7047 10.7127C59.4956 11.6215 59.494 12.5819 59.7016 13.5931C59.807 14.1415 59.9232 14.6215 60.0503 15.033C60.0503 15.0355 60.055 15.051 60.055 15.051C60.6469 16.6621 61.0312 17.8394 61.2063 18.5829L61.2079 18.5929C61.4527 19.5046 61.5891 20.2285 61.617 20.764C61.6882 22.0259 61.3783 23.8663 60.6903 26.2875C60.65 26.4305 60.7027 26.5906 60.8081 26.6455C60.836 26.6591 60.8623 26.6652 60.8886 26.6639C60.9692 26.6601 61.0436 26.5931 61.0746 26.4858C61.7859 23.9884 62.102 22.0683 62.0276 20.7256C61.9966 20.1408 61.854 19.3704 61.5984 18.4148C61.4171 17.6463 61.0281 16.4483 60.43 14.8213C60.3106 14.4328 60.2006 13.9753 60.0984 13.4496C59.9124 12.5387 59.9124 11.6823 60.0984 10.8768C60.1309 10.7305 60.0705 10.5751 59.962 10.53C59.9403 10.5207 59.917 10.5167 59.8938 10.5177C59.8086 10.5217 59.7311 10.5969 59.7047 10.7127Z" fill="#E1CBB0" stroke="#E1CBB0" stroke-width="2"/>
<path d="M55.2024 9.84535C55.1516 9.99754 55.1889 10.1861 55.286 10.2667C56.0146 10.871 56.5804 11.286 56.9835 11.5115C58.7288 12.4793 59.7082 12.9991 59.9232 13.0712C59.9397 13.0768 59.9546 13.0787 59.971 13.078C60.0606 13.0733 60.1397 12.9744 60.1576 12.8316C60.1815 12.663 60.1128 12.4974 60.0053 12.4612C59.8083 12.3948 58.8453 11.8823 57.1164 10.9238C56.7312 10.7085 56.1818 10.3054 55.4696 9.715C55.4383 9.6887 55.4039 9.67718 55.3711 9.67906C55.3024 9.68258 55.2367 9.74271 55.2024 9.84535Z" fill="#E1CBB0" stroke="#E1CBB0" stroke-width="2"/>
<path d="M54.991 2.09754C54.6548 2.16954 54.2783 2.39373 53.8584 2.7699L53.8491 2.78012C52.777 3.88203 51.629 4.95632 50.4081 6.003L50.3988 6.01139C49.4909 6.88706 48.8774 7.62015 48.5598 8.2111L48.5458 8.2424C47.9989 9.62249 47.3312 12.3401 46.5441 16.3951C46.5023 16.6015 46.4775 16.7897 46.4713 16.9595C46.4388 17.7259 46.713 18.1305 47.294 18.1732C47.4536 18.1874 47.6101 18.191 47.765 18.1841C48.6837 18.1434 49.5018 17.7333 50.2191 16.9539C50.828 16.3728 51.457 14.9684 52.1077 12.7417L52.0969 12.7421C53.7081 11.7453 54.7338 11.0359 55.1769 10.6135C55.5038 10.3437 55.6835 9.67874 55.7129 8.61795C55.716 8.46822 55.6277 8.34221 55.5146 8.33669C55.51 8.33628 55.5053 8.33629 55.4991 8.33649C55.3922 8.3414 55.3055 8.45472 55.3008 8.59811C55.2776 9.43431 55.1707 9.94588 54.9801 10.1324L54.9879 10.1322L54.946 10.1639C54.5262 10.5691 53.4974 11.2773 51.8598 12.2884C51.8118 12.318 51.7746 12.3718 51.756 12.4375C51.1223 14.6276 50.5305 15.9864 49.9774 16.5135L49.9666 16.5246C49.319 17.2319 48.5784 17.604 47.748 17.641C47.607 17.6473 47.4644 17.6441 47.3188 17.6312C47.0089 17.6085 46.8649 17.3947 46.8819 16.9895C46.8866 16.8559 46.9067 16.7036 46.9408 16.5321C47.7154 12.5467 48.3677 9.87858 48.8975 8.52508C49.1857 7.98446 49.7652 7.29554 50.6328 6.45873C51.8598 5.40653 53.0125 4.32672 54.0908 3.21909C54.4642 2.88424 54.788 2.68849 55.0638 2.63183L55.0746 2.62937C55.166 2.60421 55.2574 2.5897 55.3504 2.5854C55.5053 2.57865 55.6603 2.60093 55.8167 2.65268C56.8904 3.24649 58.6349 3.87916 61.0472 4.55172C61.7459 4.7532 63.6919 5.06044 66.8834 5.47322C67.3885 5.54931 67.7572 5.66017 67.9912 5.80663C68.521 6.13616 68.9192 6.56448 69.1842 7.09181C69.4863 8.14012 70.092 9.71024 70.9984 11.8028C71.0371 11.8932 71.1099 11.9425 71.1828 11.9394C71.2153 11.938 71.2478 11.9263 71.2788 11.9036C71.3764 11.8294 71.412 11.6633 71.3547 11.533C70.467 9.48217 69.872 7.94518 69.5699 6.92244L69.5591 6.92306C69.5606 6.93226 69.5265 6.79194 69.5265 6.79194C69.2198 6.18013 68.7658 5.688 68.1678 5.31592C67.892 5.14349 67.4784 5.01584 66.9268 4.9332C63.7461 4.52165 61.8156 4.21769 61.134 4.02071C58.7279 3.35 56.9989 2.72285 55.9469 2.13907L55.9174 2.12597C55.7238 2.06174 55.5301 2.03394 55.338 2.04253C55.2218 2.04764 55.1056 2.06584 54.991 2.09754Z" fill="#E1CBB0" stroke="#E1CBB0" stroke-width="2"/>
<path d="M69.0174 6.29702C68.913 6.35456 68.8638 6.51537 68.9053 6.65665C68.9084 6.66476 68.9114 6.67224 68.9145 6.68117C69.0266 7.00528 69.8821 8.17248 71.4809 10.1826C71.484 10.1863 80.5792 21.1682 80.5792 21.1682C80.9616 21.6292 81.45 22.2872 82.0429 23.1429C86.4031 31.1388 89.5747 37.3688 91.5574 41.8348C91.5958 41.9237 91.6664 41.9719 91.7386 41.9686C91.7724 41.9669 91.8062 41.9545 91.8369 41.9291C91.9337 41.8508 91.9644 41.6815 91.906 41.5508C89.9156 37.0683 86.7379 30.822 82.37 22.812C82.3654 22.8034 82.3531 22.7843 82.3531 22.7843C81.7526 21.9176 81.2565 21.2469 80.8649 20.7726C80.8633 20.7726 80.8511 20.7568 80.8511 20.7568L71.7574 9.77848C70.1954 7.81347 69.3707 6.70299 69.2831 6.44661C69.2509 6.33816 69.171 6.27291 69.0881 6.27666C69.065 6.2779 69.0405 6.28434 69.0174 6.29702Z" fill="#E1CBB0" stroke="#E1CBB0" stroke-width="2"/>
<path d="M73.2678 38.7283C73.224 38.8699 73.2636 39.0387 73.3581 39.1056C74.0639 39.6073 74.5778 40.5085 74.9024 41.8088C75.1918 42.9602 75.4191 43.9803 75.5814 44.8696C75.9287 46.7856 76.2251 48.6128 76.4722 50.3607L76.4736 50.3712C76.53 50.7049 76.5809 50.9579 76.6246 51.1311C76.6543 51.2466 76.7277 51.3162 76.8053 51.3123C76.8265 51.3113 76.8462 51.3051 76.8674 51.2933C76.9634 51.2368 77.0114 51.0728 76.9747 50.9265C76.9352 50.7756 76.89 50.5476 76.8392 50.2423C76.5907 48.4842 76.2929 46.6479 75.9456 44.7327C75.7776 43.817 75.5475 42.7781 75.2525 41.6087C74.8926 40.165 74.3138 39.1596 73.5162 38.5923C73.4894 38.5727 73.4598 38.5641 73.4315 38.5654C73.3624 38.569 73.2989 38.6286 73.2678 38.7283Z" fill="#E1CBB0" stroke="#E1CBB0" stroke-width="2"/>
<path d="M47.6213 12.2219C47.5161 12.2269 47.435 12.348 47.4393 12.4925C47.4421 12.6367 47.5289 12.7496 47.6341 12.7449C47.7266 12.7404 47.8219 12.8062 47.9228 12.9413C47.957 13.0223 47.9669 13.1074 47.9484 13.1963C47.9499 13.1963 47.6157 14.3626 47.6157 14.3626L47.6114 14.3762L47.1634 16.2296L47.1535 16.2299C46.9074 16.5988 46.7368 16.788 46.6429 16.7976C46.5391 16.8085 46.4609 16.9342 46.4694 17.078C46.4765 17.2185 46.5633 17.3247 46.6628 17.3202C46.6657 17.32 46.6685 17.32 46.6713 17.3196C46.8676 17.2991 47.1307 17.0392 47.4606 16.5397C47.4933 16.4914 47.5061 16.4595 47.5147 16.4254L47.9683 14.5488L48.3011 13.3894L48.304 13.3744C48.3708 13.0942 48.3367 12.8341 48.2044 12.5942L48.1859 12.5662C48.0082 12.3274 47.8204 12.2127 47.6213 12.2219Z" fill="#E1CBB0" stroke="#E1CBB0" stroke-width="2"/>
<path d="M56.2651 1.17331C55.8637 1.2025 55.5324 1.32937 55.2682 1.55372C55.1777 1.63003 55.1528 1.78685 55.2112 1.90417C55.2492 1.98125 55.3149 2.02207 55.3806 2.0194C55.4141 2.01787 55.4492 2.00451 55.4798 1.97856C55.6856 1.80343 55.9527 1.70366 56.2826 1.67944C56.2856 1.67925 56.2914 1.67886 56.2958 1.67867C56.5658 1.66684 57.1001 1.73457 57.9 1.88204L57.8912 1.88243L61.3624 3.3449C61.523 3.41148 61.7799 3.50801 62.1346 3.63506C63.9767 4.23562 65.1182 4.54638 65.5663 4.57004C65.5707 4.57023 65.5765 4.57043 65.5809 4.57023C65.6816 4.56566 65.7634 4.46054 65.7677 4.327C65.7721 4.18735 65.6889 4.06964 65.5824 4.06372C65.1605 4.0416 64.0453 3.73598 62.2368 3.14668C61.8879 3.02153 61.6353 2.92672 61.4806 2.86281L57.9876 1.39022L57.954 1.3805C57.1322 1.22902 56.5746 1.15976 56.2812 1.17254C56.2753 1.17274 56.2695 1.17312 56.2651 1.17331Z" fill="#E1CBB0" stroke="#E1CBB0" stroke-width="2"/>
<path d="M50.6099 36.0778L50.5829 36.0917C50.3057 36.2697 49.8442 36.5196 49.1983 36.8413L49.1833 36.8497C48.2708 37.424 47.7658 37.756 47.6699 37.8455C47.6534 37.8612 47.6384 37.8778 47.6264 37.8957L47.6159 37.8961C47.2443 38.2126 47.072 38.6403 47.0959 39.179C47.1019 39.3236 47.1933 39.4344 47.3012 39.4295C47.4166 39.4203 47.499 39.2941 47.493 39.1469C47.4781 38.8109 47.5964 38.5388 47.8467 38.331L47.8332 38.3316C47.8542 38.3162 47.8722 38.3001 47.8886 38.2831L47.8976 38.2827C47.9741 38.2108 48.4551 37.8969 49.3392 37.3407C49.9775 37.0216 50.4435 36.7699 50.7343 36.586C50.7447 36.5792 50.7612 36.5756 50.7747 36.5748C50.8332 36.5722 50.8751 36.6181 50.9036 36.7121L50.8901 36.6205L50.9156 36.7416C50.986 36.9116 51.0325 37.0886 51.0549 37.2735C51.0115 37.3062 50.9815 37.356 50.9665 37.4178C50.9335 37.5581 50.992 37.7078 51.0969 37.7522C51.1418 37.771 51.1823 37.7795 51.2183 37.7779C51.3232 37.7732 51.3951 37.6855 51.434 37.5149C51.4385 37.5013 51.44 37.4864 51.443 37.4712C51.455 37.3989 51.4565 37.3112 51.449 37.2064L51.4475 37.189C51.4191 36.9527 51.3621 36.7263 51.2737 36.5099C51.1718 36.1808 51.0145 36.0212 50.8002 36.0308C50.7418 36.0334 50.6773 36.0491 50.6099 36.0778ZM47.9291 38.2441C47.9216 38.2578 47.9111 38.27 47.8991 38.2812L47.8901 38.2817C47.9006 38.2696 47.9111 38.2574 47.9186 38.2447L47.9291 38.2441Z" fill="#E1CBB0" stroke="#E1CBB0" stroke-width="2"/>
<path d="M76.4682 38.6305C76.3533 38.7389 76.3251 38.9548 76.4042 39.1128C77.1028 40.523 77.5604 41.4291 77.7769 41.8301C77.8277 41.9241 77.9068 41.9724 77.9859 41.9685C78.0349 41.9662 78.0857 41.944 78.1271 41.8996C78.2382 41.7847 78.2608 41.5675 78.178 41.4142C77.9671 41.0231 77.5114 40.1251 76.8147 38.7198C76.7657 38.6185 76.6829 38.5658 76.6 38.5697C76.5548 38.5718 76.5077 38.5919 76.4682 38.6305Z" fill="#E1CBB0" stroke="#E1CBB0" stroke-width="2"/>
</svg>
