<svg width="149" height="62" viewBox="0 0 149 62" fill="none" xmlns="http://www.w3.org/2000/svg">
<path d="M48.3081 30.0004C48.1969 29.9953 48.0883 30.0439 48.02 30.1394C47.9114 30.2893 47.9442 30.4985 48.0959 30.6063C48.9121 31.1906 50.4131 31.7114 52.6015 32.1684L52.6192 32.172C58.8457 33.1271 62.2697 33.7595 62.8914 34.0694L62.9571 34.0936C65.0444 34.6399 67.0053 35.4559 68.8399 36.5424C69.315 36.9203 69.7623 37.2914 70.1818 37.6555C74.1466 41.1106 75.2559 43.8413 73.5073 45.8481L73.4896 45.8473C73.1863 46.0295 72.8427 46.1119 72.4586 46.095C72.3322 46.0895 72.2033 46.0731 72.0694 46.0459C67.0179 43.9592 62.4795 42.8264 58.4464 42.6475C58.2948 42.6407 58.1406 42.6352 57.989 42.6309C55.4772 42.5583 51.8788 42.8657 47.1988 43.553C45.2227 43.8833 41.5989 44.6999 36.3226 46.0033C35.4508 46.1829 34.771 46.2903 34.2808 46.325C34.0635 46.3336 33.8487 46.3331 33.6288 46.3233C33.0729 46.2986 32.4992 46.2149 31.9079 46.0723L31.8953 46.0718C29.7524 45.1224 28.2842 44.6301 27.4882 44.5946C27.4276 44.5921 27.3695 44.5921 27.3164 44.5946C27.1319 44.6039 26.9904 44.7611 27.0005 44.9456C27.0081 45.1192 27.1496 45.2552 27.3189 45.263C27.329 45.2635 27.3417 45.2635 27.3518 45.2628C27.3922 45.2608 27.4377 45.2608 27.4832 45.263C28.1781 45.2938 29.5629 45.7695 31.6375 46.6899L31.6931 46.7088C32.3476 46.87 32.9819 46.9642 33.5985 46.9917C33.8411 47.0023 34.0812 47.0028 34.3187 46.993C34.8519 46.9554 35.567 46.843 36.4717 46.6556L36.4843 46.6526C41.7379 45.355 45.3414 44.5422 47.2973 44.2149C51.9394 43.5331 55.4974 43.2282 57.9713 43.3001C58.1204 43.3038 58.267 43.3091 58.4161 43.3157C62.3784 43.4915 66.8461 44.6102 71.8218 46.672L71.8799 46.6899C72.0694 46.7317 72.2564 46.7564 72.4358 46.7647C72.9918 46.7891 73.4921 46.6528 73.9394 46.3555L74.0051 46.2973C76.0595 43.9539 74.9325 40.9055 70.6214 37.1516C70.1868 36.7734 69.7193 36.3869 69.219 35.9926L69.1583 35.9548C67.2934 34.8515 65.2996 34.0201 63.1795 33.4602C62.434 33.1163 58.9569 32.4678 52.7455 31.5139C50.6456 31.076 49.2279 30.5919 48.4875 30.0628C48.4319 30.0233 48.3688 30.0029 48.3081 30.0004Z" fill="#A6A6A6" stroke="#A6A6A6" stroke-width="2"/>
<path d="M53.3455 12.0003C53.3032 11.9988 53.2579 12.003 53.2155 12.0138C53.0009 12.0652 52.88 12.2469 52.9434 12.4198C53.2941 13.3717 53.279 14.3802 52.9041 15.4455C52.6955 16.0674 52.4718 16.6044 52.236 17.0603C51.0448 18.9661 50.2648 20.37 49.899 21.272C49.3851 22.3934 49.0948 23.298 49.0283 23.9863C48.859 25.5663 49.4485 27.8333 50.7939 30.7872C50.8513 30.9138 50.9965 30.9942 51.1537 30.9997C51.2051 31.0016 51.2595 30.9952 51.3109 30.9797C51.5195 30.9168 51.6253 30.7289 51.5467 30.56C50.2407 27.6966 49.6692 25.5238 49.8265 24.0409C49.8899 23.4085 50.1651 22.5584 50.6578 21.4887L50.6609 21.4769C51.0146 20.6044 51.7825 19.2241 52.9616 17.337L52.9706 17.3185C53.2246 16.8334 53.4604 16.27 53.6751 15.626C54.0953 14.4382 54.1074 13.3075 53.7144 12.2334C53.663 12.0964 53.5118 12.0064 53.3455 12.0003Z" fill="#A6A6A6" stroke="#A6A6A6" stroke-width="2"/>
<path d="M60.698 12.0003C60.643 11.998 60.5881 12.008 60.538 12.0311C59.3942 12.5534 58.5107 12.909 57.8922 13.0979C55.1175 13.9372 53.5726 14.3853 53.255 14.4423C53.0831 14.4731 52.9708 14.6216 53.0067 14.7744C53.0353 14.9036 53.1619 14.9942 53.3028 14.9997C53.329 15.0007 53.3553 14.9993 53.3792 14.9944C53.723 14.9326 55.2966 14.478 58.0976 13.6308C58.7471 13.4331 59.6568 13.0669 60.8269 12.5322C60.9845 12.4611 61.0442 12.2914 60.9654 12.1531C60.9105 12.0597 60.8078 12.0046 60.698 12.0003Z" fill="#A6A6A6" stroke="#A6A6A6" stroke-width="2"/>
<path d="M60.9324 2.00322C60.6234 1.98938 60.3119 2.0201 60.0004 2.09584L59.9506 2.11142C58.251 2.81098 55.4625 3.55207 51.5874 4.33467C50.486 4.56543 47.3759 4.9054 42.2598 5.35533C41.3652 5.44768 40.6999 5.5974 40.2538 5.80475C39.2844 6.25242 38.5517 6.84956 38.0484 7.59668L37.9911 7.7688C37.9935 7.75747 37.9761 7.75672 37.9761 7.75672C37.4777 9.00963 36.5008 10.8894 35.0455 13.397C34.9533 13.5563 35.0056 13.7611 35.1626 13.8542C35.2125 13.8826 35.2623 13.8975 35.3147 13.8997C35.4343 13.905 35.5514 13.8457 35.6162 13.7349C37.1014 11.177 38.0957 9.25599 38.6041 7.97238C39.0277 7.32768 39.6731 6.80779 40.5279 6.41196C40.9092 6.23556 41.5048 6.10572 42.3172 6.02116C47.4557 5.56922 50.5906 5.22547 51.717 4.98969C55.6045 4.20482 58.4205 3.45696 60.1624 2.74608C60.4041 2.68468 60.6558 2.65975 60.905 2.67108C61.052 2.67787 61.2015 2.69749 61.3486 2.72996L61.3635 2.73273C61.8071 2.80747 62.3279 3.05409 62.9235 3.47256C64.6405 4.85381 66.4821 6.2026 68.4408 7.51842C69.8264 8.56298 70.7484 9.42081 71.2094 10.0912C72.0393 11.7651 73.0535 15.0588 74.2447 19.9723C74.2995 20.1865 74.3294 20.3744 74.3369 20.5388C74.3593 21.0375 74.1226 21.298 73.6267 21.3204C73.3899 21.3337 73.1607 21.3352 72.9339 21.3249C71.5982 21.265 70.412 20.7942 69.3803 19.9127L69.3629 19.8988C68.4807 19.2405 67.5462 17.5586 66.5568 14.8535C66.5269 14.7722 66.4672 14.7057 66.3899 14.668C63.7708 13.3957 62.1261 12.5067 61.4557 12.0006L61.3885 11.9609C61.3885 11.9606 61.3984 11.9614 61.3984 11.9614C61.0969 11.7281 60.9299 11.0975 60.905 10.0683C60.9 9.89188 60.7605 9.75096 60.5885 9.74316C60.581 9.74291 60.5736 9.74291 60.5636 9.74291C60.3817 9.74769 60.2371 9.90145 60.2421 10.0856C60.277 11.3909 60.5561 12.212 61.0794 12.5497C61.7847 13.0771 63.4269 13.9679 66.0036 15.2219L65.9862 15.2211C67.0029 17.9723 67.9972 19.7106 68.9691 20.4366C70.113 21.4077 71.4237 21.9263 72.899 21.9927C73.1482 22.0038 73.3999 22.0023 73.6566 21.9877C74.5911 21.9454 75.0396 21.4525 74.9973 20.5088C74.9873 20.3 74.9524 20.0679 74.8876 19.8133C73.674 14.8112 72.6373 11.4566 71.7751 9.7492L71.7527 9.7107C71.2493 8.97792 70.2724 8.06523 68.8221 6.97236L68.8071 6.96179C66.8584 5.65276 65.0268 4.31128 63.3172 2.93682L63.2998 2.92397C62.632 2.45391 62.0289 2.17158 61.4931 2.07722C61.3037 2.0362 61.1193 2.01153 60.9324 2.00322Z" fill="#A6A6A6" stroke="#A6A6A6" stroke-width="2"/>
<path d="M38.683 7.0003C38.5479 6.99463 38.4177 7.07038 38.3627 7.19895C38.215 7.50175 36.8564 8.80647 34.2866 11.1131L19.331 23.9948L19.311 24.0133C18.6629 24.5698 17.8472 25.3577 16.8564 26.3769L16.8363 26.3991C9.61001 35.8473 4.35043 43.211 1.05004 48.5005C0.952452 48.6545 1.00249 48.8563 1.15763 48.9511C1.20767 48.9814 1.2627 48.9972 1.31775 48.9997C1.43285 49.0046 1.55047 48.9489 1.61552 48.844C4.9034 43.5738 10.1505 36.2296 17.3543 26.811C18.3352 25.8019 19.1384 25.029 19.7664 24.4893C19.7664 24.4878 34.7295 11.6025 34.7295 11.6025C37.3643 9.23809 38.773 7.86674 38.9607 7.48374C38.9657 7.47313 38.9707 7.46424 38.9732 7.45635C39.0458 7.2878 38.9657 7.0958 38.7956 7.02571C38.758 7.01017 38.7205 7.00203 38.683 7.0003Z" fill="#A6A6A6" stroke="#A6A6A6" stroke-width="2"/>
<path d="M73.1786 15.0011C72.8559 14.9865 72.5472 15.1181 72.2546 15.3953L72.2245 15.4279C72.0039 15.707 71.9459 16.0114 72.0504 16.3414L72.0573 16.3592L72.5843 17.7251L73.3016 19.935C73.3132 19.9755 73.3365 20.0127 73.3898 20.07C73.9191 20.6619 74.3463 20.9715 74.6666 20.9988C74.6713 20.9992 74.6736 20.9995 74.6783 20.9997C74.8431 21.0071 74.9847 20.8839 74.9986 20.7192C75.0149 20.5505 74.8872 20.4016 74.7177 20.3872C74.5645 20.3741 74.2906 20.1493 73.8936 19.7121L73.8774 19.7114L73.1693 17.5291L73.1623 17.5129L72.633 16.1386C72.6052 16.0341 72.6214 15.9345 72.6841 15.8401C72.8443 15.6829 73.0022 15.6078 73.1531 15.6145C73.3225 15.6221 73.4664 15.491 73.4757 15.322C73.4827 15.1525 73.3504 15.009 73.1809 15.0011C73.1809 15.0011 73.1809 15.0011 73.1786 15.0011Z" fill="#A6A6A6" stroke="#A6A6A6" stroke-width="2"/>
<path d="M60.0369 1.00344C59.5114 0.982434 58.5128 1.05759 57.0357 1.22847L56.9783 1.23991L50.6989 2.98135C50.4218 3.05721 49.9696 3.16854 49.3422 3.31561C46.0927 4.00564 44.0929 4.36023 43.3373 4.38007C43.1465 4.38521 42.9949 4.52807 43.0001 4.69918C43.0054 4.86235 43.1518 4.99237 43.3321 4.99961C43.34 5.00008 43.3478 5.00008 43.3583 4.99985C44.1608 4.97861 46.2104 4.61794 49.5069 3.91764C50.1552 3.76591 50.6179 3.65176 50.9028 3.57356C50.9055 3.57333 57.1403 1.84404 57.1403 1.84404L57.1246 1.84335C58.5624 1.67668 59.5192 1.60313 60.0029 1.6225C60.0107 1.62273 60.0186 1.62322 60.0264 1.62369C60.6146 1.65893 61.093 1.78545 61.459 2.00325C61.5139 2.03569 61.5766 2.0525 61.6367 2.05483C61.7544 2.0595 61.872 2.01071 61.9426 1.91687C62.0472 1.77424 62.0053 1.58189 61.8459 1.48711C61.3753 1.20816 60.7819 1.04732 60.0708 1.00483C60.0552 1.00437 60.0447 1.00391 60.0369 1.00344Z" fill="#A6A6A6" stroke="#A6A6A6" stroke-width="2"/>
<path d="M67.0692 43.0008C66.724 42.9862 66.4681 43.1686 66.304 43.5487C66.1567 43.7979 66.0602 44.0593 66.0119 44.333L66.0095 44.3532C65.995 44.4743 65.9974 44.5762 66.0143 44.6588C66.0192 44.6777 66.024 44.6949 66.0288 44.7116C66.0916 44.9095 66.205 45.0123 66.374 45.0195C66.4319 45.0221 66.4971 45.0128 66.5695 44.9919C66.7385 44.9423 66.835 44.7696 66.7819 44.6064C66.7602 44.5343 66.7119 44.4761 66.6516 44.438C66.6805 44.2236 66.7578 44.0188 66.8761 43.8231L66.9171 43.6832L66.893 43.7891C66.9412 43.6804 67.0112 43.628 67.103 43.632C67.1271 43.6331 67.1512 43.6376 67.1778 43.6462C67.634 43.8636 68.3799 44.1631 69.4081 44.5443C70.8226 45.2036 71.5926 45.576 71.7157 45.6605L71.7302 45.6612C71.7544 45.681 71.7857 45.7001 71.8171 45.7185L71.7978 45.7175C72.1985 45.9626 72.3844 46.28 72.3554 46.6696C72.3433 46.8398 72.4761 46.9875 72.6523 46.9996C72.8357 47.0076 72.983 46.8807 72.995 46.7132C73.0409 46.0892 72.7682 45.5902 72.1744 45.2171L72.1575 45.2164C72.1381 45.1955 72.114 45.1759 72.0875 45.1573C71.9354 45.0521 71.1268 44.6588 69.664 43.9776L69.6399 43.9674C68.6019 43.5836 67.8633 43.2861 67.4192 43.0751L67.3757 43.0585C67.2671 43.0243 67.1657 43.005 67.0692 43.0008ZM71.682 45.616C71.694 45.6309 71.7109 45.6454 71.7278 45.6596L71.7133 45.6589C71.694 45.6456 71.6771 45.6312 71.6651 45.6153L71.682 45.616Z" fill="#A6A6A6" stroke="#A6A6A6" stroke-width="2"/>
<path d="M101.112 30.0601C100.382 30.5767 98.9885 31.0409 96.9317 31.4524C90.8306 32.3316 87.4224 32.9369 86.6972 33.2697C84.6058 33.8021 82.643 34.6049 80.8015 35.6781C80.804 35.6783 80.7446 35.715 80.7446 35.715C80.2496 36.1006 79.7867 36.4786 79.3586 36.8489C75.0989 40.5225 73.9604 43.5316 75.9479 45.876L76.0122 45.9342C76.4454 46.2336 76.9354 46.3742 77.48 46.3557C77.6557 46.3497 77.8389 46.327 78.027 46.2875L78.0814 46.2703C82.9772 44.2802 87.3655 43.2192 91.2464 43.0876C91.3925 43.0826 91.5385 43.0791 91.6821 43.0766C94.1077 43.032 97.5876 43.3723 102.127 44.0974C104.04 44.4427 107.562 45.2867 112.691 46.6289L112.703 46.6316C113.589 46.8269 114.287 46.9457 114.799 46.9882C115.042 47.0012 115.277 47.0034 115.515 46.9952C116.119 46.9747 116.742 46.8883 117.383 46.7355L117.438 46.717C119.48 45.8273 120.841 45.3704 121.522 45.3476C121.569 45.3459 121.611 45.3464 121.651 45.3489C121.663 45.3494 121.673 45.3494 121.683 45.3491C121.851 45.3437 121.99 45.2101 121.999 45.038C122.009 44.8552 121.873 44.6982 121.693 44.6869C121.641 44.6837 121.584 44.6832 121.524 44.6852C120.745 44.7117 119.302 45.1839 117.193 46.1017L117.18 46.1022C116.599 46.2373 116.037 46.3142 115.492 46.3325C115.277 46.3399 115.067 46.338 114.856 46.3272C114.374 46.2875 113.708 46.1739 112.859 45.9869C107.703 44.639 104.164 43.791 102.236 43.4435C97.6545 42.7113 94.1349 42.3685 91.6722 42.4137C91.5237 42.4159 91.3752 42.4197 91.2242 42.4249C87.2714 42.5593 82.8163 43.6332 77.8562 45.6473C77.7151 45.6728 77.5889 45.6877 77.4651 45.692C77.0889 45.7045 76.7523 45.6193 76.4577 45.4355L76.4404 45.436C74.7499 43.4287 75.8637 40.7345 79.7843 37.3531C80.1976 36.9965 80.6407 36.6334 81.1159 36.2639C82.9202 35.2069 84.8483 34.4191 86.8977 33.9002L86.9621 33.8768C87.5759 33.5764 90.9346 32.9861 97.0431 32.1059L97.0604 32.1032C99.2064 31.6732 100.684 31.1733 101.491 30.603C101.639 30.4978 101.674 30.2908 101.57 30.141C101.503 30.0456 101.397 29.9965 101.29 30.0002C101.228 30.0022 101.167 30.0219 101.112 30.0601Z" fill="#A6A6A6" stroke="#A6A6A6" stroke-width="2"/>
<path d="M97.2535 12.2297C96.9176 13.2991 96.9151 14.4292 97.2485 15.619C97.4177 16.2644 97.6043 16.8292 97.8083 17.3134C97.8083 17.3164 97.8158 17.3346 97.8158 17.3346C98.7662 19.2304 99.3832 20.6158 99.6643 21.4907L99.6668 21.5025C100.06 22.5753 100.279 23.4271 100.324 24.0572C100.438 25.5421 99.9405 27.7078 98.8358 30.5569C98.7711 30.7251 98.8557 30.9136 99.0249 30.9782C99.0697 30.9942 99.112 31.0013 99.1543 30.9998C99.2837 30.9954 99.4031 30.9165 99.4528 30.7903C100.595 27.8515 101.102 25.592 100.983 24.012C100.933 23.3239 100.704 22.4174 100.294 21.2929C100.003 20.3886 99.3782 18.9789 98.4178 17.0643C98.2263 16.6071 98.0496 16.0688 97.8854 15.4502C97.5869 14.3783 97.5869 13.3706 97.8854 12.4228C97.9377 12.2505 97.8406 12.0677 97.6665 12.0147C97.6317 12.0036 97.5943 11.999 97.557 12.0002C97.4202 12.0049 97.2958 12.0933 97.2535 12.2297Z" fill="#A6A6A6" stroke="#A6A6A6" stroke-width="2"/>
<path d="M88.0409 12.1469C87.9493 12.2812 88.0167 12.4477 88.192 12.5188C89.508 13.0521 90.5301 13.4184 91.2582 13.6173C94.4107 14.4715 96.1797 14.9302 96.568 14.9939C96.5977 14.9988 96.6247 15.0005 96.6543 14.9999C96.8161 14.9957 96.9591 14.9085 96.9914 14.7824C97.0346 14.6336 96.9105 14.4875 96.7164 14.4556C96.3604 14.3969 94.621 13.9446 91.4982 13.0987C90.8024 12.9087 89.81 12.553 88.5237 12.0319C88.467 12.0087 88.405 11.9985 88.3457 12.0002C88.2216 12.0033 88.103 12.0563 88.0409 12.1469Z" fill="#A6A6A6" stroke="#A6A6A6" stroke-width="2"/>
<path d="M88.6829 2.07003C88.1431 2.15921 87.5387 2.4369 86.8645 2.90284L86.8496 2.91551C85.1283 4.2804 83.285 5.61108 81.3249 6.90755L81.31 6.91795C79.8523 8.00261 78.8672 8.91066 78.3573 9.64264L78.3349 9.68141C77.4568 11.3909 76.3847 14.7571 75.121 19.7798C75.0539 20.0355 75.0141 20.2686 75.0042 20.4789C74.9519 21.4282 75.3922 21.9294 76.325 21.9823C76.5812 21.9998 76.8325 22.0044 77.0812 21.9958C78.5563 21.9453 79.8697 21.4374 81.0214 20.472C81.999 19.7522 83.0089 18.0126 84.0537 15.2545L84.0363 15.255C86.6232 14.0203 88.27 13.1416 88.9814 12.6184C89.5063 12.2842 89.7948 11.4605 89.8421 10.1466C89.8471 9.96112 89.7052 9.80505 89.5237 9.79821C89.5162 9.7977 89.5087 9.7977 89.4988 9.79796C89.3271 9.80404 89.1879 9.9444 89.1804 10.122C89.1431 11.1578 88.9714 11.7914 88.6655 12.0225L88.6779 12.0223L88.6108 12.0615C87.9367 12.5634 86.285 13.4406 83.6557 14.693C83.5786 14.7297 83.5189 14.7964 83.489 14.8777C82.4716 17.5905 81.5214 19.2736 80.6334 19.9265L80.6159 19.9402C79.5762 20.8163 78.3871 21.2772 77.0538 21.3231C76.8275 21.3309 76.5986 21.3269 76.3648 21.3109C75.8673 21.2828 75.636 21.018 75.6633 20.5161C75.6708 20.3507 75.7031 20.1619 75.7579 19.9496C77.0016 15.013 78.0488 11.7081 78.8996 10.0316C79.3622 9.36191 80.2926 8.50857 81.6856 7.47205C83.6557 6.16873 85.5064 4.83121 87.2377 3.45924C87.8372 3.04448 88.357 2.802 88.7998 2.73182L88.8172 2.72878C88.964 2.69761 89.1107 2.67964 89.26 2.67432C89.5087 2.66596 89.7575 2.69355 90.0087 2.75765C91.7326 3.49318 94.5335 4.27685 98.4065 5.10991C99.5284 5.35948 102.653 5.74004 107.777 6.25134C108.588 6.34559 109.18 6.48291 109.556 6.66432C110.406 7.07249 111.046 7.60304 111.471 8.25622C111.956 9.55472 112.929 11.4996 114.384 14.0915C114.446 14.2035 114.563 14.2645 114.68 14.2607C114.732 14.259 114.784 14.2445 114.834 14.2164C114.991 14.1244 115.048 13.9187 114.956 13.7573C113.531 11.2171 112.575 9.31326 112.09 8.04643L112.073 8.0472C112.075 8.0586 112.021 7.88478 112.021 7.88478C111.528 7.12696 110.799 6.51737 109.839 6.0565C109.396 5.84291 108.732 5.6848 107.847 5.58244C102.74 5.07267 99.6403 4.69617 98.5458 4.45218C94.6827 3.62139 91.9067 2.84457 90.2177 2.12147L90.1704 2.10524C89.8595 2.02568 89.5486 1.99124 89.2401 2.00188C89.0535 2.00822 88.867 2.03075 88.6829 2.07003Z" fill="#A6A6A6" stroke="#A6A6A6" stroke-width="2"/>
<path d="M111.204 8.02414C111.036 8.09186 110.957 8.28109 111.024 8.44733C111.029 8.45686 111.033 8.46567 111.038 8.47618C111.218 8.85757 112.592 10.231 115.159 12.5964C115.164 12.6008 129.767 25.5234 129.767 25.5234C130.381 26.0659 131.165 26.8402 132.117 27.8472C139.117 37.2561 144.209 44.5871 147.393 49.8424C147.454 49.947 147.568 50.0037 147.684 49.9998C147.738 49.9979 147.792 49.9832 147.842 49.9534C147.997 49.8612 148.046 49.6619 147.953 49.5082C144.757 44.2336 139.655 36.8833 132.642 27.4577C132.635 27.4477 132.615 27.4252 132.615 27.4252C131.651 26.4052 130.854 25.6161 130.225 25.0579C130.223 25.0579 130.203 25.0393 130.203 25.0393L115.603 12.1209C113.095 9.80859 111.771 8.50185 111.63 8.20016C111.578 8.07255 111.45 7.99578 111.317 8.00018C111.28 8.00164 111.241 8.00922 111.204 8.02414Z" fill="#A6A6A6" stroke="#A6A6A6" stroke-width="2"/>
<path d="M118.029 46.1918C117.958 46.3584 118.022 46.5571 118.174 46.6358C119.307 47.2262 120.132 48.2867 120.653 49.8167C121.118 51.1716 121.483 52.372 121.743 53.4185C122.301 55.6731 122.777 57.8232 123.173 59.88L123.176 59.8924C123.266 60.285 123.348 60.5828 123.418 60.7865C123.466 60.9224 123.584 61.0043 123.708 60.9998C123.742 60.9986 123.774 60.9913 123.808 60.9775C123.962 60.9109 124.039 60.7179 123.98 60.5458C123.917 60.3682 123.844 60.0999 123.763 59.7406C123.364 57.6719 122.886 55.511 122.328 53.2574C122.058 52.1798 121.689 50.9573 121.215 49.5813C120.637 47.8824 119.708 46.6993 118.427 46.0318C118.384 46.0087 118.337 45.9986 118.291 46.0001C118.18 46.0044 118.078 46.0745 118.029 46.1918Z" fill="#A6A6A6" stroke="#A6A6A6" stroke-width="2"/>
<path d="M76.8505 15.0006C76.6816 15.0064 76.5514 15.149 76.5583 15.319C76.5628 15.4887 76.7021 15.6215 76.8711 15.616C77.0195 15.6106 77.1725 15.6881 77.3346 15.8471C77.3894 15.9424 77.4054 16.0426 77.3757 16.1472C77.378 16.1472 76.8414 17.5196 76.8414 17.5196L76.8346 17.5356L76.1153 19.7165L76.0993 19.7169C75.7043 20.151 75.4303 20.3736 75.2796 20.3849C75.1129 20.3977 74.9873 20.5456 75.001 20.7149C75.0124 20.8802 75.1517 21.0052 75.3116 20.9998C75.3161 20.9996 75.3207 20.9996 75.3253 20.9991C75.6404 20.975 76.0628 20.6692 76.5925 20.0814C76.645 20.0246 76.6656 19.9871 76.6793 19.9469L77.4077 17.7387L77.942 16.3744L77.9466 16.3568C78.0539 16.0271 77.9991 15.721 77.7867 15.4386L77.757 15.4057C77.4716 15.1247 77.1702 14.9897 76.8505 15.0006Z" fill="#A6A6A6" stroke="#A6A6A6" stroke-width="2"/>
<path d="M89.9478 1.00266C89.2274 1.037 88.6328 1.1863 88.1587 1.4503C87.9963 1.54009 87.9518 1.72462 88.0566 1.86268C88.1247 1.95338 88.2426 2.00142 88.3604 1.99828C88.4207 1.99648 88.4835 1.98075 88.5386 1.95022C88.9079 1.74414 89.3872 1.62674 89.9792 1.59823C89.9844 1.59801 89.9949 1.59756 90.0028 1.59733C90.4874 1.58341 91.446 1.66311 92.8814 1.83664L92.8657 1.8371L99.0945 3.55802C99.3826 3.63637 99.8437 3.74996 100.48 3.89947C103.786 4.60616 105.834 4.97184 106.638 4.99968C106.646 4.9999 106.657 5.00013 106.664 4.99991C106.845 4.99452 106.992 4.87083 107 4.71369C107.008 4.54936 106.858 4.41084 106.667 4.40389C105.91 4.37784 103.909 4.01822 100.664 3.32477C100.037 3.17751 99.5843 3.06594 99.3067 2.99074L93.0386 1.2579L92.9783 1.24646C91.5037 1.06822 90.5031 0.986717 89.9766 1.00176C89.9661 1.00198 89.9556 1.00243 89.9478 1.00266Z" fill="#A6A6A6" stroke="#A6A6A6" stroke-width="2"/>
<path d="M81.6453 43.0557L81.602 43.072C81.157 43.2815 80.4159 43.5756 79.379 43.9542L79.3549 43.9641C77.8897 44.6398 77.079 45.0305 76.925 45.1358C76.8985 45.1543 76.8745 45.1739 76.8552 45.1949L76.8384 45.1954C76.2417 45.5678 75.965 46.0711 76.0035 46.7051C76.0131 46.8751 76.1599 47.0055 76.3331 46.9998C76.5184 46.989 76.6507 46.8404 76.6411 46.6673C76.617 46.2719 76.8071 45.9516 77.2089 45.7072L77.1872 45.7079C77.2209 45.6897 77.2498 45.6708 77.2763 45.6507L77.2907 45.6503C77.4134 45.5657 78.1857 45.1963 79.6052 44.5418C80.6301 44.1663 81.3783 43.8701 81.845 43.6538C81.8619 43.6457 81.8883 43.6415 81.91 43.6406C82.0038 43.6375 82.0712 43.6916 82.1169 43.8021L82.0953 43.6944L82.1362 43.8368C82.2492 44.0369 82.3238 44.2452 82.3599 44.4627C82.2901 44.5012 82.242 44.5598 82.2179 44.6325C82.165 44.7976 82.2589 44.9738 82.4273 45.026C82.4994 45.0482 82.5644 45.0581 82.6221 45.0562C82.7905 45.0508 82.906 44.9476 82.9686 44.7468C82.9758 44.7308 82.9782 44.7133 82.983 44.6953C83.0023 44.6103 83.0047 44.5071 82.9927 44.3838L82.9903 44.3633C82.9445 44.0853 82.8531 43.8189 82.7112 43.5643C82.5476 43.1769 82.2949 42.9891 81.9509 43.0005C81.8571 43.0036 81.7536 43.022 81.6453 43.0557ZM77.3412 45.6049C77.3292 45.621 77.3123 45.6354 77.2931 45.6486L77.2786 45.6491C77.2955 45.6349 77.3123 45.6205 77.3244 45.6056L77.3412 45.6049Z" fill="#A6A6A6" stroke="#A6A6A6" stroke-width="2"/>
</svg>
