<svg width="70" height="70" viewBox="0 0 70 70" fill="none" xmlns="http://www.w3.org/2000/svg">
<g filter="url(#filter0_d_1466_542)">
<path d="M29.5892 20.1451C29.4719 20.1324 29.3657 20.2242 29.3492 20.3611C29.0637 22.72 28.5934 24.8817 27.9386 26.8456C27.5109 28.0268 27.0525 29.1019 26.5627 30.0707C26.3007 30.6017 25.6393 31.7225 24.5774 33.4315C24.5775 33.4315 24.5721 33.4413 24.5721 33.4413C24.4019 33.7305 24.2611 34.0098 24.1497 34.2794C24.0048 34.6274 23.8914 34.9705 23.8098 35.3104C23.5129 36.7122 23.3357 37.5062 23.277 37.699C23.2386 37.8248 23.3007 37.9604 23.4156 38.0029C23.4317 38.0094 23.4478 38.0127 23.464 38.0143C23.5637 38.0258 23.6606 37.9604 23.6937 37.851C23.7567 37.6435 23.9372 36.838 24.2345 35.4329C24.3096 35.1208 24.4147 34.8022 24.5497 34.4787C24.6518 34.2304 24.7815 33.9739 24.9388 33.706C26.0086 31.9839 26.6779 30.85 26.9467 30.3043C27.4466 29.3159 27.9139 28.2212 28.3489 27.0171C29.0177 25.0124 29.4956 22.8133 29.7852 20.4181L29.7861 20.4099C29.798 20.2797 29.7145 20.1631 29.5967 20.1461C29.5941 20.1458 29.5918 20.1454 29.5892 20.1451Z" fill="white" stroke="white"/>
<path d="M30.8489 18.8792C30.4268 18.8366 30.0414 19.048 29.6922 19.5129C29.611 19.6215 29.6311 19.7769 29.7374 19.8602C29.7744 19.8893 29.8173 19.9057 29.8607 19.9101C29.9414 19.9183 30.0243 19.8849 30.0772 19.8143C30.3048 19.5109 30.5578 19.3731 30.8357 19.4012C31.0162 19.4195 31.2076 19.5077 31.4094 19.6657C31.6311 19.8394 31.8665 20.0898 32.1154 20.4166C32.7939 21.387 33.1608 22.8055 33.2158 24.6698C33.2489 25.6657 33.1238 26.7456 32.8404 27.9145L32.8374 27.9296C32.7178 28.5897 32.1892 29.9249 31.2518 31.9386L31.2426 31.9621C31.2421 31.9621 31.2385 31.9739 31.2385 31.9739C31.0008 32.7699 30.8164 33.7323 30.6854 34.8592C30.565 35.8871 30.5294 37.0728 30.5782 38.4181L30.579 38.4315C30.9462 42.6571 31.1019 44.9177 31.046 45.215C31.0463 45.215 31.0384 45.2687 31.0384 45.2687C31.0049 46.5989 30.8445 47.6586 30.5567 48.448C30.2483 49.3028 29.755 50.0351 29.0767 50.6448C28.8163 50.8732 28.4964 51.0462 28.1177 51.1604H28.1054C26.1345 51.4341 24.9579 51.7885 24.5759 52.2235L24.5626 52.2218C23.8445 52.6534 20.8307 55.4363 15.5209 60.5722C15.4238 60.6663 15.4197 60.8225 15.5117 60.9216C15.5535 60.9669 15.6077 60.9921 15.6638 60.9988C15.7313 61.0055 15.8012 60.9837 15.8545 60.9316C21.3983 55.5707 24.3895 52.8046 24.8277 52.6366C24.8675 52.6215 24.9028 52.5963 24.9298 52.5627C25.2112 52.2134 26.3077 51.9077 28.2193 51.6441L28.2561 51.6357C28.7022 51.4996 29.0819 51.2947 29.3951 51.0176C30.1364 50.3508 30.6745 49.5531 31.011 48.621C31.315 47.7879 31.4853 46.6862 31.5223 45.3157C31.5871 44.9815 31.4347 42.6756 31.0631 38.3996C31.0149 37.0812 31.0496 35.9207 31.1668 34.918C31.2938 33.8263 31.4714 32.8959 31.6989 32.1301C32.6427 30.1029 33.1798 28.7375 33.3113 28.0338C33.6052 26.8212 33.7349 25.6942 33.7004 24.6546C33.6424 22.6846 33.2433 21.1727 32.5036 20.12L32.498 20.1123C32.2239 19.7522 31.9592 19.4722 31.7041 19.2725C31.4041 19.0376 31.119 18.9064 30.8489 18.8792Z" fill="white" stroke="white"/>
<path d="M34.2509 3.56958C33.856 3.5295 33.4057 3.61279 32.9 3.8198C32.8712 3.83178 32.8448 3.84878 32.822 3.87065C32.5486 4.13406 32.3153 4.58227 32.1224 5.21547L32.1199 5.22431C30.9703 9.53466 30.2515 12.0315 29.9634 12.7149L29.9569 12.7324C29.3335 14.5683 28.6326 16.2806 27.8538 17.8689C27.3797 18.8699 26.9972 19.5708 26.7047 19.975L22.6947 25.3305C22.674 25.3582 22.6591 25.3895 22.6507 25.4242C20.6353 33.5278 18.8629 38.6814 17.3333 40.8835L17.3166 40.9112C15.8742 43.6633 11.8215 46.3669 5.15877 49.0201C5.03083 49.0721 4.96728 49.2196 5.01684 49.3515C5.05173 49.4452 5.13382 49.5042 5.22434 49.5146C5.26193 49.5181 5.30087 49.5129 5.33829 49.4972C12.0932 46.8076 16.227 44.0347 17.7397 41.1819C19.2981 38.9348 21.0898 33.7516 23.1124 25.6306L23.0986 25.6289L27.101 20.2838C27.4141 19.8511 27.8124 19.1242 28.2978 18.0995C29.0834 16.4973 29.7908 14.7703 30.4201 12.9186C30.7168 12.2135 31.4424 9.69691 32.597 5.36868C32.7525 4.85817 32.9265 4.49794 33.1193 4.28797L33.1057 4.28658C33.4976 4.12902 33.8465 4.06569 34.1523 4.09674C34.7174 4.15436 35.1354 4.53385 35.4066 5.23559C35.6285 5.80978 35.762 6.58908 35.807 7.57297C35.7935 8.33058 35.7067 9.10415 35.546 9.89334L35.5433 9.90896C35.4877 10.3027 35.118 11.5725 34.4343 13.7183L34.4242 13.7626C34.005 16.8411 33.4979 19.2821 32.9029 21.0855C32.8589 21.2195 32.9284 21.3649 33.0585 21.4102C33.0769 21.4168 33.0954 21.4208 33.1143 21.4227C33.2266 21.434 33.336 21.3651 33.3737 21.2502C33.9758 19.4247 34.4881 16.9674 34.9105 13.8782C35.591 11.7304 35.9663 10.4373 36.0328 9.99849C36.2009 9.172 36.2911 8.36077 36.3037 7.56516V7.54903C36.256 6.50805 36.1111 5.67374 35.8687 5.04645C35.5169 4.13579 34.9776 3.6435 34.2509 3.56958Z" fill="white" stroke="white"/>
<path d="M32.2686 1.01479C31.8195 0.967233 31.4685 1.16711 31.2153 1.61442C31.1048 1.81166 31.0344 2.15 31.0033 2.6296C31.0034 2.6296 31.0026 2.65119 31.0026 2.65119C31.0208 5.12728 30.9394 7.13114 30.7585 8.66225C30.6857 9.4672 30.3627 11.0608 29.7889 13.45C29.7558 13.5885 29.8334 13.7296 29.9626 13.7654C29.9748 13.7685 29.9871 13.771 29.9994 13.7722C30.1156 13.7845 30.2266 13.7043 30.2566 13.5792C30.8348 11.1715 31.1616 9.55425 31.2377 8.72718C31.4207 7.17835 31.5034 5.15764 31.4854 2.6654C31.5103 2.26933 31.5581 2.00838 31.6281 1.88274C31.7707 1.63109 31.9811 1.52019 32.2597 1.54967C32.4791 1.57283 32.7409 1.68321 33.0447 1.88081C33.1068 1.92117 33.1708 1.96521 33.2366 2.01295L33.2453 2.01892C33.785 2.37533 34.2118 3.12991 34.5253 4.28303C34.5538 4.38744 34.6383 4.45816 34.7334 4.46816C34.7632 4.47149 34.7941 4.46851 34.8246 4.45921C34.9526 4.41903 35.0263 4.27548 34.9888 4.13825C34.6422 2.86353 34.1484 2.01207 33.5077 1.58441C33.4353 1.53229 33.3646 1.48369 33.295 1.43841C32.9095 1.18764 32.5673 1.04638 32.2686 1.01479Z" fill="white" stroke="white"/>
<path d="M31.0555 18.8716C30.9355 18.8601 30.8198 18.9319 30.783 19.0484C30.741 19.1813 30.8179 19.3218 30.9546 19.3624C31.2883 19.462 31.5599 19.873 31.7693 20.5953C31.844 20.8963 31.8782 21.2195 31.8716 21.5649C31.8756 22.0755 31.8382 22.5466 31.7593 22.9849C31.6935 23.2799 31.6034 23.4402 31.4892 23.4692L31.4722 23.4761L31.4552 23.4744C31.4392 23.4744 31.4196 23.4726 31.3955 23.4709C31.378 23.4692 31.3583 23.4658 31.3364 23.4641C31.13 23.413 30.7131 23.343 30.0781 23.2509C30.0741 23.2492 30.0697 23.2492 30.0653 23.2492C29.9288 23.2356 29.8046 23.3294 29.7841 23.4624C29.7632 23.5988 29.8604 23.7268 30.0018 23.7472C30.6331 23.8393 31.0358 23.9075 31.2095 23.9519L31.2187 23.9553C31.219 23.9553 31.2409 23.9587 31.2409 23.9587C31.2736 23.9621 31.3043 23.9672 31.3331 23.9689C31.4211 23.9775 31.492 23.9792 31.5455 23.9724C31.5729 23.9689 31.5982 23.9638 31.6217 23.957C31.9409 23.8751 32.1569 23.5835 32.267 23.0821L32.2688 23.0719C32.3529 22.6045 32.393 22.106 32.389 21.5746C32.3965 21.182 32.3567 20.8129 32.2695 20.4672L32.2674 20.459C32.0072 19.5604 31.6201 19.0346 31.1062 18.8816C31.0893 18.8765 31.0725 18.8733 31.0555 18.8716Z" fill="white" stroke="white"/>
<path d="M34.0434 4.83063C33.962 4.82487 33.8749 4.82531 33.7828 4.83178C33.6182 4.84357 33.4983 4.94755 33.5149 5.06419C33.5296 5.1663 33.644 5.24424 33.783 5.25402C33.8025 5.25546 33.8226 5.25546 33.8427 5.25402C33.8745 5.25172 33.9048 5.25157 33.934 5.25373C34.1556 5.26912 34.2962 5.40992 34.3559 5.67583L34.3583 5.68489C34.4121 5.87257 34.4233 6.20853 34.3914 6.6929C34.3742 6.92027 34.3023 7.22127 34.1767 7.59605C34.031 7.96149 33.9119 8.17204 33.8183 8.22755C33.7932 8.23129 33.771 8.23272 33.7457 8.23157C33.3532 8.15118 33.0314 8.10229 32.7795 8.0846C32.759 8.08316 32.7393 8.08201 32.7199 8.081C32.5551 8.07237 32.4114 8.1601 32.3992 8.27673C32.3875 8.39193 32.5074 8.49231 32.6683 8.50367C32.6913 8.50482 32.7069 8.50568 32.7231 8.50698C32.9419 8.52208 33.2357 8.56796 33.6044 8.64418L33.6501 8.65094C33.6594 8.6518 33.6688 8.65252 33.6779 8.65324C33.8141 8.66273 33.9405 8.64979 34.0572 8.61455C34.1079 8.6006 34.1572 8.58004 34.2033 8.55243C34.3918 8.44025 34.5761 8.15694 34.7559 7.70233L34.7587 7.69428C34.8935 7.29375 34.9702 6.96715 34.9892 6.71389C35.0229 6.20047 35.0089 5.83273 34.9472 5.60953C34.8387 5.12473 34.5375 4.86529 34.0434 4.83063Z" fill="white" stroke="white"/>
<path d="M31.9482 1.00176C31.7317 0.987101 31.5117 1.0215 31.2889 1.10475L31.271 1.12285L31.2499 1.1214C31.0913 1.1985 31.0381 1.34673 31.1332 1.4669C31.1769 1.52211 31.2451 1.56265 31.3392 1.56898C31.4525 1.57677 31.6031 1.53532 31.7938 1.41134L31.8152 1.41279L31.6719 1.56138L31.6919 1.56282C31.7543 1.54346 31.816 1.53586 31.8771 1.54002C31.9379 1.54401 31.9983 1.55993 32.0581 1.58762L32.0807 1.5974C32.2438 1.66219 32.3923 1.81494 32.5267 2.05511C32.665 2.28171 32.7812 2.6931 32.8797 3.29706L32.8813 3.30592C32.9379 3.57233 32.9292 3.98282 32.8549 4.537C32.8352 4.68306 32.9914 4.81265 33.2034 4.82694C33.4199 4.8407 33.6088 4.73265 33.6286 4.58587C33.7079 3.99513 33.7158 3.54573 33.652 3.23769C33.5459 2.58885 33.4128 2.13113 33.2521 1.86381C33.0572 1.51505 32.8043 1.2756 32.494 1.14511C32.3136 1.06204 32.1321 1.01443 31.9482 1.00176Z" fill="white" stroke="white"/>
<path d="M31.8725 6.10938C31.78 6.10938 31.7042 6.10938 31.6451 6.10938C31.5068 6.10938 31.3673 6.10938 31.2263 6.10938C31.1097 6.10938 31.0549 6.10938 31.1038 6.10938C31.1375 6.10938 31.2115 6.10938 31.2925 6.10938C31.3292 6.10938 31.3672 6.10938 31.4033 6.10938C31.4941 6.10938 31.5812 6.10938 31.6645 6.10938C31.7018 6.10938 31.7528 6.10938 31.8192 6.10938H31.8318C31.8985 6.10938 31.9941 6.10938 32.1186 6.10938C32.1256 6.10938 32.1324 6.10938 32.1392 6.10938C32.2558 6.10938 32.3638 6.10938 32.3861 6.10938C32.4099 6.10938 32.3284 6.10938 32.2043 6.10938C32.0635 6.10938 31.9532 6.10938 31.8731 6.10938H31.8725Z" fill="white" stroke="white"/>
<path d="M40.4094 20.1461C40.2915 20.1631 40.2081 20.2797 40.2199 20.4085C40.2199 20.4099 40.2207 20.4181 40.2207 20.4181C40.5104 22.8133 40.9884 25.0124 41.655 27.0122C42.0921 28.2212 42.5594 29.3159 43.0591 30.3043C43.3282 30.85 43.9975 31.9839 45.0673 33.706C45.2244 33.9739 45.3541 34.2304 45.4561 34.4787C45.5913 34.8022 45.6963 35.1208 45.7715 35.4329C46.0689 36.838 46.2493 37.6435 46.3124 37.851C46.3455 37.9604 46.4424 38.0258 46.542 38.0143C46.5583 38.0127 46.5742 38.0094 46.5903 38.0029C46.7054 37.9604 46.7675 37.8248 46.7289 37.699C46.6702 37.5062 46.493 36.7122 46.1979 35.3169C46.1145 34.9705 46.0013 34.6274 45.8563 34.2794C45.745 34.0098 45.6041 33.7305 45.4338 33.4413L45.4286 33.4315C44.3666 31.7225 43.7054 30.6017 43.4447 30.074C42.9534 29.1019 42.495 28.0268 42.0676 26.8456C41.4127 24.8817 40.9424 22.72 40.6569 20.3611C40.6404 20.2242 40.5341 20.1324 40.4169 20.1451C40.4143 20.1454 40.412 20.1458 40.4094 20.1461Z" fill="white" stroke="white"/>
<path d="M38.4572 19.2725C38.184 19.4722 37.9005 19.7522 37.6066 20.1123L37.6006 20.12C36.8081 21.1727 36.3805 22.6846 36.3183 24.6546C36.2813 25.6942 36.4205 26.8212 36.7355 28.0338C36.8762 28.7375 37.4516 30.1029 38.4614 32.1284C38.7067 32.8959 38.8967 33.8263 39.033 34.918C39.1586 35.9207 39.1958 37.0812 39.1445 38.3996C38.746 42.6756 38.5827 44.9815 38.6539 45.3157C38.6916 46.6862 38.874 47.7879 39.1998 48.621C39.5603 49.5531 40.1369 50.3508 40.9294 51.0159C41.2666 51.2947 41.6734 51.4996 42.1514 51.6357L42.1909 51.6441C44.2392 51.9077 45.414 52.2134 45.7155 52.5627C45.7444 52.5963 45.7823 52.6215 45.8247 52.6366C46.2942 52.8046 49.499 55.5707 55.439 60.9316C55.4959 60.9837 55.5709 61.0055 55.6433 60.9988C55.7032 60.9921 55.7615 60.9669 55.806 60.9216C55.9048 60.8225 55.9004 60.6663 55.7962 60.5722C50.1071 55.4363 46.8782 52.6534 46.1089 52.2218L46.0945 52.2235C45.6854 51.7885 44.4248 51.4341 42.3129 51.1604H42.2997C41.8939 51.0462 41.5514 50.8732 41.2724 50.6448C40.5456 50.0351 40.0171 49.3028 39.6871 48.4497C39.3784 47.6586 39.2063 46.5989 39.1704 45.2687L39.1621 45.215C39.1024 44.9177 39.2694 42.6571 39.6626 38.4315L39.6635 38.4181C39.7158 37.0728 39.6776 35.8871 39.5489 34.8592C39.4085 33.7323 39.2109 32.7699 38.9563 31.9739L38.9522 31.9621C38.9519 31.9621 38.9418 31.9386 38.9418 31.9386C37.9376 29.9249 37.3713 28.5897 37.2431 27.9296L37.2397 27.9145C36.9363 26.7456 36.8021 25.6657 36.8375 24.6714C36.8965 22.8055 37.2896 21.387 38.0169 20.4166C38.2832 20.0898 38.5354 19.8394 38.7731 19.6657C38.9894 19.5077 39.1942 19.4195 39.3876 19.4012C39.6855 19.3731 39.9564 19.5109 40.2003 19.8143C40.257 19.8849 40.3458 19.9183 40.4322 19.9101C40.4787 19.9057 40.5247 19.8893 40.5645 19.8602C40.6784 19.7769 40.6999 19.6215 40.6127 19.5129C40.2387 19.048 39.8257 18.8366 39.3735 18.8792C39.0841 18.9064 38.7786 19.0376 38.4572 19.2725Z" fill="white" stroke="white"/>
<path d="M35.3511 13.3439L35.3448 13.2973C35.2913 13.012 35.2408 12.7418 35.1936 12.486C35.1312 12.7222 35.0684 12.9581 35 13.1893C35.0175 13.283 35.0331 13.3686 35.0513 13.4654C35.3113 16.7231 35.6296 19.314 36.0037 21.2387C36.0272 21.3599 36.0951 21.4325 36.1649 21.4206C36.1764 21.4186 36.188 21.4144 36.1994 21.4074C36.2803 21.3595 36.3235 21.2064 36.2961 21.0651C35.9264 19.1638 35.6115 16.5899 35.3511 13.3439Z" fill="white" stroke="white"/>
<path d="M64.8387 49.0201C58.096 46.3669 53.9945 43.6633 52.5348 40.9112L52.518 40.8835C50.9701 38.6814 49.1763 33.5278 47.1366 25.4242C47.1282 25.3895 47.113 25.3582 47.0922 25.3305L43.0338 19.975C42.7382 19.5708 42.351 18.8699 41.8724 17.8722C41.0826 16.2806 40.3733 14.5683 39.7428 12.7324L39.736 12.7149C39.4444 12.0315 38.717 9.53466 37.5536 5.22431L37.551 5.21547C37.3557 4.58227 37.1199 4.13406 36.8431 3.87065C36.8202 3.84878 36.7934 3.83178 36.7641 3.8198C36.2527 3.61279 35.7968 3.5295 35.3971 3.56958C35.2571 3.58364 35.1261 3.61765 35 3.66207C35.0628 3.81859 35.1157 3.97788 35.1604 4.13943C35.1667 4.15245 35.1732 4.16563 35.1796 4.17882C35.281 4.14221 35.3837 4.1082 35.4968 4.09674C35.8064 4.06569 36.1597 4.12902 36.5561 4.28658L36.5421 4.28797C36.7373 4.49794 36.9134 4.85817 37.0708 5.36868C38.2392 9.69691 38.9738 12.2135 39.2743 12.9186C39.9105 14.7703 40.6266 16.4973 41.4216 18.0995C41.9132 19.1242 42.316 19.8511 42.6304 20.2805C42.6329 20.284 46.6835 25.6289 46.6835 25.6289L46.6695 25.6306C48.7166 33.7516 50.5295 38.9348 52.1086 41.1802C53.6375 44.0347 57.821 46.8076 64.6572 49.4972C64.695 49.5129 64.7344 49.5181 64.7725 49.5146C64.8639 49.5042 64.947 49.4452 64.9825 49.3515C65.0324 49.2196 64.9681 49.0721 64.8387 49.0201Z" fill="white" stroke="white"/>
<path d="M40.2093 13.45C39.6089 11.0606 39.2707 9.4672 39.1951 8.6698C39.0051 7.13115 38.92 5.12728 38.939 2.65119L38.9381 2.6296C38.9057 2.15 38.8322 1.81167 38.7169 1.6153C38.4515 1.16711 38.0842 0.967231 37.6142 1.01479C37.3014 1.04637 36.9434 1.18764 36.5396 1.43841C36.4668 1.48369 36.3929 1.5323 36.3176 1.58424C35.778 1.92837 35.3401 2.55098 35 3.44244C35.1198 3.66075 35.2181 3.88888 35.3024 4.12158C35.6257 3.06165 36.0546 2.35795 36.592 2.01909L36.6009 2.01294C36.6698 1.96521 36.737 1.92117 36.8018 1.88081C37.1201 1.68321 37.3937 1.57283 37.6233 1.54967C37.9149 1.52018 38.1352 1.63109 38.2843 1.88274C38.358 2.00838 38.4078 2.26933 38.4342 2.6654C38.415 5.15764 38.5014 7.17835 38.6931 8.72718C38.7728 9.55424 39.1146 11.1715 39.7198 13.5792C39.7513 13.7043 39.8673 13.7845 39.9891 13.7722C40.0018 13.771 40.0148 13.7685 40.0275 13.7652C40.1627 13.7296 40.244 13.5885 40.2093 13.45Z" fill="white" stroke="white"/>
<path d="M39.5559 18.8816C39.299 19.0346 39.1054 19.5604 38.9754 20.459L38.9743 20.4672C38.9307 20.8129 38.9107 21.182 38.9145 21.5746C38.9125 22.106 38.9326 22.6045 38.9746 23.0719L38.9755 23.0821C39.0307 23.5835 39.1387 23.8751 39.2995 23.957C39.31 23.9638 39.3226 23.9689 39.3363 23.9724C39.3631 23.9792 39.3984 23.9775 39.4425 23.9689C39.4569 23.9672 39.4722 23.9621 39.4885 23.9587L39.4995 23.9553C39.4997 23.9553 39.5043 23.9519 39.5043 23.9519C39.5912 23.9075 39.7925 23.8393 40.1081 23.7472C40.1788 23.7268 40.2275 23.5988 40.217 23.4624C40.2067 23.3294 40.1446 23.2356 40.0763 23.2492C40.0742 23.2492 40.072 23.2492 40.0699 23.2509C39.7524 23.343 39.5441 23.4129 39.4449 23.4624C39.4299 23.4658 39.42 23.4692 39.4112 23.4709C39.3993 23.4726 39.3894 23.4744 39.3815 23.4744L39.3729 23.4761L39.3645 23.4692C39.3073 23.4402 39.2624 23.2799 39.2296 22.9849C39.19 22.5466 39.1713 22.0755 39.1733 21.5717C39.17 21.2195 39.187 20.8963 39.2246 20.5953C39.329 19.873 39.4648 19.462 39.6317 19.3624C39.7 19.3218 39.7385 19.1813 39.7175 19.0484C39.6992 18.9319 39.6414 18.8601 39.5813 18.8716C39.5728 18.8733 39.5643 18.8765 39.5559 18.8816Z" fill="white" stroke="white"/>
<path d="M37.2812 8.081C37.2612 8.08201 37.2411 8.08316 37.2202 8.0846C36.9634 8.10229 36.6354 8.15118 36.2352 8.23157C36.2093 8.23272 36.1868 8.23128 36.1677 8.22711C36.0657 8.17203 35.944 7.96149 35.7961 7.59591C35.6674 7.22127 35.5941 6.92027 35.5765 6.6929C35.544 6.20853 35.5556 5.87257 35.6105 5.68489L35.6127 5.67583C35.6738 5.40992 35.8168 5.26912 36.0429 5.25373C36.0725 5.25157 36.1036 5.25172 36.1361 5.25402C36.157 5.25546 36.1768 5.25546 36.1969 5.25402C36.3387 5.24424 36.4554 5.1663 36.4705 5.06419C36.487 4.94755 36.3651 4.84357 36.1973 4.83178C36.1032 4.82531 36.0146 4.82487 35.9314 4.83063C35.4275 4.86529 35.1204 5.12473 35.0099 5.60953C35.0058 5.62377 35.0035 5.64376 35 5.65915C35.4693 6.517 35.7129 7.45224 35.7479 8.31801C35.7506 8.38905 35.7398 8.45851 35.7398 8.52913C35.7491 8.5356 35.7586 8.54682 35.7686 8.55243C35.8153 8.58004 35.8658 8.6006 35.9186 8.61455C36.0363 8.64979 36.1652 8.66273 36.3041 8.65324C36.3136 8.65252 36.3231 8.6518 36.3322 8.65094L36.3788 8.64418C36.7552 8.56796 37.0546 8.52208 37.2777 8.50684C37.2943 8.50569 37.3104 8.50482 37.3259 8.50396C37.4979 8.49231 37.6202 8.39193 37.6078 8.27673C37.5956 8.1601 37.4489 8.07237 37.2812 8.081Z" fill="white" stroke="white"/>
<path d="M37.5144 1.1451C37.2025 1.27559 36.9499 1.51503 36.755 1.86378C36.594 2.13109 36.461 2.58878 36.3551 3.2376C36.2913 3.54563 36.2992 3.995 36.3785 4.58573C36.3983 4.7325 36.5871 4.84055 36.8008 4.82697C37.0158 4.8125 37.1717 4.68291 37.1522 4.53686C37.0777 3.98269 37.069 3.57223 37.1256 3.30583L37.1272 3.29696C37.2257 2.69303 37.3422 2.28166 37.4757 2.06303C37.6145 1.81491 37.7631 1.66216 37.9264 1.59737L37.9488 1.5876C38.0086 1.55991 38.069 1.54398 38.1301 1.54C38.1909 1.53584 38.2526 1.54344 38.315 1.5628L38.335 1.56136L38.1917 1.41278L38.2133 1.41133C38.4041 1.5353 38.5547 1.57674 38.6677 1.56896C38.7618 1.56263 38.83 1.52208 38.874 1.46688C38.9688 1.34671 38.9159 1.19849 38.7571 1.1214L38.736 1.12284L38.7181 1.10475C38.4952 1.0215 38.2755 0.987102 38.0587 1.00176C37.8748 1.01443 37.6936 1.06203 37.5144 1.1451Z" fill="white" stroke="white"/>
<path d="M38.1187 6.10938C38.0387 6.10938 37.9285 6.10938 37.7877 6.10938C37.6634 6.10938 37.5819 6.10938 37.6057 6.10938C37.628 6.10938 37.736 6.10938 37.8527 6.10938C37.8596 6.10938 37.8664 6.10938 37.8732 6.10938C37.9977 6.10938 38.0933 6.10938 38.16 6.10938H38.1727C38.239 6.10938 38.2901 6.10938 38.3254 6.10938C38.4106 6.10938 38.4977 6.10938 38.5885 6.10938C38.6248 6.10938 38.6627 6.10938 38.6994 6.10938C38.7803 6.10938 38.8545 6.10938 38.888 6.10938C38.9369 6.10938 38.8821 6.10938 38.7656 6.10938C38.6245 6.10938 38.485 6.10938 38.3467 6.10938C38.2876 6.10938 38.2118 6.10938 38.1195 6.10938H38.1187Z" fill="white" stroke="white"/>
</g>
<defs>
<filter id="filter0_d_1466_542" x="0.5" y="0.498535" width="68.999" height="69.0015" filterUnits="userSpaceOnUse" color-interpolation-filters="sRGB">
<feFlood flood-opacity="0" result="BackgroundImageFix"/>
<feColorMatrix in="SourceAlpha" type="matrix" values="0 0 0 0 0 0 0 0 0 0 0 0 0 0 0 0 0 0 127 0" result="hardAlpha"/>
<feOffset dy="4"/>
<feGaussianBlur stdDeviation="2"/>
<feComposite in2="hardAlpha" operator="out"/>
<feColorMatrix type="matrix" values="0 0 0 0 0 0 0 0 0 0 0 0 0 0 0 0 0 0 0.25 0"/>
<feBlend mode="normal" in2="BackgroundImageFix" result="effect1_dropShadow_1466_542"/>
<feBlend mode="normal" in="SourceGraphic" in2="effect1_dropShadow_1466_542" result="shape"/>
</filter>
</defs>
</svg>
