<svg width="26" height="22" viewBox="0 0 26 22" fill="none" xmlns="http://www.w3.org/2000/svg">
<path d="M3.4 1L22.6 21M15.4 13.7951C14.7631 14.3889 13.922 14.75 13 14.75C11.0118 14.75 9.4 13.0711 9.4 11C9.4 10.0396 9.74662 9.16345 10.3167 8.5M22.1293 15.5096C22.815 14.8878 23.4283 14.2624 23.9564 13.6836C25.3479 12.1585 25.3479 9.84146 23.9564 8.31637C21.6094 5.74417 17.5786 2.25 13 2.25C11.9304 2.25 10.8906 2.4407 9.89524 2.7658M6.4 4.50423C4.64972 5.66805 3.15716 7.09598 2.04365 8.31637C0.652118 9.84146 0.652117 12.1585 2.04365 13.6836C4.39059 16.2558 8.42138 19.75 13 19.75C15.2417 19.75 17.3521 18.9124 19.1978 17.7555" stroke="#8B8B8B" stroke-width="1.5" stroke-linecap="round"/>
</svg>
