<svg width="11" height="14" viewBox="0 0 11 14" fill="none" xmlns="http://www.w3.org/2000/svg">
<path d="M10 12.6829H6.90874C7.42883 12.2306 7.91932 11.747 8.37732 11.2347C10.0931 9.30968 11 7.28028 11 5.36585C11 3.94274 10.4205 2.57791 9.38909 1.57162C8.35764 0.56533 6.95869 0 5.5 0C4.04131 0 2.64236 0.56533 1.61091 1.57162C0.579463 2.57791 0 3.94274 0 5.36585C0 7.28027 0.906922 9.30968 2.62268 11.2347C3.08068 11.747 3.57117 12.2306 4.09127 12.6829H1C0.867392 12.6829 0.740215 12.7343 0.646447 12.8258C0.552678 12.9173 0.5 13.0414 0.5 13.1707C0.5 13.3001 0.552678 13.4242 0.646447 13.5157C0.740215 13.6071 0.867392 13.6585 1 13.6585H10C10.1326 13.6585 10.2598 13.6071 10.3536 13.5157C10.4473 13.4242 10.5 13.3001 10.5 13.1707C10.5 13.0414 10.4473 12.9173 10.3536 12.8258C10.2598 12.7343 10.1326 12.6829 10 12.6829ZM5.50002 3.41463C5.89558 3.41463 6.28226 3.52907 6.61116 3.74347C6.94005 3.95788 7.1964 4.26262 7.34777 4.61915C7.49915 4.97569 7.53876 5.36802 7.46159 5.74652C7.38442 6.12502 7.19393 6.47269 6.91423 6.74557C6.63452 7.01846 6.27816 7.20429 5.8902 7.27958C5.50223 7.35487 5.1001 7.31623 4.73465 7.16855C4.3692 7.02086 4.05684 6.77077 3.83708 6.44989C3.61731 6.12902 3.50002 5.75177 3.50002 5.36585C3.50001 5.10962 3.55174 4.85589 3.65225 4.61915C3.75276 4.38242 3.90008 4.16732 4.0858 3.98613C4.27151 3.80494 4.49199 3.66121 4.73465 3.56316C4.9773 3.4651 5.23737 3.41463 5.50002 3.41463Z" fill="white"/>
</svg>
