<svg width="57" height="72" viewBox="0 0 57 72" fill="none" xmlns="http://www.w3.org/2000/svg">
<path d="M35.2536 0.99999C35.2957 0.99999 35.3398 1.01609 35.3762 1.05365C36.2171 1.8961 36.9451 3.21343 37.5543 5.00296C38.0083 6.41902 38.2247 7.93033 38.2037 9.54493C38.1864 10.268 38.1213 11.0042 38.0044 11.7629C37.9604 12.0763 37.9048 12.406 37.8378 12.7521C37.5255 14.1583 37.3474 15.0436 37.3014 15.4182L37.2976 15.4442C37.2056 15.9328 37.0313 17.2463 36.7765 19.3849C36.7248 19.7589 36.6692 20.1249 36.606 20.4959C36.5447 21.0154 36.1271 22.9302 35.3494 26.2404C35.2478 26.7185 35.1693 27.1475 35.1118 27.5274C34.9126 28.9545 34.857 29.9957 34.9432 30.6525C34.9643 30.8121 34.8877 30.9653 34.7747 30.9946C34.7613 30.9981 34.7479 30.9997 34.7364 30.9997C34.6368 30.9997 34.5486 30.9004 34.5295 30.7582C34.4337 30.0293 34.4912 28.9142 34.7 27.4142C34.7613 27.008 34.8436 26.5607 34.949 26.0644C35.7344 22.7188 36.1482 20.8284 36.1942 20.3854L36.198 20.3586C36.2593 19.9937 36.3148 19.6355 36.3627 19.2849C36.6156 17.1626 36.7899 15.8426 36.8876 15.3184C36.9374 14.9189 37.1194 14.012 37.4336 12.5981C37.4987 12.2636 37.5504 11.9459 37.5926 11.6449C37.7056 10.9162 37.7688 10.2162 37.7841 9.53875C37.8033 8.01268 37.6002 6.58563 37.1769 5.25784C36.5964 3.55685 35.9145 2.31463 35.1329 1.53121C35.0371 1.43731 35.016 1.25487 35.0831 1.12072C35.1252 1.04292 35.1885 0.99999 35.2536 0.99999Z" fill="#A6A6A6" stroke="#A6A6A6" stroke-width="2"/>
<path d="M34.72 1.00009C34.986 1.00009 35.2722 1.07589 35.5788 1.22478C35.6945 1.28163 35.7534 1.45217 35.7107 1.60648C35.6783 1.72559 35.593 1.8014 35.5016 1.8014C35.4773 1.8014 35.4509 1.79598 35.4265 1.78244C35.1849 1.66333 34.9596 1.60648 34.7525 1.60648C34.2531 1.60648 33.8471 1.94487 33.5385 2.62166C32.5133 8.76448 31.8535 12.1958 31.5652 12.9167C30.0365 18.8126 28.9788 22.1679 28.39 22.9828C27.9901 23.884 27.4196 24.9311 26.6847 26.1236C22.6082 32.2261 18.3591 38.0587 17.9754 39.0644L17.9388 39.1348C16.2193 41.536 4.55614 40.932 1.20437 40.932C0.465397 40.932 2.02455 40.8736 1.20437 40.7566C1.08256 40.7393 1.19219 40.5931 1.20437 40.4301C1.21655 40.278 1.09271 40.1651 1.20437 40.1651C2.0083 40.281 0.481636 40.3384 1.20437 40.3384C4.40591 40.3384 15.9493 41.0206 17.5795 38.7744C18.0079 37.6973 22.2752 31.8325 26.3396 25.7468C27.0765 24.554 27.6429 23.5139 28.0368 22.6268L28.0672 22.5723C28.6113 21.8214 29.6426 18.5238 31.1592 12.6798L31.1734 12.6371C31.4434 11.9611 32.093 8.55657 33.1223 2.42405C33.1264 2.39156 33.1365 2.36448 33.1487 2.33741C33.5486 1.44675 34.0724 1.00009 34.72 1.00009Z" fill="#A6A6A6" stroke="#A6A6A6" stroke-width="2"/>
<path d="M32.6095 30.1668C32.6473 30.1668 32.6831 30.179 32.717 30.205C33.5169 30.8109 34.3766 31.1641 35.298 31.2645C39.4192 31.0449 42.627 30.935 44.9214 30.935C47.4725 30.935 48.8914 31.0709 49.1799 31.3431C49.1998 31.3619 49.2177 31.3824 49.2336 31.4039C52.0076 32.1108 53.7688 33.3559 54.521 35.139L54.5349 35.1769C55.3229 37.9032 54.9488 39.9965 53.4106 41.4564C55.1776 42.4601 55.8582 44.3632 55.4602 47.1663L55.4582 47.1878C54.9548 49.686 53.8802 51.3185 52.2385 52.0859C53.1698 54.1035 53.4424 55.898 53.0603 57.4697C52.6822 59.2921 51.5659 60.781 49.7112 61.9369C50.3182 63.8947 49.8963 65.993 48.4516 68.232L48.4297 68.2612C46.8656 70.0868 44.603 70.9997 41.638 70.9997C41.1027 70.9997 40.5455 70.97 39.9644 70.9105C32.0285 70.9997 23.7343 69.0472 21.6229 67.9819C20.2717 67.3002 16.4431 64.5721 16.4431 64.5721C16.4013 64.5718 16.3695 64.5761 16.3436 64.5843C16.3217 64.597 16.2958 64.6045 16.2699 64.6053L1.6756 64.9728C1.55819 64.9728 1.67958 64.8472 1.6756 64.6889C1.67361 64.5283 1.5562 64.395 1.6756 64.391L16.2182 64.0245C16.2282 64.0232 16.2321 64.0221 16.2341 64.0208C16.27 64.0089 16.3177 63.985 16.3754 64.003C17.3326 64.3047 19.5613 66.6693 22.1264 67.5448C26.574 69.0634 32.9538 70.1816 39.9763 70.3284L39.9903 70.3292C40.5634 70.3882 41.1146 70.4176 41.6419 70.4176C44.4776 70.4176 46.6367 69.5626 48.1173 67.8523C49.5102 65.7006 49.8784 63.721 49.2316 61.914C49.2058 61.8431 49.2038 61.7619 49.2237 61.6878C49.2436 61.6142 49.2854 61.5545 49.3391 61.5226C51.1898 60.423 52.2902 59.0165 52.6424 57.3032L52.6444 57.2902C53.0046 55.8112 52.6982 54.0745 51.7271 52.0809C51.6893 52.0041 51.6813 51.9077 51.7052 51.8217C51.7271 51.7357 51.7808 51.6693 51.8465 51.6433C53.4802 50.9959 54.5428 49.4674 55.0324 47.058C55.4125 44.3779 54.6901 42.6245 52.8633 41.7984C52.7837 41.7618 52.726 41.6664 52.7181 41.5533C52.7081 41.4405 52.7499 41.3311 52.8215 41.2727C54.4434 39.9795 54.8831 38.0302 54.1389 35.4247C53.4464 33.7781 51.7529 32.6201 49.0605 31.9512C48.9948 31.935 48.9411 31.8813 48.9093 31.808C48.6605 31.5991 47.4626 31.4947 45.3174 31.4947C43.0409 31.4947 39.7037 31.6121 35.3019 31.8468L35.2761 31.8463C34.2871 31.7411 33.3617 31.3625 32.5021 30.7109C32.3986 30.6315 32.3608 30.4538 32.4205 30.3141C32.4603 30.2196 32.5339 30.1668 32.6095 30.1668Z" fill="#A6A6A6" stroke="#A6A6A6" stroke-width="2"/>
<path d="M46.1938 32.6691C46.6354 32.6691 47.4727 32.7727 48.7076 32.9804C48.8255 33.0007 48.9094 33.1317 48.8914 33.2731C48.8774 33.4022 48.7835 33.4954 48.6756 33.4954C48.6656 33.4954 48.6556 33.4945 48.6456 33.4926C47.4127 33.2856 46.6034 33.182 46.2138 33.182C46.1238 33.182 46.0579 33.1872 46.0119 33.198L45.974 33.203C44.839 33.2318 43.712 33.4053 42.597 33.724L42.537 33.7313C41.7677 33.6925 41.1423 33.6732 40.6567 33.6732C40.2291 33.6732 39.9113 33.6881 39.7015 33.7178C39.128 33.7877 38.6964 33.8934 38.4067 34.0358C36.4125 35.1759 35.759 36.5876 36.4464 38.2716C36.4844 38.3669 36.5283 38.4637 36.5743 38.5615C37.1818 39.6355 38.5925 40.3934 40.8066 40.8353C41.6039 40.938 42.603 40.9894 43.8079 40.9894C43.8558 40.9894 43.9058 40.9894 43.9558 40.9892L43.9738 40.9901L47.0131 41.2649C47.8343 41.297 48.4658 41.3135 48.9114 41.3135C48.9893 41.3135 49.0613 41.3128 49.1272 41.3119L49.1412 41.3123C49.2071 41.3163 49.2751 41.3182 49.349 41.3182C50.1223 41.3182 51.2793 41.0916 52.8179 40.6389C52.8359 40.6337 52.8539 40.6311 52.8719 40.6311C52.9698 40.6311 53.0577 40.7097 53.0837 40.8275C53.1117 40.966 53.0417 41.1065 52.9238 41.141C51.3512 41.6041 50.1583 41.8356 49.343 41.8356C49.2671 41.8356 49.1951 41.8335 49.1272 41.8295C49.0553 41.8304 48.9873 41.8309 48.9134 41.8307C48.4578 41.8309 47.8164 41.8144 46.9891 41.7813C46.9791 41.7806 43.9478 41.5068 43.9478 41.5068C43.8978 41.5068 43.8518 41.5068 43.8079 41.5068C42.579 41.5068 41.5579 41.454 40.7466 41.3475L40.7326 41.3456C38.3847 40.8771 36.874 40.0391 36.2026 38.8322L36.1946 38.8187C36.1427 38.7106 36.0947 38.603 36.0508 38.4963C35.2355 36.4987 35.9609 34.8546 38.2268 33.5637L38.2388 33.5578C38.5685 33.3966 39.0381 33.2785 39.6496 33.2039C39.8734 33.1721 40.2111 33.156 40.6607 33.156C41.1482 33.156 41.7697 33.1749 42.525 33.2124C43.652 32.8926 44.791 32.7172 45.94 32.6863C46.006 32.6747 46.0879 32.6691 46.1938 32.6691Z" fill="#A6A6A6" stroke="#A6A6A6" stroke-width="2"/>
<path d="M39.3076 41.8357C39.7533 41.8357 40.2183 41.8585 40.7024 41.9034C40.8325 41.9157 40.9285 42.0473 40.9178 42.1981C40.9072 42.3415 40.8048 42.4504 40.6853 42.4504C40.6789 42.4504 40.6725 42.4499 40.6661 42.4494C40.1905 42.4052 39.7384 42.3829 39.3033 42.3829C37.2473 42.3829 35.6499 42.8809 34.5152 43.8777C33.4446 45.1986 33.4851 46.5148 34.6432 47.8257C34.769 47.9683 34.9055 48.1111 35.0569 48.2537C36.4027 49.2425 38.1772 49.9106 40.3825 50.2575C40.3846 50.2575 46.094 51.0517 46.094 51.0517C46.5142 51.1024 46.9472 51.1441 47.3887 51.1771C48.1586 51.2512 49.0117 51.2882 49.9522 51.2882C50.8373 51.2882 51.8014 51.2555 52.8443 51.19C52.8485 51.1898 52.8528 51.1896 52.8571 51.1896C52.9787 51.1896 53.0831 51.3027 53.0895 51.4485C53.0959 51.5996 52.9979 51.7285 52.8678 51.7367C51.8184 51.8027 50.8459 51.8356 49.9522 51.8356C48.9989 51.8356 48.1351 51.7982 47.3588 51.7235C46.9088 51.69 46.4694 51.6476 46.0429 51.5961C46.0386 51.5956 40.3249 50.8007 40.3249 50.8007C38.0343 50.4403 36.1895 49.7397 34.7861 48.698L34.7648 48.6801C34.6027 48.5267 34.4534 48.3731 34.3169 48.219C32.9284 46.6449 32.8901 45.0612 34.2081 43.4681L34.2358 43.4396C35.4536 42.3702 37.1428 41.8357 39.3076 41.8357Z" fill="#A6A6A6" stroke="#A6A6A6" stroke-width="2"/>
<path d="M37.953 50.1665C38.796 50.1665 39.7376 50.292 40.7777 50.5424C40.9014 50.5727 40.9811 50.7152 40.9559 50.8609C40.9329 50.9887 40.8385 51.0766 40.7315 51.0766C40.7169 51.0766 40.7001 51.0751 40.6854 51.0712C39.6726 50.8272 38.7604 50.7051 37.9488 50.7051C36.5543 50.7051 35.4555 51.0653 34.6545 51.7859C33.3921 53.2684 33.4298 54.838 34.7698 56.4948C36.8123 58.608 41.8136 59.9298 49.7759 60.4606C49.9017 60.4689 49.9982 60.5962 49.9919 60.7451C49.9856 60.8887 49.8829 60.9997 49.7612 60.9997C49.757 60.9997 49.7528 60.9994 49.7486 60.9992C41.6605 60.4603 36.5606 59.0879 34.4489 56.8821L34.4343 56.8663C32.8825 54.9451 32.8552 53.1165 34.3525 51.3797L34.3755 51.3575C35.2584 50.5636 36.4495 50.1665 37.953 50.1665Z" fill="#A6A6A6" stroke="#A6A6A6" stroke-width="2"/>
<path d="M37.618 58.5076C37.9982 58.5076 38.3922 58.5896 38.7999 58.7543C38.9142 58.8006 38.9812 58.9661 38.9477 59.1243C38.9201 59.2547 38.8334 59.3391 38.7389 59.3391C38.7192 59.3391 38.6995 59.3356 38.6798 59.3271C38.3173 59.1806 37.9667 59.1077 37.6279 59.1077C36.8695 59.1077 36.1741 59.4763 35.5418 60.2144C34.8071 61.4058 34.7362 62.5855 35.3271 63.7535C35.8885 64.698 36.7828 65.4661 38.01 66.0585L38.0357 66.0738C38.274 66.2398 39.1663 66.5075 40.7107 66.8772L40.754 66.8941C41.7193 67.4291 42.2688 67.7008 42.4028 67.7098L42.4323 67.7147C42.9366 67.8454 43.4448 67.9107 43.955 67.9107C44.0338 67.9107 44.1106 67.9094 44.1894 67.9061C44.3115 67.9061 44.4081 68.0343 44.41 68.1963C44.414 68.3608 44.3194 68.4983 44.2012 68.5029C44.1185 68.5059 44.0377 68.5075 43.955 68.5075C43.4232 68.5075 42.8932 68.4403 42.3673 68.3055C42.1841 68.2867 41.5991 68.0057 40.6201 67.4626C39.0875 67.0942 38.1657 66.8138 37.8643 66.6218C36.5563 65.9888 35.595 65.1527 34.9824 64.1132L34.9745 64.0961C34.2477 62.6626 34.3363 61.2275 35.2405 59.7905L35.2641 59.7581C35.9791 58.9244 36.7631 58.5076 37.618 58.5076Z" fill="#A6A6A6" stroke="#A6A6A6" stroke-width="2"/>
<path d="M37.7905 51.8331C37.8889 51.8331 37.9873 51.8622 38.0668 51.9213C38.237 52.0494 38.2521 52.2708 38.1008 52.4155C37.6695 52.8283 37.3744 53.3258 37.2155 53.9086C37.1701 54.0945 37.1626 54.3738 37.1966 54.7463C37.2307 55.0434 37.2949 55.3045 37.3933 55.5284C37.4728 55.7099 37.3593 55.9115 37.1474 55.9783C37.0982 55.9927 37.0491 55.9997 37.0037 55.9997C36.8334 55.9997 36.6745 55.9122 36.614 55.7706C36.4891 55.4875 36.4097 55.1658 36.3681 54.8057C36.3265 54.3568 36.3416 54.0082 36.4059 53.7549C36.5988 53.0536 36.9545 52.4532 37.4804 51.9513C37.5636 51.8733 37.677 51.8331 37.7905 51.8331Z" fill="#A6A6A6" stroke="#A6A6A6" stroke-width="2"/>
<path d="M37.1989 61.0023C37.2593 61.0023 37.3198 61.0187 37.3802 61.0537C37.5686 61.1684 37.6432 61.4392 37.5437 61.6558C37.4158 61.9364 37.334 62.1277 37.2949 62.237C37.2167 62.4683 37.1705 62.6331 37.1598 62.7347L37.1563 62.7551C37.135 62.897 37.1243 63.0455 37.1278 63.2005C37.1278 63.3298 37.1527 63.5304 37.1989 63.8066C37.238 64.0497 37.0959 64.283 36.8862 64.3283C36.8613 64.3332 36.8364 64.3356 36.8151 64.3356C36.6303 64.3356 36.4667 64.1855 36.4312 63.9702C36.3779 63.6479 36.3531 63.3991 36.3495 63.2245C36.3424 63.0136 36.3566 62.8089 36.3886 62.6111C36.4099 62.4414 36.4668 62.2113 36.5663 61.9213C36.6161 61.7724 36.712 61.5514 36.8506 61.2483C36.9217 61.0892 37.0567 61.0023 37.1989 61.0023Z" fill="#A6A6A6" stroke="#A6A6A6" stroke-width="2"/>
<path d="M38.2051 45.1716C38.2051 45.1716 38.2051 45.1858 38.2051 45.216C38.2051 45.2954 38.2051 45.4535 38.2051 45.5696C38.2051 45.8099 38.2051 46.0858 38.2051 46.3981C38.2051 46.5379 38.2051 46.7 38.2051 46.8855C38.2051 47.0065 38.2051 47.1517 38.2051 47.3209C38.2051 47.4512 38.2051 47.5998 38.2051 47.6527C38.2051 47.6655 38.2051 47.6716 38.2051 47.6716C38.2051 47.6716 38.2051 47.6117 38.2051 47.513C38.2051 47.3193 38.2051 47.1472 38.2051 46.997V46.9687C38.2051 46.745 38.2051 46.5442 38.2051 46.3663C38.2051 45.9611 38.2051 45.5998 38.2051 45.2824C38.2051 45.2104 38.2051 45.1716 38.2051 45.1716Z" fill="#A6A6A6" stroke="#A6A6A6" stroke-width="2"/>
<path d="M40.175 35.169C40.2362 35.169 40.2974 35.1867 40.3498 35.2241C40.4983 35.3258 40.5362 35.5331 40.4401 35.6869C40.1779 36.1018 40.0585 36.5841 40.0847 37.1333C40.108 37.5744 40.2973 38.1456 40.6468 38.8473C40.7284 39.0105 40.6701 39.212 40.5129 39.2976C40.4663 39.3235 40.4139 39.3356 40.3643 39.3356C40.2508 39.3356 40.1401 39.2705 40.0818 39.1566C39.6886 38.369 39.476 37.7065 39.4469 37.1683V37.15C39.4178 36.462 39.5692 35.8513 39.9071 35.3185C39.9682 35.2217 40.0702 35.169 40.175 35.169Z" fill="#A6A6A6" stroke="#A6A6A6" stroke-width="2"/>
<path d="M16.1478 47.6639C16.2719 47.6639 16.3852 47.7486 16.4284 47.8828C16.5579 48.3014 16.5983 48.7912 16.5552 49.3521C16.5336 49.6924 16.4931 50.063 16.4392 50.4634C16.4365 50.4684 16.0237 53.1764 16.0237 53.1764C15.9968 53.3579 15.9644 53.621 15.932 53.9668C15.8538 54.834 15.8349 55.8652 15.8754 57.0606C15.9482 58.1529 16.0831 59.1005 16.2827 59.904C16.4176 60.4789 16.6874 61.2459 17.0947 62.2095C17.1649 62.3703 17.1001 62.5603 16.9518 62.6345C16.9113 62.6544 16.8681 62.6638 16.8277 62.6638C16.7144 62.6638 16.6092 62.5948 16.5579 62.477C16.1344 61.4803 15.8538 60.678 15.7108 60.0694C15.5031 59.2241 15.3601 58.233 15.2845 57.0954C15.2414 55.859 15.263 54.7983 15.3439 53.9019C15.379 53.5435 15.4114 53.2673 15.441 53.0718L15.8538 50.364C15.9077 49.9791 15.9428 49.6251 15.9671 49.3013C16.0022 48.8251 15.9698 48.4206 15.8672 48.0857C15.816 47.9179 15.8996 47.7364 16.0534 47.68C16.0858 47.6689 16.1154 47.6639 16.1478 47.6639Z" fill="#A6A6A6" stroke="#A6A6A6" stroke-width="2"/>
<path d="M14.2486 58.505C14.3415 58.505 14.4304 58.5998 14.4587 58.7483C14.4728 58.8112 14.491 58.9238 14.5152 59.0856C14.6021 59.7557 14.6626 60.1876 14.701 60.3935C14.7677 60.7739 14.8464 61.1547 14.9393 61.5415C15.1251 62.3474 15.4301 63.3855 15.8603 64.6611C15.9188 64.8308 15.8764 65.0412 15.7694 65.131C15.7351 65.1586 15.7007 65.1716 15.6664 65.1716C15.5856 65.1716 15.5088 65.1043 15.4705 64.9866C15.0302 63.6851 14.7172 62.6183 14.5253 61.7861C14.4284 61.3831 14.3456 60.9843 14.2769 60.5902C14.2345 60.3659 14.1699 59.9185 14.085 59.2474C14.0628 59.1015 14.0466 59.0047 14.0366 58.9574C14.0002 58.7744 14.0648 58.5789 14.182 58.5212C14.2042 58.5104 14.2264 58.505 14.2486 58.505Z" fill="#A6A6A6" stroke="#A6A6A6" stroke-width="2"/>
</svg>
