<svg width="145" height="103" viewBox="0 0 145 103" fill="none" xmlns="http://www.w3.org/2000/svg">
<path d="M0.0109118 80.6642V80.1792H6.98355V90.3703C9.03496 84.3956 11.2391 79.6445 15.6148 79.6445C19.1011 79.6445 21.0161 82.6594 21.0161 87.6089V90.4254C23.073 84.4011 25.2826 79.6445 29.7019 79.6445C33.1828 79.6445 35.0487 82.6594 35.0487 87.6089V100.716C35.0487 101.928 37.2583 102.028 38.044 102.028V102.513H28.076V102.028C28.9108 102.028 31.0713 101.934 31.0713 100.782V88.1932C31.0713 83.872 29.691 81.0114 27.7814 81.0114C24.9389 81.0114 22.331 87.4656 21.0107 91.9852V100.727C21.0107 101.939 23.1712 102.039 24.0059 102.039V102.524H14.0435V102.039C14.8291 102.039 17.0388 101.945 17.0388 100.793V88.2042C17.0388 83.883 15.6639 81.0225 13.7489 81.0225C10.9063 81.0225 8.35298 87.4326 6.97809 91.9467V100.269C6.97809 101.482 8.20567 102.066 9.92427 102.066V102.551H0V102.066C1.71861 102.066 2.99529 101.581 2.99529 100.462V83.398C3.0062 81.513 1.72952 80.6862 0.0109118 80.6862V80.6642Z" fill="#1D6E65"/>
<path d="M62.3634 102.026C60.7976 102.026 59.7119 101.641 59.7119 101.1V91.2951C59.7119 84.3945 56.4601 79.6875 50.1477 79.6875C46.3722 79.6875 42.6404 81.3906 40.7254 84.5929L42.8313 89.1511C44.8991 83.7662 46.4049 80.1725 50.1913 80.1725C54.4633 80.1725 55.489 84.637 55.6909 88.5724C46.5195 89.4928 39.5469 91.1463 39.5469 96.9226C39.5469 101.387 44.0153 102.991 47.5889 102.991C51.5662 102.991 54.0541 100.996 55.7345 97.7934V102.5H62.6526V102.015H62.358L62.3634 102.026ZM55.74 96.9336C54.3651 100.329 51.3698 102.511 48.2327 102.511C44.6481 102.511 43.5242 99.6013 43.5242 97.2698C43.5242 91.8353 49.7058 89.6527 55.6909 89.0684C55.6909 89.5975 55.74 90.1377 55.74 90.6227V96.9336Z" fill="#1D6E65"/>
<path d="M73.2103 80.1744C70.2641 80.1744 68.2072 81.8389 68.2072 83.8617C68.2072 89.2962 83.4619 89.6379 83.4619 96.7646C83.4619 100.452 79.3427 102.982 74.045 102.982C69.533 102.982 65.4083 101.135 63.6406 98.0764L65.703 93.4961C67.858 99.0299 71.0006 102.48 75.0707 102.48C77.8696 102.48 79.8774 100.816 79.8774 98.5449C79.8774 92.3828 64.6227 92.8182 64.6227 85.5317C64.6227 82.0869 67.989 79.6562 73.2539 79.6562C77.6732 79.6562 81.154 81.3539 82.9272 84.5617L80.8703 89.1419C78.9608 83.7625 77.5259 80.1744 73.2103 80.1744Z" fill="#1D6E65"/>
<path d="M99.1647 79.6719C94.5053 79.6719 91.3136 83.2159 90.1351 88.2646V71.25H83.168V71.735L83.4517 71.7516C83.8118 71.735 84.1719 71.7901 84.5047 71.9224C84.8429 72.0492 85.143 72.2476 85.3994 72.5012C85.6559 72.7547 85.8523 73.0523 85.9832 73.383C86.1087 73.7192 86.1687 74.072 86.1578 74.4247V102.496L90.1297 102.816V96.9621C91.3082 100.947 94.4999 102.986 98.5154 102.986C104.501 102.986 108.576 98.2794 108.576 91.3291C108.576 84.3789 104.506 79.6774 99.1592 79.6774L99.1647 79.6719ZM97.5988 102C93.7142 102 90.1351 98.9463 90.1351 93.2638V92.7787C90.1351 86.0324 93.4196 80.6419 97.7898 80.6419C101.718 80.6419 104.61 85.0017 104.61 91.6654C104.61 97.844 102.154 102.005 97.5988 102.005V102Z" fill="#1D6E65"/>
<path d="M119.052 102.028C118.691 102.045 118.337 101.99 118.004 101.857C117.666 101.736 117.366 101.532 117.115 101.278C116.864 101.025 116.673 100.727 116.547 100.397C116.427 100.06 116.373 99.7077 116.4 99.3549V80.1797H109.422V80.6647H109.727C109.94 80.6537 110.164 80.6702 110.382 80.7198C110.524 80.7474 110.655 80.7915 110.786 80.8356C111.119 80.9624 111.424 81.1608 111.681 81.4143C111.932 81.6623 112.128 81.9655 112.259 82.2962C112.292 82.3954 112.33 82.4946 112.352 82.6048C112.417 82.8473 112.439 83.0954 112.428 83.3379V99.3604C112.444 99.7132 112.39 100.071 112.259 100.402C112.133 100.733 111.932 101.036 111.675 101.284C111.424 101.538 111.119 101.73 110.786 101.863C110.448 101.99 110.087 102.05 109.733 102.034H109.438V102.519H119.352V102.034H119.062L119.052 102.028Z" fill="#1D6E65"/>
<path d="M116.833 69.9024C116.685 69.5276 116.462 69.1803 116.167 68.8882C115.872 68.5961 115.529 68.3756 115.141 68.2268C114.754 68.078 114.35 68.0174 113.935 68.0339C113.521 68.0174 113.112 68.0835 112.73 68.2268C112.348 68.3701 111.993 68.5961 111.704 68.8882C111.415 69.1803 111.18 69.5165 111.033 69.9024C110.88 70.2827 110.815 70.6905 110.842 71.0984C110.842 72.9448 112.108 74.1133 113.935 74.1133C115.763 74.1133 117.024 72.9503 117.024 71.0984C117.045 70.6905 116.985 70.2882 116.833 69.9024Z" fill="#1D6E65"/>
<path d="M143.811 102.026C142.245 102.026 141.16 101.641 141.16 101.1V91.2952C141.16 84.3945 137.908 79.6875 131.601 79.6875C128.175 79.6875 124.797 81.082 122.779 83.7166C122.555 83.9921 122.359 84.2898 122.178 84.5929L124.284 89.1511C124.754 87.9165 125.206 86.77 125.654 85.7449C127.16 82.3 128.726 80.1725 131.639 80.1725C135.916 80.1725 136.937 84.637 137.139 88.5724C134.793 88.8094 132.588 89.0905 130.608 89.4763C126.374 90.3086 123.166 91.6203 121.775 93.9683C121.267 94.8116 121 95.7872 121 96.9226C121 100.5 123.864 102.236 126.849 102.787C127.591 102.925 128.333 102.985 129.042 102.985C133.014 102.985 135.502 100.99 137.188 97.7879V102.495H144.1V102.01H143.806L143.811 102.026ZM137.193 96.9336C135.818 100.329 132.817 102.511 129.686 102.511C126.101 102.511 124.972 99.6013 124.972 97.2698C124.972 93.5935 127.803 91.4054 131.492 90.1928C133.248 89.6141 135.207 89.2558 137.144 89.0684C137.144 89.5975 137.199 90.1377 137.199 90.6227V96.9336H137.193Z" fill="#1D6E65"/>
<path d="M53.422 0L70.5426 65.2255C69.9207 66.2397 69.2823 67.6341 69.0805 68.031L68.5458 67.4798C52.2708 36.8347 53.1874 3.58261 53.3293 0H53.4275H53.422Z" fill="#B59568"/>
<path d="M49.0276 60.7221L28.2461 56.9741C32.2071 51.975 36.7082 40.88 36.9046 40.4776C37.1065 40.0752 48.9458 18.4859 50.2606 17.4883V40.4776L49.0276 60.7221Z" fill="#1C4C4A"/>
<path d="M69.0883 68.031L68.3191 67.7278C63.005 64.5972 55.9505 62.4476 48.5305 60.728L47.7885 29.7412L30.4715 57.4816C17.8629 55.9603 7.04935 55.4808 4.78516 55.4422V55.1611C8.8989 52.5155 41.7216 30.8711 53.3153 0C53.1844 3.59363 52.4588 37.3859 69.0883 68.031Z" fill="#1D6E65"/>
<path d="M78.7994 55.6292L76.4807 55.7285L70.2991 40.9846L61.6406 16.9922L86.885 48.8664L78.8049 55.6292H78.7994Z" fill="#997D65"/>
<path d="M96.8193 42.1866V42.6937C93.1693 44.4519 89.6884 46.8605 86.3822 49.2306L67.8321 27.7404L78.9622 55.4808C75.7377 58.5674 72.7915 61.6925 70.3746 65.4791L53.2812 0H53.4504C71.4821 22.8681 86.6059 35.4348 96.8193 42.1866Z" fill="#B59568"/>
</svg>
