<svg width="65" height="67" viewBox="0 0 65 67" fill="none" xmlns="http://www.w3.org/2000/svg">
<mask id="mask0_1530_554" style="mask-type:luminance" maskUnits="userSpaceOnUse" x="0" y="0" width="66" height="67">
<path d="M0 33.104C0 51.3867 14.5506 66.2085 32.5006 66.2085C50.4505 66.2085 65.0004 51.3867 65.0004 33.104C65.0004 14.8214 50.4497 0 32.5006 0C14.5514 0 0 14.8214 0 33.104Z" fill="white"/>
</mask>
<g mask="url(#mask0_1530_554)">
<path d="M55.4814 56.5136C68.1735 43.5856 68.1735 22.6253 55.4814 9.69738C42.7893 -3.23055 22.2113 -3.23055 9.51918 9.69738C-3.17293 22.6253 -3.17293 43.5856 9.51918 56.5136C22.2113 69.4415 42.7893 69.4415 55.4814 56.5136Z" fill="#1D1D1B"/>
<path d="M44.6903 25.8614C44.6903 25.8614 45.9167 22.4914 45.2671 20.8017C44.6183 19.1116 44.9166 17.0532 45.0511 15.3663C45.2675 12.6478 43.4393 9.98 41.484 9.24537C39.7175 8.58135 34.8075 8.15142 33.5102 7.87091C30.8842 7.30404 25.3503 6.92989 23.1951 10.1489C21.4359 12.7765 21.6078 13.6426 20.5262 15.5855C18.7229 18.824 19.7149 22.752 20.7426 25.2968C21.7702 27.8425 22.5458 26.3108 22.5458 26.3108L44.6895 25.8606L44.6903 25.8614Z" fill="#1D1837"/>
<path d="M54.7265 53.8252C48.8157 52.8635 40.9921 50.2624 39.8177 47.8748C38.7411 45.6838 38.7043 42.9692 38.8042 38.6172L32.8605 40.5398L26.9168 38.6172C27.0168 42.9696 26.9804 45.6842 25.9033 47.8748C24.7297 50.2628 16.9054 52.8639 10.9946 53.8252C3.5398 55.0381 4.51344 67.1332 4.51344 67.1332H61.208C61.208 67.1332 62.182 55.0381 54.7265 53.8252Z" fill="#D7E4EB"/>
<path d="M42.1037 49.8466C40.9604 49.1986 40.1392 48.5287 39.8175 47.8748C38.9377 46.0849 38.7523 43.9446 38.7684 40.8472C38.0517 40.2601 37.2474 39.7709 36.3772 39.4022L32.8603 40.5398L28.9339 39.2695C28.2276 39.5395 27.5623 39.8871 26.9472 40.3022C26.987 43.6964 26.8334 45.9819 25.9027 47.8748C25.5216 48.6496 24.4411 49.4463 22.9526 50.2024C23.9148 54.4806 27.8197 57.6825 32.491 57.6825C37.1624 57.6825 41.2829 54.302 42.103 49.8466H42.1037Z" fill="#E28C60"/>
<path d="M39.5247 47.1975C38.736 45.1216 38.715 42.5322 38.8046 38.6172L32.8609 40.5398L26.9171 38.6172C26.9761 41.1804 26.9872 43.1748 26.7666 44.8298C29.578 47.164 35.8592 51.4964 39.5247 47.1979V47.1975Z" fill="#CD754D"/>
<path d="M22.3684 25.8789C22.3684 25.8789 21.7651 23.9673 20.595 24.6079C19.4253 25.2481 20.0469 32.6673 21.7491 33.5256C23.4512 34.384 23.8672 32.0661 23.8672 32.0661L22.3684 25.8789Z" fill="#E28C60"/>
<path d="M43.5656 25.8789C43.5656 25.8789 44.1684 23.9673 45.3386 24.6079C46.5083 25.2481 45.8867 32.6673 44.1845 33.5256C42.482 34.384 42.0664 32.0661 42.0664 32.0661L43.5652 25.8789H43.5656Z" fill="#E28C60"/>
<path d="M44.0192 25.4863C43.8863 16.0376 39.7489 11.7359 32.8607 11.7109C25.972 11.7355 21.835 16.0376 21.7021 25.4863C21.655 28.8201 22.3187 33.1057 23.0147 35.651C23.9715 39.1502 28.5735 41.9861 31.0283 43.2486C31.6312 43.5587 32.1298 43.5525 32.8607 43.5525C33.5915 43.5525 34.0902 43.5587 34.693 43.2486C37.1474 41.9861 41.7494 39.1502 42.7062 35.651C43.4022 33.1057 44.0663 28.8201 44.0188 25.4863H44.0192Z" fill="#F4A97F"/>
<path d="M32.9961 36.0547H29.0625C29.8645 39.2074 32.8667 38.8926 32.8667 38.8926C32.8667 38.8926 35.765 39.2074 36.9298 36.0547H32.9961Z" fill="#E97E58"/>
<path d="M32.9963 35.832L29.3101 36.1348C29.3101 36.1348 30.1064 37.5174 32.9963 37.5174C35.8862 37.5174 36.6825 36.1348 36.6825 36.1348L32.9963 35.832Z" fill="#E5EDF2"/>
<path d="M33.1343 33.4612C33.1343 33.4612 33.9842 32.1339 34.8219 32.9829C34.8219 32.9829 34.8334 33.3632 34.0738 33.295C34.0738 33.295 33.7429 33.1452 33.1343 33.4608V33.4612Z" fill="#CC6B3F"/>
<path d="M32.7427 33.4492C32.7427 33.4492 31.8239 32.07 31.0283 32.8714C31.0283 32.8714 31.036 33.2514 31.7936 33.2276C31.7936 33.2276 32.1176 33.0973 32.7431 33.4492H32.7427Z" fill="#CC6B3F"/>
<path d="M42.1037 49.8466C40.9604 49.1986 40.1392 48.5287 39.8175 47.8748C38.9377 46.0849 38.7523 43.9446 38.7684 40.8472C38.0517 40.2601 37.2474 39.7709 36.3772 39.4022L32.8603 40.5398L28.9339 39.2695C28.2276 39.5395 27.5623 39.8871 26.9472 40.3022C26.987 43.6964 26.8334 45.9819 25.9027 47.8748C25.5216 48.6496 24.4411 49.4463 22.9526 50.2024C23.9148 54.4806 27.8197 57.6825 32.491 57.6825C37.1624 57.6825 41.2829 54.302 42.103 49.8466H42.1037Z" fill="#E28C60"/>
<path d="M39.5247 47.1975C38.736 45.1216 38.715 42.5322 38.8046 38.6172L32.8609 40.5398L26.9171 38.6172C26.9761 41.1804 26.9872 43.1748 26.7666 44.8298C29.578 47.164 35.8592 51.4964 39.5247 47.1979V47.1975Z" fill="#CD754D"/>
<path d="M22.3684 25.8789C22.3684 25.8789 21.7651 23.9673 20.595 24.6079C19.4253 25.2481 20.0469 32.6673 21.7491 33.5256C23.4512 34.384 23.8672 32.0661 23.8672 32.0661L22.3684 25.8789Z" fill="#E28C60"/>
<path d="M43.5656 25.8789C43.5656 25.8789 44.1684 23.9673 45.3386 24.6079C46.5083 25.2481 45.8867 32.6673 44.1845 33.5256C42.482 34.384 42.0664 32.0661 42.0664 32.0661L43.5652 25.8789H43.5656Z" fill="#E28C60"/>
<path d="M44.0192 25.4863C43.8863 16.0376 39.7489 11.7359 32.8607 11.7109C25.972 11.7355 21.835 16.0376 21.7021 25.4863C21.655 28.8201 22.3187 33.1057 23.0147 35.651C23.9715 39.1502 28.5735 41.9861 31.0283 43.2486C31.6312 43.5587 32.1298 43.5525 32.8607 43.5525C33.5915 43.5525 34.0902 43.5587 34.693 43.2486C37.1474 41.9861 41.7494 39.1502 42.7062 35.651C43.4022 33.1057 44.0663 28.8201 44.0188 25.4863H44.0192Z" fill="#F4A97F"/>
<path d="M32.9961 36.0547H29.0625C29.8645 39.2074 32.8667 38.8926 32.8667 38.8926C32.8667 38.8926 35.765 39.2074 36.9298 36.0547H32.9961Z" fill="#E97E58"/>
<path d="M32.9963 35.832L29.3101 36.1348C29.3101 36.1348 30.1064 37.5174 32.9963 37.5174C35.8862 37.5174 36.6825 36.1348 36.6825 36.1348L32.9963 35.832Z" fill="#E5EDF2"/>
<path d="M33.1343 33.4612C33.1343 33.4612 33.9842 32.1339 34.8219 32.9829C34.8219 32.9829 34.8334 33.3632 34.0738 33.295C34.0738 33.295 33.7429 33.1452 33.1343 33.4608V33.4612Z" fill="#CC6B3F"/>
<path d="M32.7427 33.4492C32.7427 33.4492 31.8239 32.07 31.0283 32.8714C31.0283 32.8714 31.036 33.2514 31.7936 33.2276C31.7936 33.2276 32.1176 33.0973 32.7431 33.4492H32.7427Z" fill="#CC6B3F"/>
<path d="M34.2953 35.2948C33.8553 35.1294 33.1516 35.397 32.9961 35.507C32.8406 35.397 32.137 35.1294 31.6969 35.2948C31.2572 35.4598 29.0625 36.0583 29.0625 36.0583C30.2786 36.4992 32.9961 36.4161 32.9961 36.4161C32.9961 36.4161 35.7133 36.4988 36.9298 36.0583C36.9298 36.0583 34.7351 35.4598 34.295 35.2948H34.2953Z" fill="#CC6B3F"/>
<path d="M25.333 26.7727C25.6528 26.2437 26.5288 25.8633 27.5633 25.8633C28.5979 25.8633 29.4739 26.2437 29.7929 26.7727C29.4739 27.3017 28.5979 27.6821 27.5633 27.6821C26.5288 27.6821 25.6532 27.3017 25.333 26.7727Z" fill="#FEF8F9"/>
<path d="M25.3329 26.6975C25.8388 26.2192 26.5287 25.8607 27.5632 25.8607C28.34 25.8607 29.0849 26.1529 29.7928 26.6971C28.7724 25.0617 27.1495 25.0344 25.7159 25.723C25.7159 25.723 25.5194 25.7686 24.73 26.5247L25.3332 26.6975H25.3329Z" fill="#1D1837"/>
<path d="M25.1015 25.7695C25.1015 25.7695 25.1168 25.7566 25.1478 25.7324C25.365 25.5646 26.3226 24.887 27.5547 24.8878C28.2296 24.8878 28.9872 25.0887 29.7602 25.6883C29.7839 25.7067 29.818 25.702 29.836 25.6778C29.854 25.6536 29.8494 25.6189 29.8257 25.6005C29.0351 24.9865 28.2507 24.777 27.5547 24.7773C26.1012 24.7785 25.0371 25.6813 25.0322 25.6844C25.0092 25.7039 25.0061 25.7386 25.0253 25.7621C25.0444 25.7855 25.0785 25.7886 25.1015 25.7695Z" fill="#E28C60"/>
<path d="M26.5443 25.9959C26.3953 26.1902 26.3057 26.4341 26.3057 26.6997C26.3057 27.0614 26.4707 27.3837 26.7281 27.5935C26.9878 27.6501 27.2686 27.6817 27.5631 27.6817C27.732 27.6817 27.8964 27.6704 28.0553 27.6517C28.356 27.4461 28.554 27.0965 28.554 26.7001C28.554 26.3997 28.4395 26.127 28.2533 25.923C28.035 25.8843 27.8037 25.8633 27.5631 25.8633C27.1977 25.8633 26.8526 25.9117 26.5443 25.9963V25.9959Z" fill="#1D1837"/>
<path d="M35.1328 23.4247C35.1328 23.4247 35.2335 24.5023 36.1608 24.2425C37.4593 23.8796 40.0336 23.5265 41.8139 24.2425C42.0353 24.3314 40.0049 20.7651 35.1328 23.4247Z" fill="#1D1837"/>
<path d="M30.5781 23.4247C30.5781 23.4247 30.4774 24.5023 29.5505 24.2425C28.252 23.8796 25.6773 23.5265 23.8971 24.2425C23.6761 24.3314 25.7065 20.7651 30.5781 23.4247Z" fill="#1D1837"/>
<path d="M40.3877 26.7727C40.0687 26.2437 39.1923 25.8633 38.1582 25.8633C37.124 25.8633 36.2477 26.2437 35.9282 26.7727C36.2477 27.3017 37.124 27.6821 38.1582 27.6821C39.1923 27.6821 40.0687 27.3017 40.3877 26.7727Z" fill="#FEF8F9"/>
<path d="M40.3877 26.6975C39.8822 26.2192 39.1923 25.8607 38.1582 25.8607C37.3818 25.8607 36.6364 26.1529 35.9282 26.6971C36.9486 25.0617 38.5718 25.0344 40.0051 25.723C40.0051 25.723 40.2016 25.7686 40.9918 26.5247L40.3877 26.6975Z" fill="#1D1837"/>
<path d="M40.6893 25.6844C40.6847 25.6813 39.6206 24.7785 38.1667 24.7773C37.4707 24.7773 36.6863 24.9865 35.8953 25.6005C35.8716 25.6189 35.867 25.6536 35.885 25.6778C35.903 25.702 35.9371 25.7067 35.9608 25.6883C36.7338 25.0883 37.4918 24.8878 38.1667 24.8874C38.871 24.8874 39.4854 25.1078 39.9232 25.329C40.1423 25.4394 40.317 25.5498 40.4368 25.6325C40.4966 25.6739 40.5429 25.7082 40.574 25.732C40.605 25.7558 40.6203 25.7691 40.6203 25.7691C40.6433 25.7886 40.6774 25.7855 40.6965 25.7621C40.7157 25.7386 40.7126 25.7039 40.6896 25.6844H40.6893Z" fill="#E28C60"/>
<path d="M39.1774 25.9959C39.3264 26.1902 39.416 26.4341 39.416 26.6997C39.416 27.0614 39.2509 27.3837 38.9936 27.5935C38.7339 27.6501 38.4535 27.6817 38.159 27.6817C37.9897 27.6817 37.8257 27.6704 37.6668 27.6517C37.3661 27.4461 37.1685 27.0965 37.1685 26.7001C37.1685 26.3997 37.2826 26.127 37.4687 25.923C37.6871 25.8843 37.9188 25.8633 38.1593 25.8633C38.5244 25.8633 38.8698 25.9117 39.1782 25.9963L39.1774 25.9959Z" fill="#1D1837"/>
<path d="M33.1341 10.9609C25.0669 10.9609 21.5979 15.0274 21.4649 24.4757C21.4592 24.8655 21.7013 26.2797 21.7143 26.6909C22.8733 26.0023 22.9629 23.736 23.1403 21.1572C23.4191 17.0943 27.2294 14.9255 29.0622 15.4187C30.6873 15.8564 32.2845 16.396 35.9282 15.2938C40.3181 13.9658 41.4081 18.562 41.8298 21.3176C42.2309 23.935 43.8476 26.4358 44.0077 26.6788C44.0203 26.2715 44.3536 24.8616 44.3478 24.4757C44.2149 15.0274 40.9918 10.9609 33.1341 10.9609Z" fill="#1D1837"/>
<path d="M43.7457 50.6729C43.6438 50.6272 43.5431 50.5812 43.4439 50.5352C42.3067 55.6034 37.8445 59.3968 32.5289 59.3968C27.2133 59.3968 22.9097 55.7373 21.6771 50.804C21.5775 50.8469 21.4764 50.8902 21.3745 50.9327C22.6584 55.985 27.1723 59.7272 32.5289 59.7272C37.8854 59.7272 42.5522 55.8559 43.7453 50.6729H43.7457Z" fill="#A5B6BF"/>
<path d="M43.2111 24.2812C43.4329 25.701 42.103 30.6495 40.9191 32.3388C39.7352 34.0289 40.6996 35.6452 40.574 36.6728C40.448 37.7005 39.1208 37.8312 39.1208 37.8312C38.7056 37.8312 38.8163 35.0483 38.0962 34.4424C37.3761 33.8357 34.9941 34.167 34.4399 34.2216C33.886 34.277 32.8844 33.9465 32.8844 33.9465H32.8733C32.8733 33.9465 31.8717 34.277 31.3179 34.2216C30.7636 34.1666 28.382 33.8357 27.6615 34.4424C26.9415 35.0483 27.0522 37.8312 26.6366 37.8312C26.6366 37.8312 25.3098 37.7005 25.1838 36.6728C25.0581 35.6456 26.0226 34.0289 24.8387 32.3388C23.6548 30.6495 22.3249 25.701 22.5467 24.2812L21.7002 26.4247C21.7002 26.4247 22.0667 36.1391 23.0638 38.0594C24.0611 39.98 30.7169 44.2782 32.8733 44.3886H32.8844C35.0408 44.2782 41.697 39.9804 42.694 38.0594C43.691 36.1391 44.0078 26.6771 44.0078 26.6771L43.2111 24.2812ZM34.919 41.4091C33.7922 41.736 33.7367 39.7721 33.7367 39.7721H32.0203C32.0203 39.7721 31.9652 41.736 30.8379 41.4091C29.7111 41.0822 27.7167 40.598 28.2709 37.4785C28.8252 34.3593 31.3815 35.4029 32.8733 34.9363H32.8844C34.3759 35.4029 36.9326 34.3593 37.4868 37.4785C38.0407 40.598 36.0467 41.0822 34.9194 41.4091H34.919Z" fill="#1D1837"/>
</g>
</svg>
