<svg width="70" height="48" viewBox="0 0 70 48" fill="none" xmlns="http://www.w3.org/2000/svg">
<path d="M64.5 1H6.5C3.46243 1 1 3.46243 1 6.5V42.5C1 45.5376 3.46243 48 6.5 48H64.5C67.5376 48 70 45.5376 70 42.5V6.5C70 3.46243 67.5376 1 64.5 1Z" fill="white" stroke="#D9D9D9"/>
<path d="M10.4903 17.072C10.4903 16.1013 10.7003 15.238 11.1203 14.482C11.5403 13.7167 12.1237 13.124 12.8703 12.704C13.6263 12.2747 14.4803 12.06 15.4323 12.06C16.599 12.06 17.5977 12.368 18.4283 12.984C19.259 13.6 19.8143 14.44 20.0943 15.504H17.4623C17.2663 15.0933 16.9863 14.7807 16.6223 14.566C16.2677 14.3513 15.8617 14.244 15.4043 14.244C14.667 14.244 14.0697 14.5007 13.6123 15.014C13.155 15.5273 12.9263 16.2133 12.9263 17.072C12.9263 17.9307 13.155 18.6167 13.6123 19.13C14.0697 19.6433 14.667 19.9 15.4043 19.9C15.8617 19.9 16.2677 19.7927 16.6223 19.578C16.9863 19.3633 17.2663 19.0507 17.4623 18.64H20.0943C19.8143 19.704 19.259 20.544 18.4283 21.16C17.5977 21.7667 16.599 22.07 15.4323 22.07C14.4803 22.07 13.6263 21.86 12.8703 21.44C12.1237 21.0107 11.5403 20.418 11.1203 19.662C10.7003 18.906 10.4903 18.0427 10.4903 17.072ZM26.5724 22L24.5284 18.29H23.9544V22H21.5604V12.172H25.5784C26.353 12.172 27.011 12.3073 27.5524 12.578C28.103 12.8487 28.5137 13.222 28.7844 13.698C29.0551 14.1647 29.1904 14.6873 29.1904 15.266C29.1904 15.9193 29.0037 16.5027 28.6304 17.016C28.2664 17.5293 27.725 17.8933 27.0064 18.108L29.2744 22H26.5724ZM23.9544 16.596H25.4384C25.877 16.596 26.2037 16.4887 26.4184 16.274C26.6424 16.0593 26.7544 15.756 26.7544 15.364C26.7544 14.9907 26.6424 14.6967 26.4184 14.482C26.2037 14.2673 25.877 14.16 25.4384 14.16H23.9544V16.596ZM33.0872 14.09V16.078H36.2932V17.926H33.0872V20.082H36.7132V22H30.6932V12.172H36.7132V14.09H33.0872ZM41.9494 12.172C42.9854 12.172 43.8907 12.3773 44.6654 12.788C45.4401 13.1987 46.0374 13.7773 46.4574 14.524C46.8867 15.2613 47.1014 16.1153 47.1014 17.086C47.1014 18.0473 46.8867 18.9013 46.4574 19.648C46.0374 20.3947 45.4354 20.9733 44.6514 21.384C43.8767 21.7947 42.9761 22 41.9494 22H38.2674V12.172H41.9494ZM41.7954 19.928C42.7007 19.928 43.4054 19.6807 43.9094 19.186C44.4134 18.6913 44.6654 17.9913 44.6654 17.086C44.6654 16.1807 44.4134 15.476 43.9094 14.972C43.4054 14.468 42.7007 14.216 41.7954 14.216H40.6614V19.928H41.7954ZM50.8333 12.172V22H48.4393V12.172H50.8333ZM59.6382 12.172V14.09H57.0342V22H54.6402V14.09H52.0362V12.172H59.6382ZM15.3165 31.072C15.3165 30.1013 15.5265 29.238 15.9465 28.482C16.3665 27.7167 16.9498 27.124 17.6965 26.704C18.4525 26.2747 19.3065 26.06 20.2585 26.06C21.4252 26.06 22.4238 26.368 23.2545 26.984C24.0852 27.6 24.6405 28.44 24.9205 29.504H22.2885C22.0925 29.0933 21.8125 28.7807 21.4485 28.566C21.0938 28.3513 20.6878 28.244 20.2305 28.244C19.4932 28.244 18.8958 28.5007 18.4385 29.014C17.9812 29.5273 17.7525 30.2133 17.7525 31.072C17.7525 31.9307 17.9812 32.6167 18.4385 33.13C18.8958 33.6433 19.4932 33.9 20.2305 33.9C20.6878 33.9 21.0938 33.7927 21.4485 33.578C21.8125 33.3633 22.0925 33.0507 22.2885 32.64H24.9205C24.6405 33.704 24.0852 34.544 23.2545 35.16C22.4238 35.7667 21.4252 36.07 20.2585 36.07C19.3065 36.07 18.4525 35.86 17.6965 35.44C16.9498 35.0107 16.3665 34.418 15.9465 33.662C15.5265 32.906 15.3165 32.0427 15.3165 31.072ZM32.5046 34.264H28.8366L28.2486 36H25.7426L29.2986 26.172H32.0706L35.6266 36H33.0926L32.5046 34.264ZM31.8886 32.416L30.6706 28.818L29.4666 32.416H31.8886ZM41.7208 36L39.6768 32.29H39.1028V36H36.7088V26.172H40.7268C41.5015 26.172 42.1595 26.3073 42.7008 26.578C43.2515 26.8487 43.6622 27.222 43.9328 27.698C44.2035 28.1647 44.3388 28.6873 44.3388 29.266C44.3388 29.9193 44.1522 30.5027 43.7788 31.016C43.4148 31.5293 42.8735 31.8933 42.1548 32.108L44.4228 36H41.7208ZM39.1028 30.596H40.5868C41.0255 30.596 41.3522 30.4887 41.5668 30.274C41.7908 30.0593 41.9028 29.756 41.9028 29.364C41.9028 28.9907 41.7908 28.6967 41.5668 28.482C41.3522 28.2673 41.0255 28.16 40.5868 28.16H39.1028V30.596ZM49.5236 26.172C50.5596 26.172 51.465 26.3773 52.2396 26.788C53.0143 27.1987 53.6116 27.7773 54.0316 28.524C54.461 29.2613 54.6756 30.1153 54.6756 31.086C54.6756 32.0473 54.461 32.9013 54.0316 33.648C53.6116 34.3947 53.0096 34.9733 52.2256 35.384C51.451 35.7947 50.5503 36 49.5236 36H45.8416V26.172H49.5236ZM49.3696 33.928C50.275 33.928 50.9796 33.6807 51.4836 33.186C51.9876 32.6913 52.2396 31.9913 52.2396 31.086C52.2396 30.1807 51.9876 29.476 51.4836 28.972C50.9796 28.468 50.275 28.216 49.3696 28.216H48.2356V33.928H49.3696Z" fill="black"/>
</svg>
