<svg width="43" height="42" viewBox="0 0 43 42" fill="none" xmlns="http://www.w3.org/2000/svg">
<path d="M27.4561 1.00455C27.4885 1.00455 27.5223 1.01386 27.5502 1.0356C28.196 1.52318 28.7551 2.2856 29.2229 3.32131C29.5715 4.14087 29.7378 5.01555 29.7216 5.95002C29.7083 6.3685 29.6583 6.79458 29.5686 7.23371C29.5347 7.41507 29.4921 7.60591 29.4406 7.80622C29.2008 8.62004 29.064 9.13246 29.0287 9.34923L29.0257 9.36429C28.9551 9.64705 28.8213 10.4073 28.6256 11.645C28.5859 11.8615 28.5432 12.0733 28.4947 12.288C28.4476 12.5886 28.1269 13.6969 27.5297 15.6127C27.4517 15.8894 27.3914 16.1377 27.3472 16.3576C27.1943 17.1835 27.1516 17.7861 27.2178 18.1663C27.234 18.2586 27.1751 18.3473 27.0883 18.3642C27.078 18.3662 27.0678 18.3672 27.0589 18.3672C26.9824 18.3672 26.9147 18.3097 26.9 18.2274C26.8265 17.8055 26.8706 17.1602 27.031 16.292C27.078 16.057 27.1413 15.7981 27.2222 15.5108C27.8254 13.5745 28.1431 12.4804 28.1784 12.2241L28.1813 12.2085C28.2284 11.9973 28.2711 11.7901 28.3078 11.5871C28.502 10.3589 28.6359 9.59488 28.7109 9.29147C28.7492 9.06026 28.8889 8.53541 29.1302 7.71709C29.1802 7.52346 29.2199 7.3396 29.2523 7.16538C29.3391 6.74364 29.3876 6.33852 29.3994 5.94644C29.4141 5.06322 29.2582 4.2373 28.9331 3.46882C28.4873 2.48436 27.9636 1.76541 27.3634 1.312C27.2899 1.25765 27.2737 1.15206 27.3252 1.07442C27.3575 1.02939 27.4061 1.00455 27.4561 1.00455Z" fill="#1D6E65" stroke="#1D6E65" stroke-width="0.6"/>
<path d="M26.7644 1.00004C26.9663 1.00004 27.1838 1.04335 27.4166 1.12843C27.5045 1.16092 27.5492 1.25837 27.5168 1.34655C27.4921 1.41461 27.4274 1.45793 27.358 1.45793C27.3395 1.45793 27.3194 1.45483 27.3009 1.4471C27.1175 1.37903 26.9463 1.34655 26.789 1.34655C26.4097 1.34655 26.1014 1.53992 25.867 1.92666C25.0883 5.43687 24.5872 7.39765 24.3683 7.80961C23.2073 11.1787 22.4039 13.096 21.9568 13.5617C21.653 14.0767 21.2198 14.675 20.6616 15.3565C17.5655 18.8436 14.3384 22.1766 14.0469 22.7513L14.0192 22.7915C12.7132 24.1637 3.8551 23.8185 1.30946 23.8185C0.748213 23.8185 1.93238 23.7851 1.30946 23.7183C1.21694 23.7084 1.30021 23.6248 1.30946 23.5317C1.31871 23.4448 1.22465 23.3803 1.30946 23.3803C1.92004 23.4465 0.760548 23.4793 1.30946 23.4793C3.741 23.4793 12.5081 23.8691 13.7463 22.5856C14.0716 21.97 17.3126 18.6187 20.3995 15.1411C20.9592 14.4595 21.3894 13.8652 21.6885 13.3583L21.7116 13.3272C22.1248 12.898 22.9081 11.0137 24.0599 7.67425L24.0707 7.6498C24.2758 7.26353 24.7692 5.31807 25.5509 1.81373C25.554 1.79517 25.5617 1.7797 25.571 1.76423C25.8747 1.25528 26.2725 1.00004 26.7644 1.00004Z" fill="#1D6E65" stroke="#1D6E65" stroke-width="0.6"/>
<path d="M25.1994 17.4855C25.2282 17.4855 25.2555 17.4925 25.2812 17.5075C25.8907 17.8565 26.5456 18.0599 27.2475 18.1177C30.3871 17.9912 32.8309 17.9279 34.5788 17.9279C36.5223 17.9279 37.6032 18.0062 37.8231 18.1629C37.8382 18.1738 37.8519 18.1856 37.864 18.198C39.9773 18.6051 41.319 19.3221 41.892 20.3491L41.9026 20.3709C42.5029 21.941 42.2179 23.1466 41.0461 23.9874C42.3923 24.5655 42.9107 25.6615 42.6075 27.2758L42.606 27.2882C42.2225 28.727 41.4038 29.6672 40.1531 30.1091C40.8626 31.2711 41.0703 32.3046 40.7793 33.2098C40.4912 34.2593 39.6407 35.1168 38.2278 35.7825C38.6902 36.91 38.3688 38.1185 37.2682 39.408L37.2515 39.4248C36.06 40.4762 34.3363 41.002 32.0774 41.002C31.6696 41.002 31.2452 40.9848 30.8025 40.9506C24.7567 41.002 18.438 39.8775 16.8296 39.2639C15.8002 38.8713 12.8835 37.3002 12.8835 37.3002C12.8516 37.3 12.8274 37.3025 12.8077 37.3072C12.791 37.3145 12.7713 37.3188 12.7515 37.3193L1.63327 37.5309C1.54383 37.5309 1.63631 37.4586 1.63327 37.3674C1.63176 37.2749 1.54232 37.1982 1.63327 37.1959L12.7121 36.9848C12.7197 36.9841 12.7228 36.9834 12.7243 36.9827C12.7516 36.9758 12.7879 36.962 12.8319 36.9724C13.5611 37.1462 15.259 38.508 17.2131 39.0122C20.6014 39.8868 25.4617 40.5308 30.8116 40.6154L30.8222 40.6158C31.2588 40.6498 31.6787 40.6667 32.0805 40.6667C34.2408 40.6667 35.8856 40.1743 37.0135 39.1893C38.0747 37.9501 38.3552 36.81 37.8625 35.7693C37.8428 35.7285 37.8412 35.6817 37.8564 35.639C37.8716 35.5967 37.9034 35.5623 37.9443 35.5439C39.3542 34.9106 40.1926 34.1006 40.4609 33.1139L40.4624 33.1064C40.7368 32.2546 40.5033 31.2544 39.7635 30.1062C39.7347 30.062 39.7287 30.0065 39.7469 29.957C39.7635 29.9074 39.8045 29.8692 39.8545 29.8542C41.0991 29.4814 41.9087 28.6011 42.2816 27.2134C42.5711 25.6699 42.0208 24.6601 40.6292 24.1844C40.5685 24.1633 40.5246 24.1084 40.5185 24.0432C40.5109 23.9782 40.5428 23.9152 40.5973 23.8816C41.8329 23.1368 42.1679 22.0141 41.6009 20.5136C41.0733 19.5653 39.7832 18.8984 37.7321 18.5132C37.6821 18.5038 37.6411 18.4729 37.6169 18.4307C37.4274 18.3104 36.5148 18.2503 34.8805 18.2503C33.1462 18.2503 30.6039 18.3179 27.2505 18.453L27.2308 18.4527C26.4774 18.3922 25.7724 18.1741 25.1175 17.7988C25.0387 17.7531 25.0099 17.6508 25.0554 17.5703C25.0857 17.5159 25.1418 17.4855 25.1994 17.4855Z" fill="#1D6E65" stroke="#1D6E65" stroke-width="0.6"/>
<path d="M35.9148 18.8033C36.2502 18.8033 36.8861 18.8679 37.824 18.9974C37.9136 19.01 37.9773 19.0917 37.9636 19.1798C37.953 19.2603 37.8817 19.3184 37.7997 19.3184C37.7921 19.3184 37.7846 19.3179 37.777 19.3167C36.8406 19.1876 36.2259 19.123 35.93 19.123C35.8617 19.123 35.8116 19.1263 35.7767 19.1331L35.7479 19.1361C34.8859 19.1541 34.0299 19.2622 33.1831 19.4609L33.1375 19.4655C32.5533 19.4413 32.0782 19.4293 31.7094 19.4293C31.3847 19.4293 31.1434 19.4385 30.984 19.4571C30.5484 19.5006 30.2206 19.5665 30.0006 19.6553C28.486 20.366 27.9897 21.2461 28.5118 22.2958C28.5406 22.3553 28.574 22.4156 28.6089 22.4765C29.0703 23.146 30.1417 23.6185 31.8233 23.894C32.4288 23.958 33.1876 23.9901 34.1028 23.9901C34.1392 23.9901 34.1771 23.9901 34.2151 23.9899L34.2287 23.9905L36.5371 24.1618C37.1608 24.1818 37.6404 24.1921 37.9788 24.1921C38.038 24.1921 38.0927 24.1917 38.1427 24.1911L38.1534 24.1914C38.2034 24.1939 38.255 24.195 38.3112 24.195C38.8985 24.195 39.7772 24.0538 40.9458 23.7715C40.9595 23.7683 40.9731 23.7667 40.9868 23.7667C41.0611 23.7667 41.1279 23.8157 41.1477 23.8891C41.1689 23.9755 41.1158 24.063 41.0263 24.0845C39.8319 24.3732 38.9258 24.5176 38.3066 24.5176C38.249 24.5176 38.1943 24.5163 38.1427 24.5138C38.0881 24.5143 38.0365 24.5146 37.9803 24.5145C37.6343 24.5146 37.1472 24.5043 36.5189 24.4837C36.5113 24.4833 34.209 24.3126 34.209 24.3126C34.1711 24.3126 34.1361 24.3126 34.1028 24.3126C33.1694 24.3126 32.3939 24.2796 31.7777 24.2133L31.7671 24.2121C29.9839 23.92 28.8365 23.3976 28.3266 22.6453L28.3205 22.6369C28.2811 22.5695 28.2447 22.5024 28.2113 22.4359C27.5921 21.1906 28.143 20.1657 29.864 19.361L29.8731 19.3573C30.1235 19.2568 30.4802 19.1832 30.9446 19.1367C31.1145 19.1169 31.371 19.1069 31.7125 19.1069C32.0828 19.1069 32.5548 19.1186 33.1284 19.142C33.9844 18.9426 34.8495 18.8333 35.7221 18.814C35.7722 18.8068 35.8344 18.8033 35.9148 18.8033Z" fill="#1D6E65" stroke="#1D6E65" stroke-width="0.6"/>
<path d="M30.7925 23.861C31.1134 23.861 31.4481 23.875 31.7967 23.9027C31.8904 23.9102 31.9594 23.9912 31.9518 24.0841C31.9441 24.1723 31.8704 24.2393 31.7844 24.2393C31.7798 24.2393 31.7752 24.239 31.7706 24.2387C31.4282 24.2115 31.1027 24.1978 30.7894 24.1978C29.3092 24.1978 28.1592 24.5042 27.3423 25.1176C26.5715 25.9305 26.6007 26.7405 27.4344 27.5472C27.525 27.635 27.6233 27.7229 27.7323 27.8106C28.7012 28.4191 29.9787 28.8302 31.5664 29.0437C31.5679 29.0437 35.6783 29.5325 35.6783 29.5325C35.9808 29.5637 36.2925 29.5893 36.6104 29.6096C37.1647 29.6553 37.7788 29.678 38.456 29.678C39.0932 29.678 39.7872 29.6579 40.5381 29.6176C40.5411 29.6174 40.5442 29.6173 40.5473 29.6173C40.6348 29.6173 40.71 29.6869 40.7146 29.7767C40.7192 29.8697 40.6486 29.949 40.555 29.954C39.7995 29.9946 39.0993 30.0149 38.456 30.0149C37.7696 30.0149 37.1478 29.9919 36.5889 29.9459C36.2649 29.9253 35.9486 29.8992 35.6415 29.8675C35.6384 29.8672 31.5249 29.378 31.5249 29.378C29.8758 29.1562 28.5476 28.7251 27.5373 28.0841L27.522 28.073C27.4053 27.9786 27.2978 27.8841 27.1995 27.7893C26.1999 26.8206 26.1723 25.846 27.1212 24.8656L27.1411 24.8481C28.0179 24.1899 29.234 23.861 30.7925 23.861Z" fill="#1D6E65" stroke="#1D6E65" stroke-width="0.6"/>
<path d="M29.3821 28.6917C29.9907 28.6917 30.6705 28.7707 31.4215 28.9281C31.5108 28.9472 31.5683 29.0368 31.5502 29.1285C31.5335 29.2088 31.4654 29.2641 31.3881 29.2641C31.3775 29.2641 31.3654 29.2632 31.3548 29.2607C30.6236 29.1073 29.965 29.0305 29.3791 29.0305C28.3723 29.0305 27.5789 29.257 27.0006 29.7102C26.0891 30.6425 26.1164 31.6297 27.0838 32.6717C28.5585 34.0007 32.1694 34.832 37.9181 35.1658C38.0089 35.1711 38.0786 35.2511 38.074 35.3448C38.0695 35.4351 37.9953 35.5049 37.9075 35.5049C37.9044 35.5049 37.9014 35.5047 37.8984 35.5046C32.0588 35.1657 28.3768 34.3025 26.8522 32.9152L26.8416 32.9053C25.7212 31.6971 25.7016 30.547 26.7826 29.4547L26.7992 29.4408C27.4366 28.9414 28.2965 28.6917 29.3821 28.6917Z" fill="#1D6E65" stroke="#1D6E65" stroke-width="0.6"/>
<path d="M29.2243 34.1864C29.5106 34.1864 29.8073 34.2314 30.1144 34.3219C30.2005 34.3474 30.2509 34.4383 30.2257 34.5252C30.2049 34.5969 30.1397 34.6433 30.0684 34.6433C30.0536 34.6433 30.0388 34.6413 30.0239 34.6367C29.751 34.5562 29.4869 34.5161 29.2317 34.5161C28.6605 34.5161 28.1368 34.7187 27.6605 35.1242C27.1072 35.7788 27.0538 36.4271 27.4988 37.0688C27.9217 37.5878 28.5952 38.0098 29.5195 38.3353L29.5388 38.3437C29.7183 38.4349 30.3904 38.582 31.5535 38.7851L31.5862 38.7944C32.3132 39.0884 32.7271 39.2377 32.828 39.2426L32.8502 39.2453C33.23 39.3171 33.6128 39.353 33.997 39.353C34.0564 39.353 34.1142 39.3522 34.1736 39.3505C34.2656 39.3505 34.3383 39.4209 34.3398 39.5099C34.3427 39.6003 34.2715 39.6758 34.1825 39.6784C34.1202 39.68 34.0594 39.6809 33.997 39.6809C33.5965 39.6809 33.1974 39.644 32.8012 39.5699C32.6633 39.5596 32.2226 39.4052 31.4853 39.1068C30.331 38.9044 29.6367 38.7503 29.4097 38.6448C28.4246 38.297 27.7006 37.8376 27.2392 37.2664L27.2333 37.257C26.6858 36.4694 26.7526 35.6809 27.4336 34.8913L27.4514 34.8735C27.9899 34.4154 28.5804 34.1864 29.2243 34.1864Z" fill="#1D6E65" stroke="#1D6E65" stroke-width="0.6"/>
<path d="M29.1872 30.4519C29.2104 30.4519 29.2337 30.4672 29.2525 30.4984C29.2927 30.566 29.2963 30.6827 29.2605 30.7591C29.1586 30.9768 29.0889 31.2392 29.0513 31.5466C29.0406 31.6447 29.0388 31.792 29.0469 31.9885C29.0549 32.1452 29.0701 32.2829 29.0933 32.4011C29.1121 32.4968 29.0853 32.6031 29.0352 32.6384C29.0236 32.646 29.012 32.6497 29.0013 32.6497C28.9611 32.6497 28.9235 32.6035 28.9092 32.5288C28.8797 32.3795 28.8609 32.2098 28.8511 32.0199C28.8413 31.7831 28.8448 31.5992 28.86 31.4656C28.9056 31.0956 28.9897 30.779 29.1139 30.5142C29.1336 30.4731 29.1604 30.4519 29.1872 30.4519Z" fill="#1D6E65" stroke="#1D6E65" stroke-width="0.6"/>
<path d="M28.7059 35.5072C28.7273 35.5072 28.7487 35.5137 28.7701 35.5276C28.8369 35.5729 28.8634 35.6801 28.8281 35.7658C28.7827 35.8768 28.7538 35.9525 28.7399 35.9957C28.7122 36.0872 28.6958 36.1524 28.692 36.1926L28.6908 36.2006C28.6832 36.2568 28.6794 36.3155 28.6807 36.3768C28.6807 36.428 28.6895 36.5074 28.7059 36.6166C28.7197 36.7128 28.6694 36.8051 28.595 36.823C28.5862 36.825 28.5774 36.8259 28.5698 36.8259C28.5043 36.8259 28.4464 36.7665 28.4338 36.6813C28.4149 36.5539 28.4061 36.4554 28.4048 36.3864C28.4023 36.3029 28.4073 36.2219 28.4187 36.1437C28.4262 36.0765 28.4464 35.9855 28.4817 35.8708C28.4993 35.8119 28.5333 35.7244 28.5824 35.6046C28.6076 35.5416 28.6555 35.5072 28.7059 35.5072Z" fill="#1D6E65" stroke="#1D6E65" stroke-width="0.6"/>
<path d="M29.8945 25.8348C29.9485 25.8348 30 25.8447 30.0465 25.866C30.1691 25.9218 30.201 26.033 30.1176 26.1147C29.9436 26.2837 29.848 26.4777 29.8259 26.6974C29.8161 26.7957 29.8284 26.9097 29.8603 27.0402C29.8848 27.1253 29.9338 27.2274 30.0073 27.3464C30.0612 27.438 29.995 27.5425 29.8578 27.5798C29.8259 27.5888 29.7916 27.593 29.7573 27.593C29.6519 27.593 29.5514 27.5509 29.5073 27.4815C29.4264 27.3453 29.3676 27.2243 29.3357 27.1186L29.3308 27.0987C29.2916 26.9414 29.2769 26.8001 29.2892 26.675C29.3161 26.39 29.4435 26.1359 29.6739 25.9127C29.7254 25.8621 29.8112 25.8348 29.8945 25.8348Z" fill="#1D6E65" stroke="#1D6E65" stroke-width="0.6"/>
<path d="M30.8627 20.7858C30.8844 20.7858 30.9061 20.7952 30.9247 20.8149C30.9773 20.8686 30.9907 20.9779 30.9567 21.059C30.8637 21.2779 30.8214 21.5323 30.8307 21.822C30.839 22.0546 30.9061 22.3559 31.0299 22.7261C31.0588 22.8121 31.0382 22.9184 30.9825 22.9636C30.9659 22.9772 30.9474 22.9836 30.9298 22.9836C30.8896 22.9836 30.8503 22.9493 30.8297 22.8892C30.6903 22.4738 30.615 22.1243 30.6047 21.8404V21.8308C30.5943 21.4679 30.648 21.1457 30.7677 20.8647C30.7894 20.8136 30.8256 20.7858 30.8627 20.7858Z" fill="#1D6E65" stroke="#1D6E65" stroke-width="0.6"/>
<path d="M12.8965 28.0332C12.9405 28.0332 12.9807 28.0779 12.996 28.1487C13.0419 28.3695 13.0562 28.6279 13.0409 28.9237C13.0333 29.1032 13.0189 29.2987 12.9998 29.5099C12.9989 29.5125 12.8526 30.941 12.8526 30.941C12.843 31.0367 12.8315 31.1755 12.82 31.3578C12.7923 31.8153 12.7856 32.3592 12.8 32.9898C12.8258 33.5659 12.8736 34.0658 12.9443 34.4896C12.9922 34.7929 13.0878 35.1974 13.2321 35.7057C13.257 35.7905 13.2341 35.8907 13.1815 35.9299C13.1671 35.9404 13.1518 35.9453 13.1375 35.9453C13.0973 35.9453 13.0601 35.9089 13.0419 35.8468C12.8918 35.3211 12.7923 34.8979 12.7416 34.5769C12.668 34.131 12.6173 33.6082 12.5906 33.0081C12.5753 32.356 12.5829 31.7965 12.6116 31.3236C12.624 31.1346 12.6355 30.9889 12.646 30.8858L12.7923 29.4575C12.8114 29.2544 12.8239 29.0677 12.8325 28.8969C12.8449 28.6458 12.8334 28.4324 12.7971 28.2557C12.7789 28.1672 12.8086 28.0715 12.8631 28.0417C12.8745 28.0358 12.8851 28.0332 12.8965 28.0332Z" fill="#1D6E65" stroke="#1D6E65" stroke-width="0.6"/>
</svg>
