<svg width="86" height="36" viewBox="0 0 86 36" fill="none" xmlns="http://www.w3.org/2000/svg">
<path d="M28.3674 17.4012C28.3047 17.3984 28.2435 17.4254 28.2051 17.4783C28.1439 17.5614 28.1624 17.6773 28.2478 17.7371C28.7076 18.061 29.5532 18.3497 30.7861 18.603L30.796 18.605C34.3038 19.1344 36.2328 19.485 36.583 19.6568L36.62 19.6702C37.7959 19.973 38.9006 20.4254 39.9341 21.0276C40.2018 21.2371 40.4538 21.4428 40.6901 21.6446C42.9237 23.5598 43.5487 25.0735 42.5635 26.1859L42.5536 26.1855C42.3827 26.2865 42.1891 26.3322 41.9727 26.3228C41.9016 26.3197 41.8289 26.3106 41.7535 26.2956C38.9077 25.1389 36.3509 24.5109 34.0789 24.4118C33.9934 24.408 33.9066 24.4049 33.8212 24.4026C32.4061 24.3623 30.3789 24.5327 27.7424 24.9137C26.6292 25.0968 24.5877 25.5495 21.6152 26.272C21.1241 26.3715 20.7411 26.431 20.465 26.4503C20.3425 26.4551 20.2215 26.4548 20.0977 26.4493C19.7845 26.4356 19.4613 26.3893 19.1282 26.3102L19.1211 26.31C17.9139 25.7837 17.0868 25.5108 16.6383 25.4911C16.6042 25.4897 16.5714 25.4897 16.5415 25.4911C16.4376 25.4963 16.3579 25.5834 16.3636 25.6857C16.3678 25.7819 16.4476 25.8573 16.543 25.8616C16.5486 25.8619 16.5558 25.8619 16.5615 25.8615C16.5842 25.8604 16.6099 25.8604 16.6355 25.8616C17.027 25.8787 17.8071 26.1424 18.9759 26.6525L19.0072 26.663C19.3759 26.7524 19.7332 26.8046 20.0806 26.8199C20.2173 26.8257 20.3525 26.826 20.4863 26.8206C20.7867 26.7998 21.1896 26.7375 21.6992 26.6336L21.7064 26.6319C24.666 25.9126 26.6961 25.4621 27.7979 25.2806C30.4131 24.9027 32.4175 24.7337 33.8112 24.7735C33.8952 24.7756 33.9778 24.7785 34.0618 24.7822C36.294 24.8797 38.8109 25.4998 41.614 26.6426L41.6467 26.6525C41.7535 26.6757 41.8588 26.6894 41.9599 26.694C42.2731 26.7076 42.555 26.632 42.807 26.4672L42.844 26.435C44.0014 25.1359 43.3664 23.4461 40.9378 21.3653C40.6929 21.1557 40.4295 20.9414 40.1477 20.7228L40.1135 20.7019C39.0629 20.0903 37.9397 19.6294 36.7453 19.3191C36.3253 19.1284 34.3664 18.7689 30.8672 18.2402C29.6842 17.9974 28.8856 17.7291 28.4685 17.4359C28.4371 17.4139 28.4015 17.4026 28.3674 17.4012Z" fill="#1D6E65" stroke="#1D6E65" stroke-width="0.6"/>
<path d="M30.9998 7.3539C30.979 7.35306 30.9567 7.35544 30.9359 7.36163C30.8303 7.391 30.7709 7.49485 30.8021 7.59363C30.9745 8.1376 30.9671 8.71388 30.7828 9.32263C30.6802 9.67801 30.5702 9.98491 30.4543 10.2454C29.8686 11.3345 29.4851 12.1367 29.3053 12.6522C29.0526 13.293 28.9099 13.8099 28.8772 14.2033C28.794 15.1061 29.0838 16.4016 29.7453 18.0896C29.7735 18.1619 29.8449 18.2079 29.9222 18.211C29.9474 18.2121 29.9742 18.2085 29.9994 18.1996C30.102 18.1636 30.154 18.0563 30.1154 17.9597C29.4733 16.3235 29.1923 15.0818 29.2696 14.2345C29.3008 13.873 29.4361 13.3873 29.6784 12.776L29.6799 12.7692C29.8538 12.2707 30.2313 11.4819 30.811 10.4035L30.8155 10.393C30.9403 10.1157 31.0563 9.7938 31.1618 9.42577C31.3684 8.74704 31.3744 8.10092 31.1811 7.48711C31.1559 7.40884 31.0815 7.35741 30.9998 7.3539Z" fill="#1D6E65" stroke="#1D6E65" stroke-width="0.6"/>
<path d="M35.444 6.94262C35.4116 6.94119 35.3793 6.94731 35.3498 6.96152C34.6761 7.28254 34.1558 7.50108 33.7915 7.61713C32.1573 8.13295 31.2474 8.40832 31.0603 8.4434C30.9591 8.46231 30.893 8.55358 30.9141 8.64746C30.931 8.72687 31.0055 8.78254 31.0885 8.78593C31.1039 8.78659 31.1194 8.78567 31.1335 8.78267C31.336 8.74473 32.2628 8.46531 33.9124 7.94466C34.295 7.82314 34.8308 7.59809 35.5199 7.2695C35.6127 7.22582 35.6479 7.12151 35.6015 7.0365C35.5691 6.97912 35.5087 6.94523 35.444 6.94262Z" fill="#1D6E65" stroke="#1D6E65" stroke-width="0.6"/>
<path d="M35.41 1.42117C35.2344 1.41351 35.0573 1.4305 34.8802 1.4724L34.8519 1.48102C33.8857 1.86795 32.3005 2.27786 30.0976 2.71073C29.4714 2.83836 27.7034 3.0264 24.795 3.27527C24.2865 3.32635 23.9082 3.40916 23.6546 3.52385C23.1036 3.77146 22.6871 4.10175 22.4009 4.51499L22.3683 4.61019C22.3697 4.60393 22.3598 4.60351 22.3598 4.60351C22.0765 5.29652 21.5212 6.33624 20.6938 7.72323C20.6414 7.81133 20.6712 7.92463 20.7604 7.97612C20.7888 7.99185 20.8171 8.00007 20.8468 8.00132C20.9148 8.00424 20.9814 7.9714 21.0183 7.91015C21.8626 6.49533 22.4278 5.43279 22.7168 4.7228C22.9577 4.36621 23.3246 4.07864 23.8105 3.85971C24.0272 3.76214 24.3658 3.69032 24.8276 3.64355C27.7488 3.39358 29.5309 3.20344 30.1712 3.07303C32.3812 2.63891 33.982 2.22525 34.9723 1.83205C35.1097 1.79809 35.2528 1.7843 35.3944 1.79057C35.478 1.79433 35.563 1.80518 35.6466 1.82314L35.6551 1.82467C35.9073 1.86601 36.2033 2.00242 36.5419 2.23388C37.518 2.99787 38.5649 3.74391 39.6784 4.47171C40.466 5.04947 40.9902 5.52395 41.2523 5.89474C41.724 6.8206 42.3006 8.64241 42.9778 11.3601C43.0089 11.4786 43.0259 11.5826 43.0302 11.6735C43.0429 11.9493 42.9083 12.0934 42.6264 12.1058C42.4918 12.1131 42.3615 12.114 42.2326 12.1083C41.4733 12.0751 40.799 11.8147 40.2125 11.3272L40.2025 11.3195C39.7011 10.9554 39.1698 10.0251 38.6074 8.52883C38.5904 8.48387 38.5564 8.44713 38.5125 8.42625C37.0236 7.72253 36.0886 7.23078 35.7075 6.95088L35.6693 6.92889C35.6693 6.92876 35.6749 6.92917 35.6749 6.92917C35.5035 6.80015 35.4086 6.45134 35.3944 5.88207C35.3916 5.7845 35.3123 5.70656 35.2145 5.70225C35.2103 5.70211 35.206 5.70211 35.2003 5.70211C35.0969 5.70475 35.0148 5.7898 35.0176 5.89168C35.0374 6.61364 35.1961 7.0678 35.4936 7.25459C35.8945 7.54632 36.8281 8.03904 38.2929 8.7326L38.283 8.73218C38.861 10.2539 39.4262 11.2154 39.9787 11.6169C40.629 12.1541 41.3741 12.4409 42.2128 12.4777C42.3544 12.4838 42.4975 12.483 42.6434 12.4749C43.1747 12.4515 43.4297 12.1788 43.4056 11.6569C43.3999 11.5414 43.3801 11.413 43.3433 11.2722C42.6534 8.50545 42.064 6.64996 41.5739 5.70559L41.5611 5.68429C41.2749 5.27898 40.7196 4.77416 39.8951 4.16967L39.8866 4.16383C38.7788 3.43978 37.7376 2.69779 36.7657 1.93756L36.7558 1.93045C36.3762 1.67045 36.0333 1.51429 35.7288 1.4621C35.6211 1.43941 35.5163 1.42576 35.41 1.42117Z" fill="#1D6E65" stroke="#1D6E65" stroke-width="0.6"/>
<path d="M22.7369 4.07062C22.6589 4.06733 22.5839 4.1113 22.5521 4.18593C22.467 4.36168 21.6832 5.11898 20.2009 6.45782L11.574 13.9347L11.5624 13.9455C11.1886 14.2685 10.7181 14.7258 10.1465 15.3174L10.135 15.3303C5.96656 20.8143 2.93264 25.0884 1.02886 28.1585C0.972573 28.2479 1.00144 28.3651 1.09092 28.4201C1.11979 28.4377 1.15154 28.4469 1.18329 28.4483C1.24969 28.4512 1.31753 28.4188 1.35506 28.3579C3.25162 25.2989 6.27833 21.0362 10.4337 15.5693C10.9995 14.9836 11.4629 14.535 11.8251 14.2218C11.8251 14.2209 20.4564 6.74187 20.4564 6.74187C21.9762 5.3695 22.7888 4.57353 22.8971 4.35122C22.9 4.34507 22.9029 4.33991 22.9043 4.33533C22.9462 4.2375 22.9 4.12605 22.8018 4.08537C22.7802 4.07635 22.7585 4.07163 22.7369 4.07062Z" fill="#1D6E65" stroke="#1D6E65" stroke-width="0.6"/>
<path d="M18.4372 26.0067C18.407 26.0054 18.3769 26.0112 18.3496 26.0244C17.5334 26.4091 16.9371 27.1002 16.5592 28.0981C16.2517 28.9065 16.0089 29.6248 15.8336 30.2534C15.4643 31.5838 15.1482 32.855 14.8824 34.0722C14.8278 34.2834 14.7803 34.4412 14.7401 34.5455C14.7013 34.6466 14.7487 34.761 14.8464 34.8013C14.868 34.8099 14.8881 34.8144 14.9096 34.8152C14.9887 34.8188 15.0634 34.7714 15.095 34.6915C15.141 34.5719 15.1942 34.3966 15.2531 34.1659L15.2545 34.1586C15.5189 32.9484 15.8336 31.6836 16.2 30.3642C16.3738 29.7423 16.6124 29.0369 16.9155 28.2416C17.2546 27.3422 17.7849 26.7226 18.5076 26.3823C18.6039 26.3372 18.6455 26.2204 18.601 26.1217C18.5708 26.0521 18.5062 26.01 18.4372 26.0067Z" fill="#1D6E65" stroke="#1D6E65" stroke-width="0.6"/>
<path d="M42.4095 8.58251C42.2332 8.57405 42.0645 8.65041 41.9047 8.81131L41.8883 8.83024C41.7678 8.99221 41.7361 9.16895 41.7931 9.36045L41.7969 9.37078L42.0848 10.1636L42.4767 11.4463C42.483 11.4698 42.4957 11.4914 42.5249 11.5247C42.814 11.8682 43.0474 12.0479 43.2224 12.0637C43.2249 12.064 43.2262 12.0641 43.2287 12.0643C43.3188 12.0686 43.3961 11.997 43.4037 11.9015C43.4126 11.8035 43.3428 11.7171 43.2503 11.7088C43.1666 11.7011 43.0169 11.5707 42.8001 11.3169L42.7912 11.3165L42.4044 10.0498L42.4006 10.0404L42.1114 9.24276C42.0962 9.1821 42.1051 9.12427 42.1393 9.06951C42.2269 8.97826 42.3131 8.93464 42.3955 8.93853C42.4881 8.94296 42.5667 8.86687 42.5718 8.76877C42.5756 8.67041 42.5033 8.58707 42.4107 8.58251C42.4107 8.58251 42.4107 8.58251 42.4095 8.58251Z" fill="#1D6E65" stroke="#1D6E65" stroke-width="0.6"/>
<path d="M34.9308 1.00257C34.6362 0.989655 34.0763 1.03584 33.2482 1.14086L33.216 1.14789L29.6954 2.21813C29.5401 2.26476 29.2865 2.33318 28.9347 2.42356C27.1129 2.84763 25.9916 3.06556 25.568 3.07775C25.461 3.08091 25.376 3.1687 25.379 3.27386C25.3819 3.37414 25.464 3.45405 25.5651 3.4585C25.5695 3.45879 25.5739 3.45879 25.5798 3.45865C26.0297 3.44559 27.1788 3.22394 29.0271 2.79355C29.3905 2.7003 29.65 2.63015 29.8097 2.58209C29.8112 2.58195 33.3068 1.51917 33.3068 1.51917L33.2981 1.51875C34.1042 1.41632 34.6406 1.37111 34.9118 1.38302C34.9162 1.38317 34.9206 1.38346 34.925 1.38375C35.2547 1.40541 35.523 1.48317 35.7282 1.61702C35.7589 1.63696 35.7941 1.64729 35.8278 1.64872C35.8938 1.65159 35.9597 1.62161 35.9993 1.56393C36.0579 1.47628 36.0345 1.35806 35.9451 1.29982C35.6813 1.12838 35.3486 1.02953 34.9499 1.00342C34.9411 1.00313 34.9352 1.00285 34.9308 1.00257Z" fill="#1D6E65" stroke="#1D6E65" stroke-width="0.6"/>
<path d="M39.2859 24.5715C39.094 24.5632 38.9517 24.666 38.8604 24.8801C38.7786 25.0205 38.7249 25.1678 38.698 25.322L38.6967 25.3334C38.6886 25.4016 38.69 25.459 38.6994 25.5055C38.7021 25.5162 38.7047 25.5259 38.7074 25.5353C38.7423 25.6467 38.8054 25.7047 38.8994 25.7088C38.9316 25.7102 38.9678 25.705 39.0081 25.6932C39.102 25.6652 39.1557 25.5679 39.1262 25.476C39.1141 25.4354 39.0873 25.4026 39.0537 25.3811C39.0698 25.2604 39.1128 25.145 39.1785 25.0347L39.2014 24.9559L39.1879 25.0156C39.2148 24.9543 39.2537 24.9248 39.3047 24.9271C39.3181 24.9277 39.3315 24.9302 39.3463 24.9351C39.6 25.0575 40.0147 25.2263 40.5865 25.441C41.373 25.8125 41.8011 26.0222 41.8696 26.0698L41.8777 26.0702C41.8911 26.0814 41.9085 26.0921 41.926 26.1025L41.9152 26.102C42.138 26.24 42.2414 26.4189 42.2253 26.6383C42.2186 26.7342 42.2924 26.8174 42.3904 26.8243C42.4924 26.8287 42.5742 26.7573 42.5809 26.6629C42.6064 26.3114 42.4548 26.0302 42.1246 25.8201L42.1152 25.8197C42.1045 25.8079 42.0911 25.7969 42.0763 25.7864C41.9917 25.7271 41.5421 25.5055 40.7287 25.1218L40.7153 25.116C40.1382 24.8998 39.7275 24.7322 39.4805 24.6133L39.4564 24.604C39.396 24.5847 39.3396 24.5739 39.2859 24.5715ZM41.8508 26.0448C41.8575 26.0532 41.8669 26.0613 41.8763 26.0693L41.8683 26.0689C41.8575 26.0615 41.8481 26.0533 41.8414 26.0444L41.8508 26.0448Z" fill="#1D6E65" stroke="#1D6E65" stroke-width="0.6"/>
<path d="M15.3663 26.3999C15.3034 26.3976 15.2406 26.4225 15.202 26.4713C14.666 27.1477 14.3158 27.5801 14.1529 27.7682C14.0886 27.8419 14.1043 27.9474 14.1872 28.0038C14.2201 28.0256 14.2573 28.0369 14.2944 28.0384C14.3544 28.0407 14.4145 28.018 14.4545 27.9727C14.6203 27.7798 14.9733 27.3436 15.5121 26.6647C15.5736 26.5887 15.5521 26.4838 15.4664 26.4304C15.4364 26.4113 15.4006 26.4013 15.3663 26.3999Z" fill="#1D6E65" stroke="#1D6E65" stroke-width="0.6"/>
<path d="M58.4297 17.4206C58.0097 17.7194 57.2079 17.9879 56.0246 18.226C52.5143 18.7345 50.5534 19.0846 50.1362 19.2771C48.9329 19.5851 47.8036 20.0494 46.7441 20.6702C46.7456 20.6703 46.7114 20.6915 46.7114 20.6915C46.4266 20.9145 46.1603 21.1332 45.9139 21.3474C43.4632 23.4723 42.8081 25.2128 43.9516 26.5689L43.9886 26.6025C44.2378 26.7757 44.5198 26.857 44.8331 26.8463C44.9342 26.8428 45.0396 26.8297 45.1478 26.8069L45.1791 26.7969C47.9959 25.6458 50.5207 25.0321 52.7535 24.956C52.8376 24.9531 52.9216 24.9511 53.0042 24.9496C54.3997 24.9238 56.4019 25.1206 59.0136 25.5401C60.1144 25.7398 62.1408 26.228 65.0914 27.0043L65.0985 27.0059C65.6083 27.1189 66.0099 27.1876 66.3046 27.2122C66.4442 27.2197 66.5795 27.221 66.7162 27.2162C67.0636 27.2043 67.4225 27.1544 67.7913 27.066L67.8227 27.0553C68.9975 26.5407 69.7807 26.2764 70.1723 26.2632C70.1994 26.2622 70.2236 26.2625 70.2464 26.264C70.2535 26.2643 70.2592 26.2643 70.2649 26.2641C70.3617 26.2609 70.4414 26.1837 70.4471 26.0841C70.4528 25.9784 70.3745 25.8876 70.2706 25.8811C70.2407 25.8792 70.2079 25.8789 70.1737 25.8801C69.7252 25.8954 68.8949 26.1685 67.6817 26.6994L67.6746 26.6997C67.3399 26.7778 67.0167 26.8223 66.7034 26.8329C66.5795 26.8372 66.4584 26.8361 66.3374 26.8298C66.0597 26.8069 65.6766 26.7412 65.1882 26.633C62.2219 25.8533 60.1856 25.3629 59.0762 25.1618C56.4404 24.7383 54.4154 24.54 52.9985 24.5662C52.913 24.5675 52.8276 24.5696 52.7407 24.5727C50.4666 24.6504 47.9033 25.2716 45.0495 26.4366C44.9684 26.4513 44.8957 26.46 44.8245 26.4624C44.6081 26.4696 44.4144 26.4204 44.245 26.3141L44.235 26.3144C43.2624 25.1533 43.9032 23.5949 46.1589 21.639C46.3967 21.4328 46.6516 21.2227 46.925 21.009C47.9631 20.3976 49.0724 19.9419 50.2515 19.6418L50.2886 19.6282C50.6417 19.4545 52.5741 19.113 56.0886 18.6039L56.0986 18.6023C57.3332 18.3536 58.1834 18.0645 58.6476 17.7346C58.7331 17.6738 58.753 17.5541 58.6932 17.4674C58.6547 17.4122 58.5935 17.3838 58.5323 17.386C58.4967 17.3871 58.4611 17.3985 58.4297 17.4206Z" fill="#1D6E65" stroke="#1D6E65" stroke-width="0.6"/>
<path d="M56.0451 7.48497C55.8559 8.09609 55.8545 8.74188 56.0423 9.42179C56.1376 9.7906 56.2428 10.1134 56.3577 10.3901C56.3577 10.3918 56.3619 10.4021 56.3619 10.4021C56.8973 11.4855 57.2449 12.2772 57.4033 12.7771L57.4047 12.7839C57.6262 13.3969 57.7495 13.8837 57.7747 14.2438C57.8392 15.0923 57.5589 16.3298 56.9366 17.958C56.9001 18.0541 56.9478 18.1618 57.0431 18.1987C57.0683 18.2078 57.0922 18.2119 57.116 18.2111C57.1889 18.2085 57.2561 18.1635 57.2842 18.0913C57.9275 16.412 58.2134 15.1208 58.1462 14.218C58.1181 13.8247 57.9892 13.3067 57.7579 12.6641C57.5939 12.1473 57.2421 11.3418 56.7011 10.2477C56.5932 9.98644 56.4937 9.67885 56.4012 9.32535C56.233 8.71283 56.233 8.13694 56.4012 7.59532C56.4306 7.49691 56.3759 7.39245 56.2778 7.36213C56.2582 7.35581 56.2372 7.35314 56.2161 7.35384C56.1391 7.35651 56.069 7.40705 56.0451 7.48497Z" fill="#1D6E65" stroke="#1D6E65" stroke-width="0.6"/>
<path d="M51.2147 7.03271C51.1625 7.11526 51.2009 7.21755 51.3007 7.26124C52.0495 7.58901 52.6311 7.8141 53.0455 7.93639C54.8394 8.46135 55.8461 8.74325 56.067 8.78236C56.0839 8.78542 56.0993 8.78644 56.1161 8.78606C56.2082 8.78351 56.2896 8.72988 56.308 8.65243C56.3325 8.56096 56.2619 8.47115 56.1514 8.45154C55.9489 8.41549 54.9591 8.13753 53.182 7.61767C52.7861 7.50086 52.2214 7.28226 51.4894 6.96202C51.4572 6.94775 51.4219 6.9415 51.3881 6.94252C51.3175 6.94443 51.25 6.97705 51.2147 7.03271Z" fill="#1D6E65" stroke="#1D6E65" stroke-width="0.6"/>
<path d="M51.3248 1.45812C51.0125 1.50745 50.6626 1.66105 50.2725 1.91876L50.2639 1.92577C49.2677 2.68071 48.201 3.41673 47.0666 4.13383L47.058 4.13958C46.2144 4.73952 45.6443 5.24178 45.3492 5.64664L45.3362 5.66809C44.8281 6.61362 44.2076 8.47553 43.4763 11.2537C43.4374 11.3951 43.4144 11.524 43.4087 11.6403C43.3784 12.1654 43.6332 12.4426 44.1731 12.4719C44.3213 12.4816 44.4667 12.4841 44.6107 12.4793C45.4644 12.4515 46.2244 12.1705 46.891 11.6365C47.4567 11.2384 48.0412 10.2762 48.6458 8.75062L48.6357 8.75091C50.1329 8.068 51.0859 7.58199 51.4976 7.2926C51.8013 7.10775 51.9683 6.65216 51.9957 5.92539C51.9986 5.8228 51.9165 5.73648 51.8114 5.73269C51.8071 5.73241 51.8028 5.73242 51.797 5.73256C51.6977 5.73592 51.6171 5.81356 51.6128 5.9118C51.5912 6.48469 51.4918 6.83518 51.3148 6.96299L51.322 6.96285L51.2831 6.98457C50.893 7.26219 49.9371 7.74735 48.4155 8.44007C48.3709 8.46039 48.3363 8.49725 48.319 8.54223C47.7302 10.0427 47.1803 10.9737 46.6664 11.3348L46.6563 11.3424C46.0546 11.827 45.3665 12.0819 44.5949 12.1073C44.4639 12.1116 44.3314 12.1094 44.1961 12.1005C43.9082 12.085 43.7743 11.9385 43.7901 11.6609C43.7945 11.5694 43.8132 11.465 43.8448 11.3476C44.5646 8.61707 45.1707 6.78907 45.663 5.86176C45.9308 5.49137 46.4692 5.01938 47.2753 4.44606C48.4155 3.72518 49.4865 2.98537 50.4885 2.22651C50.8354 1.9971 51.1363 1.86299 51.3925 1.82417L51.4026 1.82249C51.4875 1.80525 51.5725 1.79531 51.6588 1.79236C51.8028 1.78774 51.9467 1.803 52.0921 1.83846C53.0898 2.24529 54.7107 2.67875 56.9521 3.13953C57.6014 3.27757 59.4095 3.48806 62.375 3.77087C62.8443 3.823 63.1869 3.89895 63.4043 3.99929C63.8966 4.22506 64.2666 4.51852 64.5128 4.8798C64.7935 5.59802 65.3563 6.67374 66.1985 8.10738C66.2345 8.16932 66.3021 8.20309 66.3698 8.20099C66.4 8.20001 66.4303 8.19202 66.459 8.17647C66.5497 8.12559 66.5829 8.01181 66.5296 7.92254C65.7047 6.51748 65.1519 5.46446 64.8712 4.76376L64.8611 4.76418C64.8626 4.77049 64.8309 4.67435 64.8309 4.67435C64.5459 4.25519 64.1241 3.91801 63.5684 3.6631C63.3121 3.54496 62.9278 3.45751 62.4153 3.40089C59.4599 3.11893 57.6662 2.91068 57.0327 2.77572C54.7971 2.3162 53.1905 1.88653 52.2131 1.48657L52.1857 1.47759C52.0058 1.43359 51.8258 1.41454 51.6473 1.42043C51.5393 1.42393 51.4314 1.4364 51.3248 1.45812Z" fill="#1D6E65" stroke="#1D6E65" stroke-width="0.6"/>
<path d="M64.2121 4.50926C64.1146 4.54857 64.0688 4.65841 64.1075 4.7549C64.1103 4.76043 64.1132 4.76554 64.1161 4.77164C64.2207 4.99301 65.0192 5.79022 66.5115 7.16312C66.5144 7.16568 75.0038 14.6664 75.0038 14.6664C75.3608 14.9812 75.8166 15.4306 76.37 16.0151C80.4398 21.4764 83.4001 25.7315 85.2508 28.7818C85.2866 28.8425 85.3526 28.8755 85.4199 28.8732C85.4515 28.872 85.483 28.8635 85.5117 28.8462C85.602 28.7927 85.6307 28.6771 85.5762 28.5878C83.7183 25.5263 80.7523 21.26 76.6753 15.7891C76.671 15.7833 76.6596 15.7702 76.6596 15.7702C76.099 15.1782 75.636 14.7201 75.2705 14.3962C75.269 14.3962 75.2576 14.3854 75.2576 14.3854L66.7695 6.88713C65.3116 5.54501 64.5418 4.78654 64.4601 4.61144C64.43 4.53736 64.3555 4.4928 64.278 4.49536C64.2565 4.49621 64.2336 4.50061 64.2121 4.50926Z" fill="#1D6E65" stroke="#1D6E65" stroke-width="0.6"/>
<path d="M68.0068 26.5263C67.9612 26.6218 68.0024 26.7358 68.1009 26.7809C68.836 27.1196 69.3712 27.7279 69.7094 28.6055C70.0108 29.3827 70.2475 30.0713 70.4166 30.6715C70.7783 31.9647 71.087 33.198 71.3443 34.3779L71.3458 34.3849C71.4046 34.6102 71.4575 34.7809 71.5031 34.8978C71.534 34.9758 71.6104 35.0228 71.6913 35.0202C71.7134 35.0194 71.7339 35.0153 71.756 35.0073C71.856 34.9691 71.906 34.8585 71.8677 34.7597C71.8266 34.6579 71.7795 34.504 71.7266 34.2979C71.4678 33.1113 71.1576 31.8718 70.7959 30.5791C70.621 29.961 70.3813 29.2598 70.074 28.4705C69.6991 27.496 69.0963 26.8174 68.2656 26.4345C68.2376 26.4212 68.2068 26.4155 68.1774 26.4163C68.1053 26.4188 68.0392 26.459 68.0068 26.5263Z" fill="#1D6E65" stroke="#1D6E65" stroke-width="0.6"/>
<path d="M44.5435 8.58223C44.4397 8.5856 44.3597 8.66836 44.3639 8.76701C44.3667 8.86552 44.4523 8.94264 44.5562 8.93941C44.6474 8.93631 44.7414 8.98126 44.841 9.07359C44.8747 9.1289 44.8845 9.18704 44.8663 9.24773C44.8677 9.24773 44.5379 10.0443 44.5379 10.0443L44.5337 10.0536L44.0917 11.3195L44.0819 11.3197C43.8391 11.5717 43.6707 11.7009 43.5781 11.7075C43.4756 11.7149 43.3985 11.8007 43.4069 11.899C43.4139 11.9949 43.4995 12.0675 43.5977 12.0644C43.6005 12.0642 43.6033 12.0642 43.6061 12.064C43.7998 12.05 44.0594 11.8724 44.385 11.5313C44.4172 11.4983 44.4299 11.4765 44.4383 11.4532L44.8859 10.1715L45.2143 9.37962L45.2171 9.36939C45.2831 9.17802 45.2494 9.00037 45.1189 8.83645L45.1006 8.81734C44.9252 8.65423 44.74 8.57591 44.5435 8.58223Z" fill="#1D6E65" stroke="#1D6E65" stroke-width="0.6"/>
<path d="M52.2834 1.00208C51.8796 1.02319 51.5462 1.11494 51.2804 1.27719C51.1894 1.33238 51.1644 1.44578 51.2231 1.53063C51.2613 1.58637 51.3274 1.61589 51.3935 1.61396C51.4273 1.61286 51.4625 1.60319 51.4934 1.58443C51.7004 1.45778 51.9692 1.38563 52.3011 1.36811C52.304 1.36797 52.3099 1.36769 52.3143 1.36755C52.586 1.359 53.1235 1.40798 53.9282 1.51463L53.9194 1.51491L57.4117 2.57254C57.5732 2.62069 57.8317 2.6905 58.1886 2.78238C60.0419 3.21669 61.1903 3.44143 61.6412 3.45854C61.6456 3.45868 61.6514 3.45882 61.6559 3.45868C61.7572 3.45537 61.8394 3.37935 61.8438 3.28278C61.8482 3.18179 61.7645 3.09666 61.6573 3.09238C61.2329 3.07638 60.1109 2.85536 58.2914 2.42919C57.9404 2.33869 57.6863 2.27012 57.5306 2.2239L54.0164 1.15895L53.9826 1.15192C53.1558 1.04237 52.5948 0.992287 52.2996 1.00153C52.2937 1.00167 52.2878 1.00195 52.2834 1.00208Z" fill="#1D6E65" stroke="#1D6E65" stroke-width="0.6"/>
<path d="M47.696 24.6024L47.6694 24.6116C47.3959 24.7296 46.9405 24.8953 46.3032 25.1086L46.2884 25.1142C45.3879 25.4949 44.8897 25.7149 44.795 25.7743C44.7788 25.7847 44.764 25.7957 44.7522 25.8075L44.7418 25.8078C44.3751 26.0176 44.2051 26.3012 44.2287 26.6583C44.2346 26.7541 44.3248 26.8276 44.4313 26.8244C44.5452 26.8182 44.6265 26.7345 44.6206 26.637C44.6058 26.4143 44.7226 26.2339 44.9695 26.0961L44.9562 26.0965C44.9769 26.0863 44.9946 26.0756 45.0109 26.0643L45.0198 26.0641C45.0952 26.0164 45.5698 25.8083 46.4422 25.4396C47.0721 25.2281 47.5319 25.0612 47.8188 24.9393C47.8291 24.9348 47.8454 24.9324 47.8587 24.9319C47.9163 24.9302 47.9577 24.9606 47.9858 25.0229L47.9725 24.9622L47.9977 25.0425C48.0672 25.1552 48.113 25.2725 48.1352 25.3951C48.0923 25.4168 48.0627 25.4497 48.0479 25.4907C48.0154 25.5837 48.0731 25.683 48.1766 25.7124C48.2209 25.7249 48.2609 25.7305 48.2963 25.7294C48.3998 25.7264 48.4708 25.6682 48.5093 25.5551C48.5137 25.5461 48.5152 25.5362 48.5181 25.5261C48.53 25.4782 48.5314 25.4201 48.5241 25.3506L48.5226 25.339C48.4945 25.1824 48.4383 25.0323 48.3511 24.8889C48.2505 24.6707 48.0953 24.5649 47.8838 24.5713C47.8262 24.573 47.7626 24.5834 47.696 24.6024ZM45.0508 26.0385C45.0434 26.0476 45.0331 26.0557 45.0213 26.0631L45.0124 26.0634C45.0227 26.0554 45.0331 26.0473 45.0405 26.0389L45.0508 26.0385Z" fill="#1D6E65" stroke="#1D6E65" stroke-width="0.6"/>
<path d="M71.154 26.4367C71.0533 26.502 71.0285 26.6321 71.0979 26.7273C71.7106 27.5772 72.112 28.1233 72.3019 28.365C72.3465 28.4216 72.4159 28.4507 72.4852 28.4484C72.5282 28.4469 72.5728 28.4336 72.6091 28.4068C72.7065 28.3376 72.7264 28.2067 72.6537 28.1143C72.4687 27.8786 72.069 27.3374 71.4579 26.4905C71.415 26.4295 71.3423 26.3977 71.2697 26.4C71.23 26.4013 71.1887 26.4134 71.154 26.4367Z" fill="#1D6E65" stroke="#1D6E65" stroke-width="0.6"/>
</svg>
