<svg width="52" height="35" viewBox="0 0 52 35" fill="none" xmlns="http://www.w3.org/2000/svg">
<path d="M41.6083 9.88229C41.6006 9.64912 41.5505 9.44652 41.4598 9.27451L41.4598 9.26305C41.2805 8.74702 40.2101 7.41489 38.2468 5.26475C37.8977 4.77548 37.7106 4.4391 37.6913 4.24798C37.6778 4.11801 37.5602 4.02245 37.4271 4.03774C37.3018 4.04921 37.2092 4.15816 37.213 4.28239C37.213 4.28813 37.213 4.29195 37.215 4.29768C37.2439 4.57481 37.4638 4.99719 37.8746 5.56292L37.8919 5.58203C39.8803 7.76274 40.9198 9.04516 41.0105 9.43123L41.0336 9.49049C41.0953 9.60516 41.13 9.74658 41.1358 9.91477C41.1513 10.3601 40.9719 10.9831 40.5958 11.7878C40.4473 12.1299 40.0982 12.7205 39.5447 13.5652L35.7782 19.1537C35.4156 19.5741 34.9855 19.6792 34.4879 19.469C33.1784 18.9281 32.4918 17.7795 32.4262 16.0211C32.4224 15.9237 32.4205 15.8243 32.4205 15.7211L32.4205 15.7115C32.6461 12.8581 33.5448 10.8876 35.1147 9.80202C35.1861 9.75424 35.2208 9.67587 35.2189 9.59751C35.2169 9.55355 35.2015 9.5096 35.1745 9.47138C35.0993 9.36244 34.9508 9.33758 34.8409 9.41212C33.1456 10.5856 32.1794 12.6746 31.9422 15.679L31.9422 15.6962C31.9402 15.8147 31.9421 15.9313 31.946 16.046C32.0212 18.0012 32.8042 19.2874 34.2989 19.9048C35.0241 20.2125 35.6451 20.0577 36.162 19.4384L36.1755 19.4174L39.944 13.8271C40.511 12.9613 40.8735 12.3497 41.0317 11.9885C41.4367 11.1208 41.6296 10.4193 41.6083 9.88229Z" fill="#1D6E65" stroke="#1D6E65" stroke-width="0.6"/>
<path d="M33.5971 10.7385C33.5953 10.7292 33.5953 10.7198 33.5917 10.7088C33.568 10.604 33.4494 10.5352 33.3272 10.5555C33.205 10.543 32.9369 10.3803 32.5266 10.0659C32.2512 9.85624 31.8718 9.45575 31.3885 8.86599L31.3576 8.83626C31.2645 8.74553 31.1223 8.63446 30.9271 8.49992C30.8305 8.43265 30.6864 8.44674 30.608 8.52965C30.5733 8.56876 30.5569 8.61412 30.5587 8.65949C30.5606 8.71424 30.5897 8.76743 30.6426 8.80341C30.8287 8.93169 30.9581 9.03181 31.0311 9.10378L31.0475 9.12098L31.0493 9.1288C31.5381 9.72169 31.9302 10.1316 32.2257 10.3568C32.7272 10.7417 33.0938 10.9372 33.3217 10.9435C33.3527 10.9435 33.3838 10.9419 33.4129 10.9372C33.5242 10.9184 33.6008 10.834 33.5971 10.7385Z" fill="#1D6E65" stroke="#1D6E65" stroke-width="0.6"/>
<path d="M31.9371 9.63242C31.9335 9.5455 31.8649 9.46965 31.7655 9.44752C31.4836 9.38905 31.2542 9.35111 31.0771 9.3353C30.9398 9.3195 30.6616 9.30212 30.2406 9.28315C30.1159 9.27841 30.0111 9.36217 30.0039 9.46964C30.0039 9.47596 30.0039 9.48229 30.0039 9.48703C30.0075 9.58818 30.0997 9.67036 30.2171 9.67669C30.6345 9.69407 30.9037 9.71145 31.0229 9.72567L31.032 9.72725C31.1891 9.73989 31.3987 9.77466 31.6607 9.82998C31.7818 9.85526 31.9028 9.79048 31.9317 9.68459C31.9353 9.6672 31.9389 9.64981 31.9371 9.63242Z" fill="#1D6E65" stroke="#1D6E65" stroke-width="0.6"/>
<path d="M48.5114 6.58949C48.4806 5.78898 48.1881 5.01369 47.6302 4.26164C46.7683 3.02697 45.6582 2.23228 44.2979 1.87758L44.2883 1.87563C43.9285 1.7981 43.5591 1.77291 43.1782 1.80198L43.1666 1.80391C40.2287 2.16055 38.6261 2.29818 38.3606 2.21677C38.3375 2.20515 38.3106 2.19933 38.2856 2.19739C37.9931 2.17607 37.7238 2.12954 37.4775 2.05976C35.8999 1.5345 35.0168 1.26314 34.8282 1.24569C34.0355 1.06931 33.4391 0.991786 33.0389 1.01698C31.9057 0.848354 29.6393 1.93572 26.2397 4.27326C21.3278 7.59738 18.0802 10.185 16.4948 12.0341C15.9677 12.4082 15.4617 12.6989 14.9749 12.8985C14.0784 13.1524 13.2587 13.2591 12.5161 13.2164L12.5046 13.2164C10.0939 13.1912 4.97034 12.9586 1.05529 12.5186C0.92388 12.5051 1.06991 12.6 1.05529 12.7318C1.05394 12.7435 1.05471 12.7551 1.05529 12.7687C1.05952 12.885 0.936001 12.9838 1.05529 12.9974C4.97996 13.4393 10.0631 13.6719 12.4872 13.6971C13.2915 13.7436 14.1726 13.6293 15.1308 13.354L15.1558 13.3443C15.6906 13.1253 16.2447 12.8074 16.8161 12.3868L16.8565 12.35C18.413 10.5319 21.6299 7.9734 26.5071 4.67254C29.8606 2.36794 32.0269 1.30771 33.0081 1.49379L33.0678 1.49767C33.4237 1.47635 33.9797 1.55001 34.7339 1.71864L34.784 1.72252C34.9379 1.73996 35.7883 2.00355 37.337 2.52107L37.3467 2.52302C37.616 2.60055 37.9065 2.65093 38.2201 2.67613C38.5491 2.77886 40.2153 2.64706 43.2147 2.28266C43.5456 2.25747 43.867 2.27685 44.1786 2.34469C45.4254 2.67032 46.447 3.40298 47.2416 4.54462C47.7399 5.21332 47.9996 5.9014 48.0246 6.60887C48.0515 7.3144 47.8476 8.04317 47.4109 8.79134L47.4032 8.8088C47.3224 8.97549 46.826 9.27398 45.9102 9.70428L40.6405 11.8887C40.5443 11.9275 40.4885 12.0224 40.4923 12.1193C40.4923 12.1484 40.4981 12.1755 40.5096 12.2027C40.5597 12.3248 40.7001 12.3849 40.8213 12.3345L46.1026 10.1462L46.1122 10.1404C47.1088 9.67326 47.6802 9.30306 47.8245 9.03558C48.3113 8.19631 48.5402 7.3803 48.5114 6.58949Z" fill="#1D6E65" stroke="#1D6E65" stroke-width="0.6"/>
<path d="M43.5416 4.25807C43.5362 4.13932 43.4425 4.0425 43.3237 4.03884C42.8196 4.0224 42.3875 4.08086 42.0292 4.2124C41.9067 4.2599 41.7843 4.3147 41.6565 4.37682C40.8102 4.8171 40.2809 5.08201 40.063 5.17518C39.4797 5.41633 38.9395 5.62641 38.4426 5.80362C38.3471 5.83833 38.2895 5.92968 38.2931 6.0265C38.2931 6.04843 38.2985 6.07218 38.3057 6.0941C38.3471 6.21285 38.475 6.27496 38.592 6.23294C39.0961 6.05208 39.6435 5.84017 40.2341 5.59536C40.4645 5.49671 41.0029 5.22632 41.8527 4.78603C41.9662 4.7294 42.076 4.6819 42.1822 4.63988C42.4865 4.52661 42.8628 4.47729 43.3093 4.49373C43.4336 4.49738 43.5362 4.39874 43.5416 4.27268C43.5416 4.26903 43.5416 4.26355 43.5416 4.25807Z" fill="#1D6E65" stroke="#1D6E65" stroke-width="0.6"/>
<path d="M50.4465 13.7513C50.4219 13.0992 50.2706 12.3253 49.9907 11.4336L49.985 11.4184C49.3231 9.69958 48.332 9.0189 47.0119 9.37445C46.904 9.40297 46.8341 9.50373 46.8378 9.6102C46.8378 9.62731 46.8397 9.64634 46.8454 9.66345C46.8795 9.78894 47.0081 9.86499 47.1329 9.83077C48.1788 9.54937 48.9826 10.1312 49.5424 11.5762C49.8129 12.4375 49.9585 13.1714 49.9812 13.7741C50.0153 14.6602 49.7808 15.2648 49.2814 15.5918C48.3717 16.1603 45.6917 16.9056 41.2414 17.824C40.831 17.9019 40.466 17.9362 40.1425 17.9248L37.1694 17.6643C37.0408 17.6529 36.9273 17.7479 36.9159 17.8791C36.9141 17.8886 36.9141 17.8981 36.9141 17.9076C36.9197 18.0255 37.0105 18.1244 37.1297 18.1339L40.1142 18.3963L40.1255 18.3963C40.4849 18.4096 40.8859 18.3735 41.3303 18.2879C45.8487 17.3563 48.5798 16.59 49.5349 15.9892C50.1836 15.5652 50.4862 14.8199 50.4465 13.7513Z" fill="#1D6E65" stroke="#1D6E65" stroke-width="0.6"/>
<path d="M50.9932 18.9197C50.9228 16.9516 50.307 15.8596 49.1438 15.6436C49.0146 15.6191 48.8929 15.7108 48.8701 15.8494C48.8682 15.8677 48.8663 15.884 48.8663 15.9023C48.872 16.0185 48.9519 16.1203 49.0621 16.1427C49.9763 16.3118 50.4629 17.2388 50.5218 18.9237C50.5389 19.4066 50.5199 19.9506 50.4667 20.5557C50.2557 21.5703 49.0906 22.3302 46.9752 22.8294C44.8616 23.3835 43.63 23.6606 43.2727 23.6626L43.248 23.6647C42.5048 23.7523 41.6723 23.6606 40.7505 23.3856C37.3483 22.4402 35.518 21.8616 35.2519 21.6518L35.2519 21.6395C35.2348 21.6151 35.2138 21.5947 35.1891 21.5784C34.8299 21.34 34.6437 21.01 34.6284 20.5883C34.6208 20.4049 34.6475 20.2052 34.7064 19.9872C34.714 19.9608 34.7178 19.9343 34.7159 19.9078C34.7121 19.8018 34.6456 19.704 34.5448 19.6735C34.4213 19.6348 34.2901 19.7122 34.2521 19.8467C34.1761 20.1319 34.1419 20.3947 34.1495 20.6372C34.1685 21.1872 34.4099 21.6293 34.8717 21.9614L34.8698 21.9492C34.8907 21.9818 34.9155 22.0124 34.9497 22.0409C35.2405 22.2915 37.1316 22.9027 40.6231 23.8745C41.5944 24.1638 42.4782 24.2616 43.2765 24.1699C43.668 24.1659 44.9358 23.8847 47.0759 23.3244C49.4061 22.7744 50.691 21.8759 50.9342 20.631L50.9381 20.6025C50.9913 19.9832 51.0103 19.4229 50.9932 18.9197ZM35.3013 21.7801C35.3013 21.7842 35.3013 21.7862 35.3013 21.7903L35.2994 21.7699C35.2994 21.774 35.3013 21.776 35.3013 21.7801Z" fill="#1D6E65" stroke="#1D6E65" stroke-width="0.6"/>
<path d="M49.8918 24.5214C49.8918 24.4888 49.8899 24.4561 49.888 24.4234C49.8056 23.0955 49.1181 22.4729 47.8255 22.5536C47.6972 22.5613 47.5976 22.6708 47.6033 22.7996C47.611 22.9379 47.724 23.0379 47.8542 23.0302C48.8309 22.9687 49.3498 23.4433 49.413 24.4522C49.4149 24.4811 49.4149 24.5118 49.4169 24.5406C49.4456 25.3036 49.2483 26.3375 48.8251 27.6423L48.8251 27.6308C45.7342 29.6448 42.471 31.2686 39.0354 32.5062C33.8457 33.323 29.3703 33.7112 25.6072 33.6689C24.2226 33.6208 23.11 33.5017 22.2693 33.3114C22.2387 33.3038 22.2099 33.3038 22.1812 33.3076C21.8997 33.2768 20.6051 32.7734 18.2994 31.7971L18.2726 31.7875C17.8264 31.6357 17.271 31.5261 16.6046 31.4589C16.0856 31.407 15.4881 31.3859 14.8083 31.3974C10.5531 31.5223 4.49007 31.5857 1.05851 31.5876C0.926952 31.5876 1.05832 31.6933 1.05851 31.8259C1.0633 31.9624 0.929824 32.0642 1.05851 32.0642C4.4939 32.0623 10.5627 31.9989 14.8198 31.874C15.4767 31.8644 16.0569 31.8836 16.5567 31.9336C17.1906 31.9989 17.7153 32.1027 18.129 32.243L18.1405 32.2468C20.4883 33.2442 21.8308 33.7554 22.164 33.7823C23.0353 33.9744 24.1805 34.0974 25.5976 34.1455C29.4028 34.1897 33.9185 33.7976 39.1504 32.9674C39.1542 32.9674 39.1963 32.9559 39.1963 32.9559C42.6951 31.6972 46.0177 30.0387 49.1602 27.9825C49.2043 27.9517 49.2388 27.9075 49.256 27.8556C49.7118 26.4662 49.9243 25.3555 49.8918 24.5214Z" fill="#1D6E65" stroke="#1D6E65" stroke-width="0.6"/>
<path d="M38.2919 15.5232C38.2644 15.0181 37.7871 14.4765 36.86 13.8922C36.3999 13.5717 36.0239 13.661 35.7303 14.158C35.6359 14.2919 35.5466 14.444 35.4625 14.6124L35.4539 14.6347C35.3234 14.9653 35.0109 15.6348 34.5147 16.6429L34.5096 16.6551C34.3121 17.1075 34.1971 17.4767 34.1628 17.7627L34.1611 17.7789C34.149 17.9514 34.1456 18.1157 34.1508 18.2719C34.1765 19.1076 34.4461 19.6939 34.9594 20.0266C35.0624 20.0935 35.1912 20.0489 35.2496 19.9272C35.2684 19.8866 35.277 19.842 35.2753 19.7973C35.2719 19.7121 35.2324 19.629 35.1654 19.5843C34.7929 19.3429 34.5971 18.8967 34.5765 18.2435C34.5731 18.1157 34.5748 17.9818 34.5851 17.8378C34.6126 17.6065 34.7122 17.2941 34.8839 16.8965C35.3749 15.8985 35.6908 15.223 35.8316 14.87C35.9054 14.7158 35.9861 14.582 36.0702 14.4643L36.0805 14.446C36.2248 14.2026 36.4136 14.1641 36.6488 14.3304L36.6591 14.3365C37.4472 14.8335 37.8489 15.2372 37.8661 15.5475C37.873 15.6855 37.9742 15.793 38.0927 15.7829C38.2077 15.7747 38.297 15.6591 38.2919 15.5232Z" fill="#1D6E65" stroke="#1D6E65" stroke-width="0.6"/>
<path d="M45.2003 28.6266C45.1948 28.4893 45.0912 28.3822 44.9653 28.3843C43.0074 28.4287 41.5621 28.3641 40.6313 28.1884C39.049 27.7037 37.7906 27.2675 36.8561 26.8818C36.3472 26.6798 35.953 26.4456 35.6736 26.177L35.6643 26.1689C35.3479 25.8983 35.1813 25.5207 35.1647 25.04C35.1628 24.9997 35.1628 24.9593 35.1647 24.9169C35.2017 24.2383 35.4052 23.7193 35.7717 23.3578C36.2065 22.9459 37.2947 22.9337 39.0342 23.3174C39.1601 23.3457 39.2803 23.2569 39.3063 23.1216C39.31 23.1014 39.3118 23.0812 39.31 23.061C39.3063 22.9479 39.2322 22.8489 39.1268 22.8247C37.2392 22.4087 36.0196 22.4592 35.47 22.9782C35.0055 23.4346 34.7502 24.0687 34.7039 24.8825C34.702 24.9512 34.7039 25.0077 34.7057 25.0643C34.7261 25.6923 34.9482 26.1891 35.3701 26.5546C35.6921 26.8656 36.1344 27.1302 36.6933 27.3503C37.6445 27.7441 38.9232 28.1864 40.5313 28.6771L40.5536 28.6832C41.514 28.8629 42.9871 28.9315 44.9746 28.8871C45.1023 28.8831 45.2022 28.77 45.2003 28.6306C45.2003 28.6286 45.2003 28.6286 45.2003 28.6266Z" fill="#1D6E65" stroke="#1D6E65" stroke-width="0.6"/>
<path d="M38.2953 27.4974C38.2909 27.3574 38.1695 27.2429 38.0239 27.2429C37.8717 27.2429 37.7482 27.3595 37.7482 27.4952L37.7482 27.5058C37.746 27.8154 37.7283 28.1822 37.6997 28.6042C37.6247 29.2381 37.5695 29.6537 37.5298 29.8509C37.4614 30.1965 37.2651 30.6715 36.9452 31.28C36.9232 31.3224 36.9121 31.3648 36.9143 31.4094C36.9188 31.5026 36.9717 31.5896 37.0643 31.6341C37.1989 31.6998 37.3644 31.649 37.4327 31.5196C37.7791 30.8666 37.9909 30.3428 38.0681 29.9506C38.11 29.7385 38.1695 29.306 38.2467 28.6529C38.2467 28.6508 38.2467 28.6402 38.2467 28.6402C38.2776 28.214 38.2931 27.8409 38.2953 27.5228C38.2953 27.5186 38.2953 27.508 38.2953 27.508C38.2953 27.5037 38.2953 27.4995 38.2953 27.4974Z" fill="#1D6E65" stroke="#1D6E65" stroke-width="0.6"/>
<path d="M38.8416 28.5521C38.8397 28.4674 38.8319 28.3864 38.8241 28.3072C38.8106 28.1856 38.7931 28.0732 38.7679 27.9719C38.7389 27.8485 38.609 27.7712 38.4811 27.7988C38.3648 27.8246 38.2892 27.9222 38.2931 28.0309C38.2931 28.0438 38.2951 28.0585 38.2989 28.0732C38.3183 28.1561 38.3338 28.2501 38.3435 28.355C38.3532 28.4232 38.3571 28.495 38.3609 28.5687C38.3629 28.6129 38.3629 28.6608 38.3629 28.7087C38.3648 28.8836 38.3609 29.0641 38.3513 29.2483C38.3435 29.3864 38.328 29.554 38.3048 29.7493C38.3048 29.7603 38.3048 29.7714 38.3048 29.7824C38.3086 29.8948 38.3978 29.9887 38.5179 30.0016C38.6517 30.0163 38.7699 29.9243 38.7835 29.799C38.8086 29.5946 38.8242 29.4177 38.8319 29.2722C38.8416 29.0789 38.8455 28.891 38.8455 28.7087C38.8455 28.6553 38.8435 28.6018 38.8416 28.5521Z" fill="#1D6E65" stroke="#1D6E65" stroke-width="0.6"/>
<path d="M31.94 16.4239C31.9382 16.3631 31.9149 16.3042 31.872 16.2591C31.7842 16.165 31.6427 16.1669 31.5568 16.265C30.6594 17.2809 29.9359 18.1341 29.3842 18.8225C29.1765 19.0657 28.7162 19.7482 28.0051 20.8661C27.8887 21.0426 27.7401 21.225 27.5592 21.4172C27.0523 21.9076 26.1604 22.4979 24.8834 23.1863C24.801 23.2295 24.7544 23.3216 24.758 23.4138C24.7598 23.4471 24.767 23.4805 24.7813 23.5119C24.835 23.6335 24.9694 23.6825 25.0786 23.6237C26.3986 22.9117 27.3263 22.2959 27.8637 21.7742L27.8708 21.7663C28.0696 21.5545 28.2362 21.3486 28.3687 21.1485C29.0762 20.0365 29.5239 19.3716 29.7138 19.15C30.2654 18.4616 30.9836 17.6143 31.8773 16.6023C31.9221 16.5533 31.9418 16.4886 31.94 16.4239Z" fill="#1D6E65" stroke="#1D6E65" stroke-width="0.6"/>
<path d="M22.547 23.9727C22.5392 23.8469 22.4268 23.7529 22.293 23.76C21.6396 23.7919 20.9455 23.6927 20.2088 23.4606C19.9703 23.3879 19.6892 23.2692 19.3654 23.1062C19.2142 23.0335 18.9408 22.8546 18.5414 22.5675L18.5317 22.5604C18.429 22.4949 18.3417 22.4452 18.2719 22.4151C18.1653 22.3566 17.762 22.222 17.064 22.0076C16.938 21.9686 16.8004 22.0324 16.7577 22.1476C16.75 22.1724 16.7461 22.1989 16.7461 22.2255C16.75 22.3141 16.812 22.3956 16.9109 22.4258C17.5352 22.6171 17.9036 22.7358 18.0121 22.7855C18.0121 22.7819 18.0645 22.812 18.0645 22.812C18.1071 22.8315 18.1672 22.8652 18.2428 22.9148C18.6636 23.2143 18.9602 23.4074 19.1327 23.4925C19.4817 23.6679 19.7881 23.7955 20.0517 23.877C20.8486 24.1268 21.6028 24.2349 22.3182 24.1995C22.45 24.1942 22.5528 24.0914 22.547 23.9727Z" fill="#1D6E65" stroke="#1D6E65" stroke-width="0.6"/>
<path d="M14.5373 21.6823C14.5373 21.6784 14.5351 21.6744 14.5351 21.6685C14.5213 21.5337 14.3842 21.4346 14.2264 21.4465C14.1144 21.4545 13.9773 21.4663 13.8149 21.4802L13.7464 21.4862C13.6686 21.4921 13.5612 21.498 13.4217 21.506C13.2686 21.5139 13.1497 21.6288 13.1565 21.7616C13.1657 21.9043 13.3006 22.0073 13.4583 21.9974C13.6046 21.9895 13.7166 21.9835 13.7966 21.9776L13.8675 21.9716C14.0253 21.9578 14.1624 21.9459 14.279 21.9379C14.4299 21.9241 14.5419 21.8131 14.5373 21.6823Z" fill="#1D6E65" stroke="#1D6E65" stroke-width="0.6"/>
<path d="M38.8452 25.4256C38.842 25.3711 38.8324 25.3186 38.8162 25.2704C38.7872 25.1676 38.7356 25.0543 38.6679 24.9285C38.5906 24.7942 38.3617 24.7229 38.1554 24.7733C37.9845 24.811 37.8845 24.918 37.891 25.0271C37.891 25.0543 37.8974 25.0795 37.9136 25.1068C37.9716 25.2075 38.0103 25.2956 38.0328 25.3732C38.0393 25.3983 38.0425 25.4193 38.0457 25.4445C38.0457 25.4697 38.0457 25.4969 38.0425 25.5284C38.0296 25.5997 38.0103 25.6606 37.9877 25.7067L37.9813 25.7172C37.9555 25.7801 37.8878 25.8892 37.7782 26.0465C37.7524 26.0843 37.7394 26.1241 37.7427 26.164C37.7459 26.2584 37.833 26.3486 37.978 26.3905C38.1779 26.4513 38.4165 26.3926 38.5067 26.2605C38.626 26.0905 38.7066 25.9605 38.7485 25.8724C38.7904 25.7885 38.8227 25.6899 38.8388 25.5766C38.8485 25.5179 38.8485 25.4718 38.8452 25.4256Z" fill="#1D6E65" stroke="#1D6E65" stroke-width="0.6"/>
</svg>
