<svg width="62" height="32" viewBox="0 0 62 32" fill="none" xmlns="http://www.w3.org/2000/svg">
<path d="M60.9304 16.3825C60.9367 16.3436 60.9314 16.3019 60.9123 16.2645C60.7414 15.9234 60.1061 15.7147 59.0068 15.6384C58.4034 15.6111 57.9944 15.6255 57.7743 15.6816C57.5033 15.7507 57.3465 15.9047 57.3022 16.1436C57.2917 16.1997 57.2816 16.2573 57.2728 16.312C57.1253 17.2071 57.1996 17.7669 57.4956 17.9885C57.5088 17.9986 57.5228 18.0101 57.5383 18.0202C57.6861 18.1195 58.0737 18.19 58.7013 18.2346C59.5312 18.2792 60.0676 18.2663 60.3137 18.1958C60.3914 18.1742 60.4454 18.1109 60.4573 18.0375C60.4619 18.0087 60.4603 17.9799 60.4517 17.9511C60.4201 17.8461 60.3072 17.7856 60.1996 17.8158C59.998 17.8734 59.5073 17.8806 58.727 17.8389C58.1746 17.8 57.8551 17.7525 57.7683 17.6935C57.7681 17.6935 57.7488 17.6791 57.7488 17.6791C57.5744 17.564 57.5472 17.1423 57.6672 16.4127C57.6777 16.3494 57.6893 16.2832 57.7022 16.2141C57.7158 16.1407 57.774 16.0903 57.8767 16.0644C58.0566 16.0184 58.4235 16.0083 58.9777 16.0328C59.9214 16.099 60.4445 16.2342 60.547 16.4386C60.5962 16.5365 60.7179 16.5768 60.8188 16.5293C60.8806 16.5005 60.9203 16.4443 60.9304 16.3825Z" fill="#1D6E65" stroke="#1D6E65" stroke-width="0.6"/>
<path d="M44.6361 1.27342C44.6536 1.1645 44.5832 1.05984 44.4746 1.0363C44.0731 0.949409 43.6403 1.01852 43.1762 1.24364L43.1546 1.25596C40.4267 3.01306 38.2525 4.14613 36.6301 4.65486L36.6225 4.65759C35.8763 4.92646 34.7478 5.21463 33.2387 5.52224C29.8594 5.94575 28.0331 6.228 27.7597 6.36882C27.728 6.38538 27.7008 6.40437 27.6796 6.42578L27.6811 6.41743L21.4105 8.99361C20.1008 9.44811 18.9497 9.78276 17.9542 9.9971L17.93 10.0036C15.9662 10.6787 8.97956 9.80706 3.62741 8.46148C3.51713 8.43368 3.6259 8.53744 3.5972 8.64924C3.59569 8.65516 3.59569 8.66138 3.59418 8.66731C3.57756 8.77319 3.45671 8.8461 3.56245 8.87253C8.97201 10.2327 15.9934 11.0981 18.0403 10.4072C19.0554 10.187 20.2277 9.84656 21.557 9.38431L21.5676 9.3802L27.9017 6.7776C27.9228 6.76925 27.941 6.758 27.9576 6.74448L27.9576 6.73627C28.2234 6.61551 30.006 6.34846 33.3022 5.93482C33.3052 5.93436 33.3218 5.93193 33.3218 5.93193C34.8445 5.62128 35.9896 5.32871 36.754 5.05376C38.4066 4.535 40.6079 3.39115 43.3566 1.62204C43.735 1.43641 44.0785 1.37793 44.3873 1.44492C44.4994 1.46907 44.6098 1.39723 44.6341 1.28451C44.6347 1.28087 44.6355 1.27706 44.6361 1.27342ZM28.0286 6.62828C28.024 6.66352 28.0089 6.69238 27.9863 6.71441C28.0089 6.68661 28.0225 6.65318 28.0286 6.61733C28.0316 6.60153 28.0316 6.58528 28.0316 6.56857C28.0331 6.59029 28.0316 6.6102 28.0286 6.62828Z" fill="#1D6E65" stroke="#1D6E65" stroke-width="0.6"/>
<path d="M45.4307 4.19673C45.4669 3.96792 45.4812 3.73469 45.4736 3.49676C45.4215 2.27778 45.0523 1.45657 44.3655 1.03085C44.2684 0.970527 44.1412 1.00137 44.0815 1.09983C44.067 1.12383 44.0578 1.14966 44.0536 1.17579C44.0409 1.25693 44.0763 1.34156 44.1497 1.38714C44.7111 1.73522 45.0149 2.44293 45.0608 3.51028C45.0674 3.71934 45.0548 3.92476 45.0228 4.12653C44.917 4.79505 44.599 5.42421 44.0692 6.01342C43.2134 6.84572 42.3398 7.5068 41.4486 7.99573L41.4423 7.99937C41.0997 8.20372 40.4786 8.48191 39.5783 8.83379C37.7844 9.35174 36.8022 9.66201 36.6325 9.7632C36.613 9.77505 36.5965 9.78766 36.5815 9.80133L36.583 9.79313C35.739 10.2158 35.0873 10.6626 34.6262 11.1336C34.5947 11.1659 34.5752 11.2058 34.5692 11.2474C34.5587 11.3117 34.5782 11.3798 34.6277 11.429C34.7088 11.5103 34.8395 11.5097 34.9191 11.4278C35.3561 10.982 35.9853 10.5548 36.8097 10.1462C36.8218 10.1403 36.8323 10.1333 36.8428 10.1251C36.9824 10.0396 37.939 9.74177 39.7096 9.2296L39.7273 9.22366C40.643 8.86555 41.2825 8.5787 41.6456 8.36325C42.5729 7.85427 43.4795 7.16798 44.3651 6.30453L44.3747 6.2945C44.9602 5.6433 45.3122 4.94425 45.4307 4.19673Z" fill="#1D6E65" stroke="#1D6E65" stroke-width="0.6"/>
<path d="M60.9804 17.015C61.0427 16.6278 60.9615 16.1891 60.7375 15.6971C60.7267 15.6744 60.7119 15.6531 60.6936 15.6349C59.992 14.9456 58.7341 14.3884 56.9205 13.9588L56.9094 13.9572C55.9085 13.7766 54.8323 13.6521 53.6812 13.5822C53.3087 13.5351 51.1596 13.4532 47.234 13.3393C44.7305 13.2239 43.2629 13.1131 42.831 13.0098L42.8172 13.0068C41.6779 12.8143 40.5224 12.5879 39.3505 12.3279C39.3505 12.3274 34.3253 10.8422 34.3253 10.8422C34.01 10.7384 33.0184 10.4985 31.3519 10.1223C31.0793 10.0441 30.8599 9.95178 30.6939 9.84536C30.5949 9.78326 30.4654 9.81181 30.4045 9.90883C30.3877 9.93373 30.3786 9.9609 30.374 9.98822C30.3603 10.0678 30.3953 10.1511 30.4669 10.1973C30.6695 10.326 30.9285 10.4355 31.2423 10.5252L31.2545 10.5284C32.9239 10.9054 33.9034 11.1421 34.2004 11.2403C34.2065 11.2423 39.2454 12.7317 39.2454 12.7317L39.2592 12.7353C40.4333 12.9962 41.591 13.2224 42.7329 13.4167C43.1905 13.526 44.6856 13.6399 47.2181 13.7568C51.2016 13.8722 53.3401 13.9527 53.6371 13.9982L53.6557 13.9997C54.7861 14.0681 55.8424 14.1895 56.8238 14.3656C58.5294 14.7695 59.7093 15.2796 60.3632 15.8975L60.3646 15.8884C60.5363 16.2726 60.5978 16.6157 60.5491 16.9178C60.4726 17.393 60.1262 17.7695 59.5099 18.0489C59.1085 18.2311 58.5976 18.3753 57.977 18.4816C57.4128 18.5651 56.5394 18.6137 55.3569 18.6258L47.8087 18.4497L47.7958 18.4497C45.6221 18.5317 42.4207 18.5545 38.1914 18.515C38.0863 18.515 37.9979 18.5909 37.9827 18.6911C37.9811 18.7017 37.9796 18.7109 37.9796 18.7215C37.9781 18.8369 38.071 18.931 38.1868 18.9325C42.4141 18.972 45.618 18.9507 47.7987 18.8672C47.7988 18.8672 55.354 19.0433 55.354 19.0433C56.5659 19.0312 57.4601 18.9811 58.0435 18.8931C58.7039 18.7807 59.2491 18.6258 59.6832 18.43C60.4526 18.0808 60.8849 17.6086 60.9804 17.015Z" fill="#1D6E65" stroke="#1D6E65" stroke-width="0.6"/>
<path d="M48.804 21.9293C48.8828 21.4519 48.7951 20.9385 48.5418 20.3907C48.2312 19.6363 46.9967 19.0496 44.8381 18.629C44.7237 18.6066 44.6121 18.6799 44.5893 18.7907C44.5887 18.7937 44.5882 18.7967 44.5877 18.7997C44.5699 18.9074 44.6433 19.0107 44.7551 19.0332C46.7719 19.4268 47.9042 19.9312 48.1518 20.5493L48.156 20.5583C48.3682 21.0178 48.4414 21.4489 48.3751 21.85C48.2813 22.4202 47.9071 22.9336 47.2529 23.3886C46.5767 23.8227 45.8986 24.0502 45.2187 24.0726L45.2086 24.0726C44.9936 24.0906 44.6571 24.0921 44.1994 24.0786L39.0953 23.8646L39.0784 23.8646C38.3863 23.8496 37.642 23.899 36.8438 24.0142C36.7516 24.0277 36.6808 24.0981 36.667 24.1849C36.6639 24.2058 36.6624 24.2268 36.667 24.2477C36.6839 24.36 36.7915 24.4378 36.9069 24.4214C37.6835 24.3091 38.4094 24.2612 39.0815 24.2762L44.1837 24.4902C44.6534 24.5037 45.0022 24.5022 45.2332 24.4842C45.9946 24.4588 46.7479 24.2073 47.4925 23.7284L47.4988 23.7239C48.259 23.1941 48.6941 22.5969 48.804 21.9293Z" fill="#1D6E65" stroke="#1D6E65" stroke-width="0.6"/>
<path d="M47.1445 25.9813L47.1522 25.9274C47.1737 25.1707 46.7706 24.5594 45.9432 24.0969C45.8418 24.0397 45.7173 24.0838 45.6651 24.1933C45.6548 24.2145 45.648 24.2374 45.6447 24.2603C45.6309 24.3535 45.6728 24.4499 45.7542 24.4957C46.4149 24.865 46.7433 25.3276 46.7397 25.8833L46.7383 25.8931C46.482 26.8623 45.9949 27.5209 45.2768 27.8642C44.6578 28.1453 43.7642 28.3365 42.5964 28.4395C42.2538 28.4705 41.777 28.4983 41.1659 28.5195C38.8672 28.5359 37.1502 28.5816 36.0175 28.6585C35.9198 28.665 35.8417 28.7451 35.8267 28.8464C35.8237 28.8628 35.8237 28.8791 35.8252 28.8971C35.8312 29.0197 35.9289 29.1145 36.043 29.1063C37.1697 29.0311 38.8792 28.9853 41.1743 28.969C41.7966 28.9461 42.2801 28.92 42.6301 28.8889C43.8439 28.7811 44.7803 28.5767 45.4397 28.2777C46.2886 27.8707 46.8555 27.1058 47.1445 25.9813Z" fill="#1D6E65" stroke="#1D6E65" stroke-width="0.6"/>
<path d="M43.7777 29.7156C43.8366 29.3482 43.7646 28.9258 43.5615 28.4486C43.5161 28.3434 43.3929 28.293 43.2867 28.3388C43.218 28.3678 43.1731 28.4303 43.1618 28.4989C43.1559 28.537 43.1601 28.5766 43.1763 28.6132C43.337 28.9899 43.394 29.3238 43.3473 29.615C43.2751 30.0663 42.9533 30.414 42.382 30.6579C42.1794 30.7449 41.9468 30.8196 41.6841 30.8821C40.4009 31.0971 38.9487 31.2069 37.3264 31.2099C33.1343 31.1931 30.461 31.1123 29.3063 30.9675C28.7168 30.8943 28.1791 30.7769 27.6916 30.6153L21.4919 28.3967C20.5033 28.0552 18.3052 27.0565 14.893 25.399C14.2852 25.1246 13.6698 24.8974 13.0422 24.7159C12.3019 24.5085 11.5235 24.3698 10.707 24.2997C9.74736 24.1929 4.07312 23.4382 1.19412 23.243C0.889461 23.2186 1.27638 23.2857 1.19259 23.2582C1.08292 23.2216 1.20021 23.3208 1.16518 23.4305C1.16061 23.4412 1.1606 23.4519 1.15908 23.4626C1.14385 23.5632 1.02808 23.6349 1.12709 23.6669C1.24286 23.705 0.788924 23.6288 1.12862 23.6562C4.00762 23.8514 9.71537 24.6107 10.6659 24.7175C11.4611 24.7845 12.2136 24.9187 12.9265 25.12C13.5327 25.2953 14.1268 25.5134 14.7102 25.7756C18.1346 27.4392 20.3479 28.444 21.3502 28.7916L27.5545 31.0117C28.074 31.184 28.6376 31.3075 29.253 31.3837C30.4259 31.5317 33.1176 31.6125 37.3264 31.6292C38.9776 31.6262 40.4581 31.5149 41.7679 31.2938L41.7819 31.2907C42.0678 31.2221 42.3226 31.1398 42.5464 31.0437C43.2754 30.7327 43.6858 30.289 43.7777 29.7156Z" fill="#1D6E65" stroke="#1D6E65" stroke-width="0.6"/>
<path d="M45.0331 2.09473C45.0833 1.77522 45.0539 1.46014 44.9447 1.14965C44.9034 1.03231 44.7762 0.971259 44.6607 1.01327C44.5816 1.04182 44.5284 1.11141 44.516 1.19018C44.5103 1.22628 44.5133 1.26468 44.5263 1.30161C44.6089 1.53611 44.6305 1.77703 44.5916 2.02417C44.5446 2.32186 44.4095 2.62889 44.1861 2.94495L44.1723 2.96744C43.9628 3.35276 43.3491 3.85066 42.3316 4.46048C42.0379 4.61818 41.8405 4.71106 41.7392 4.73896C41.7036 4.74815 41.6688 4.7429 41.6354 4.72255C41.5971 4.6853 41.5609 4.63868 41.5275 4.58059C41.28 3.98144 41.0474 3.55888 40.83 3.30911C40.7487 3.21573 40.6084 3.20703 40.5165 3.28957C40.4764 3.32535 40.4522 3.37295 40.4442 3.42267C40.4341 3.48716 40.4512 3.55543 40.4971 3.60794C40.6857 3.82473 40.897 4.21612 41.1309 4.78196L41.144 4.8087C41.213 4.92817 41.2941 5.02401 41.3871 5.09589C41.3924 5.09999 41.4088 5.11066 41.4088 5.11066C41.5493 5.19551 41.6977 5.217 41.8539 5.17499L41.8895 5.16203C42.0269 5.12018 42.2468 5.01679 42.5485 4.85433L42.5573 4.84941C43.624 4.21005 44.2871 3.66406 44.5467 3.21162C44.8134 2.83106 44.9754 2.46003 45.0331 2.09473Z" fill="#1D6E65" stroke="#1D6E65" stroke-width="0.6"/>
<path d="M36.2408 21.7533C36.2463 21.7228 36.2422 21.691 36.2273 21.6605C36.1853 21.575 36.0768 21.5359 35.9819 21.5738C35.9331 21.5921 35.8829 21.608 35.8314 21.619L35.9033 21.6165L35.8111 21.6239C35.7921 21.6263 35.7555 21.6312 35.704 21.6385C35.6769 21.6397 35.6498 21.6422 35.6226 21.6422C35.5915 21.6434 35.563 21.6434 35.5332 21.6422L35.5223 21.6422C35.5061 21.6409 35.464 21.6373 35.3962 21.6287C35.3393 21.6214 35.2824 21.6092 35.2254 21.5933C35.1265 21.5652 35.0221 21.6153 34.9923 21.7044C34.9895 21.7118 34.9882 21.7191 34.9868 21.7277C34.9719 21.8083 35.0261 21.8888 35.1156 21.9145C35.1902 21.9353 35.2661 21.9511 35.3434 21.9621C35.4288 21.9719 35.4844 21.9768 35.5128 21.978C35.5521 21.9792 35.5901 21.9792 35.6267 21.978C35.6701 21.9768 35.7094 21.9756 35.746 21.9719L35.7541 21.9707C35.8301 21.9609 35.8829 21.9536 35.91 21.9475C35.9914 21.9291 36.0619 21.9084 36.131 21.8815C36.1907 21.8571 36.2313 21.8082 36.2408 21.7533Z" fill="#1D6E65" stroke="#1D6E65" stroke-width="0.6"/>
<path d="M34.5669 26.4394C34.5732 26.4137 34.5653 26.3864 34.5403 26.3625C34.4824 26.3062 34.3508 26.2865 34.2475 26.319C34.1285 26.3557 33.9907 26.3651 33.8325 26.3472C33.795 26.3437 33.7605 26.3386 33.7276 26.3335L33.7151 26.3326C33.6963 26.3292 33.6525 26.3198 33.5789 26.3045C33.5507 26.2976 33.5225 26.29 33.4959 26.2814L33.2188 26.1892C33.117 26.1551 32.9839 26.173 32.9228 26.2285C32.9072 26.2413 32.8978 26.2558 32.8931 26.2703C32.8805 26.3164 32.9166 26.3642 32.9933 26.3898L33.2783 26.4846L33.2861 26.4863C33.3268 26.4991 33.3691 26.5102 33.4129 26.5205C33.5069 26.5418 33.5679 26.5537 33.6024 26.5589C33.6055 26.5589 33.6086 26.5597 33.6102 26.5597C33.6556 26.5665 33.6995 26.5725 33.7449 26.5776C34.0095 26.6075 34.2475 26.5887 34.4604 26.523C34.5199 26.5042 34.5559 26.4735 34.5669 26.4394Z" fill="#1D6E65" stroke="#1D6E65" stroke-width="0.6"/>
</svg>
