<svg width="74" height="38" viewBox="0 0 74 38" fill="none" xmlns="http://www.w3.org/2000/svg">
<path d="M23.5268 1.01387C24.193 1.05124 28.2457 2.1172 35.685 4.20979C39.3769 5.10072 41.9009 5.66125 43.2532 5.88939L43.2908 5.89922C43.8242 6.03492 44.2584 6.18833 44.5935 6.3614L44.655 6.40467C50.3573 11.5024 59.4166 16.8558 71.8306 22.461L71.8682 22.4807C72.9766 23.1848 73.2681 24.0324 72.7426 25.0217L72.699 25.0826C71.6065 26.2607 70.167 26.7996 68.3766 26.7013C67.6489 26.66 66.8638 26.5144 66.0211 26.2627C64.5281 25.9736 61.7205 24.7463 57.6063 22.581H57.6182C54.0413 21.4737 51.2298 20.3389 49.1855 19.1766C48.6819 18.9878 48.1486 18.854 47.5974 18.7754C47.0462 18.7065 46.495 18.6554 45.9418 18.6259C43.0648 18.4666 40.172 18.8383 37.2633 19.7391C37.2276 19.7489 37.1939 19.7528 37.1582 19.7509C37.0412 19.745 36.9322 19.6663 36.8965 19.5483C36.8469 19.3949 36.9341 19.2316 37.0888 19.1844C40.0649 18.262 43.0271 17.8825 45.9735 18.0457C46.5406 18.0772 47.1076 18.1283 47.6727 18.1991C48.2715 18.2856 48.8445 18.4292 49.3977 18.6318L49.4413 18.6534C51.4518 19.802 54.2356 20.925 57.7927 22.0264L57.8442 22.048C61.9267 24.1996 64.6927 25.415 66.1401 25.6943L66.1678 25.7002C66.9688 25.9401 67.7104 26.0798 68.3944 26.1171C69.9806 26.2037 71.2516 25.7494 72.2112 24.7503H72.2231C72.578 24.0855 72.3639 23.4975 71.5827 22.9901C59.1529 17.3731 50.0599 12.002 44.308 6.87668H44.3239C44.0284 6.72525 43.6378 6.58756 43.1501 6.46169C41.7859 6.23159 39.246 5.66715 35.5343 4.77229L35.5244 4.76835C28.2299 2.71509 24.2426 1.65897 23.5625 1.59603H23.5466C23.5089 1.6098 23.4673 1.61569 23.4257 1.61372C23.4217 1.61372 23.4177 1.61372 23.4138 1.61372C23.3325 1.60585 23.2472 1.59995 23.158 1.59405C22.5889 1.56258 21.8514 1.59012 20.9472 1.67272C15.1774 2.47908 8.327 3.95608 7.58744 3.98952C5.40839 4.17439 3.15005 4.33173 1.22083 4.34353C1.06618 4.32976 1.11774 4.15472 1.11774 3.99935C1.11576 3.84005 0.899635 3.81056 1.06024 3.8086C2.97755 3.79679 5.38067 3.59421 7.5498 3.40933H7.56168C8.28143 3.3759 15.1179 1.90087 20.8798 1.09648L20.8937 1.09451C21.8256 1.00798 22.5929 0.980434 23.1917 1.01387C23.2571 1.0178 23.3206 1.02174 23.3821 1.02764C23.386 1.02567 23.39 1.02567 23.3939 1.0237C23.4197 1.0178 23.4495 1.01387 23.4832 1.01387C23.4951 1.01387 23.5089 1.01387 23.5268 1.01387ZM23.7052 1.45049C23.6953 1.47408 23.6795 1.49572 23.6636 1.51538H23.6775C23.6973 1.49768 23.7112 1.47605 23.7211 1.45049H23.7052Z" fill="#1D6E65" stroke="#1D6E65" stroke-width="0.6"/>
<path d="M20.5159 14.1484C20.5718 14.1524 20.6278 14.1703 20.6758 14.2062C20.8057 14.304 20.8336 14.4896 20.7357 14.6193C19.7224 15.9702 20.0821 17.5786 21.817 19.4464C21.825 19.4464 25.7564 22.0026 25.7564 22.0026L25.7724 22.0145L30.5212 26.213L30.5372 26.215C33.9869 28.1307 36.3673 29.6752 37.6825 30.8505C39.4713 32.2913 41.3061 33.9874 43.1828 35.939C43.4786 36.1944 43.7444 36.3501 43.9783 36.4099C44.2861 36.364 44.5639 36.3002 44.8117 36.2164C46.3747 35.6896 46.7784 34.3067 46.0249 32.0658C45.6951 31.2456 45.1355 30.3756 44.346 29.4557L44.3401 29.4477C43.7405 28.6934 42.4153 27.4083 40.3627 25.5964L40.3427 25.5765C39.925 25.1335 39.3793 24.4071 38.7078 23.3994C37.8524 22.244 36.817 19.8095 35.5998 16.094C35.5499 15.9403 35.6338 15.7747 35.7877 15.7228C35.8237 15.7108 35.8617 15.7068 35.8977 15.7088C36.0156 15.7148 36.1215 15.7926 36.1615 15.9124C37.3587 19.5661 38.366 21.9447 39.1815 23.0502L39.1895 23.0622C39.849 24.0479 40.3747 24.7503 40.7724 25.1734C42.8411 26.9992 44.1842 28.3023 44.8018 29.0805C45.6292 30.0464 46.2208 30.9683 46.5726 31.8463L46.5786 31.8622C47.466 34.4843 46.9383 36.1206 44.9996 36.7751C44.7018 36.8749 44.372 36.9507 44.0083 37.0006C43.9883 37.0026 43.9703 37.0046 43.9503 37.0026C43.9363 37.0026 43.9223 37.0006 43.9104 36.9966C43.5546 36.9268 43.1768 36.7152 42.7751 36.364L42.7571 36.3481C40.8923 34.4105 39.0735 32.7283 37.3007 31.2995L37.2887 31.2895C35.9976 30.1361 33.6292 28.6036 30.1834 26.692L30.1295 26.656L25.3886 22.4635L21.4212 19.8794L21.3853 19.8475C19.4266 17.7382 19.0528 15.8785 20.262 14.2661C20.324 14.1843 20.4199 14.1424 20.5159 14.1484Z" fill="#1D6E65" stroke="#1D6E65" stroke-width="0.6"/>
<path d="M18.85 16.1536C19.2846 16.1806 19.6568 16.2685 19.9628 16.415C20.1109 16.4848 20.1791 16.6785 20.1187 16.8497C20.0719 16.9827 19.955 17.0615 19.838 17.0547C19.8049 17.0525 19.7737 17.0435 19.7426 17.03C19.4912 16.9106 19.1813 16.8385 18.813 16.8137C18.1231 16.7687 17.2286 16.8948 16.1333 17.1899C14.3599 17.7576 6.50812 20.4678 5.92153 20.7449C5.18097 21.0806 7.00702 20.6458 6.05794 21.2721C6.00727 21.3059 6.10863 21.2676 6.05406 21.2631C5.96052 21.2563 6.04626 21.1369 5.99754 21.0355C5.91764 20.8756 5.75979 20.7427 5.89816 20.6525C6.86867 20.0105 4.99196 20.4566 5.7598 20.1096C6.36783 19.8213 14.1884 17.1223 15.9911 16.5456L16.0028 16.5411C17.1467 16.2347 18.0958 16.104 18.85 16.1536Z" fill="#1D6E65" stroke="#1D6E65" stroke-width="0.6"/>
<path d="M49.8781 10.1442C49.9199 10.1462 49.9616 10.1583 50.0014 10.1804C52.6588 11.6379 55.8314 12.9406 59.5171 14.0926C62.8787 15.0575 66.8508 15.9602 71.4337 16.8005L71.3979 16.7965L71.4416 16.8025C72.0383 16.9312 72.4779 17.08 72.7604 17.2448L72.8081 17.281C73.7947 18.1716 73.8186 19.1466 72.8797 20.2081C72.8002 20.2985 72.7126 20.389 72.6171 20.4815L72.6052 20.4916C71.8991 21.1047 70.6738 21.364 68.9274 21.2655C68.7146 21.2535 68.4918 21.2354 68.2611 21.2133C68.1 21.1972 67.9826 21.0504 67.9966 20.8876C68.0125 20.7288 68.1497 20.6122 68.3068 20.6202C68.3108 20.6202 68.3148 20.6202 68.3188 20.6222C68.5495 20.6443 68.7703 20.6624 68.9812 20.6725C70.5446 20.7609 71.6207 20.5539 72.2114 20.0513C72.295 19.9709 72.3705 19.8905 72.4421 19.8121C73.1065 19.0602 73.1104 18.3767 72.456 17.7575L72.466 17.7595C72.2372 17.6248 71.8573 17.5001 71.3283 17.3835C66.7255 16.5412 62.7315 15.6325 59.3501 14.6615C55.6205 13.4975 52.4122 12.1787 49.721 10.7011C49.5797 10.6227 49.526 10.4438 49.6036 10.299C49.6593 10.1945 49.7687 10.1382 49.8781 10.1442Z" fill="#1D6E65" stroke="#1D6E65" stroke-width="0.6"/>
<path d="M43.3293 31.007C43.4857 31.0145 43.6362 31.067 43.7809 31.1645L43.8298 31.2057C44.993 32.43 45.6479 33.4237 45.7945 34.183L45.7985 34.2486C45.9764 35.3098 45.7066 36.0279 44.9989 36.3991C44.95 36.4254 44.8972 36.4366 44.8444 36.4329C44.7486 36.4291 44.6567 36.3767 44.6079 36.2904C44.5297 36.1554 44.5824 35.9885 44.7212 35.9135C45.2041 35.6604 45.3723 35.1149 45.2256 34.2805L45.2217 34.2187L45.212 34.2168C45.0614 33.5756 44.471 32.7094 43.4407 31.6182H43.4505C43.3977 31.5826 43.3449 31.5638 43.2921 31.5619C43.2648 31.5601 43.2374 31.5619 43.21 31.5694C43.079 31.6126 42.8288 31.7457 42.4613 31.9707L42.4495 31.9763C41.9588 32.2838 41.4544 32.7412 40.9364 33.3543C40.8757 33.4256 40.7839 33.4593 40.6959 33.4556C40.6373 33.4518 40.5786 33.4312 40.5297 33.3937C40.4066 33.2981 40.387 33.1237 40.4887 33.0037C41.0478 32.3419 41.6011 31.8432 42.1485 31.5038L42.1602 31.4963C42.5766 31.2432 42.8738 31.0895 43.0497 31.037L43.0615 31.0351C43.1533 31.0107 43.2413 31.0013 43.3293 31.007Z" fill="#1D6E65" stroke="#1D6E65" stroke-width="0.6"/>
<path d="M68.2027 21.2826C68.2435 21.2847 68.2842 21.2972 68.3213 21.3222C68.4527 21.4056 68.499 21.5933 68.425 21.7413C68.1731 22.2375 68.0694 22.5482 68.112 22.6733L68.1416 22.7295C68.2138 22.9109 68.5694 23.1465 69.2102 23.4363C69.7731 23.6573 70.2509 23.7803 70.6472 23.8053C70.7639 23.8116 70.8713 23.8116 70.9732 23.8012C71.3695 23.7324 71.6898 23.528 71.938 23.1861L71.9454 23.1757C72.0028 23.1048 72.0843 23.0694 72.1658 23.0735C72.2213 23.0777 72.2769 23.1006 72.3232 23.1444C72.4399 23.2508 72.4565 23.4447 72.3547 23.5864C72.0195 24.043 71.588 24.3161 71.0621 24.41L71.0454 24.412C70.9121 24.4266 70.7713 24.4287 70.6213 24.4183C70.1676 24.3912 69.6324 24.2557 69.0176 24.0117L69.0065 24.0076C68.2768 23.6782 67.8324 23.3571 67.6713 23.0402C67.6453 22.9964 67.6212 22.9484 67.6027 22.8942C67.4972 22.5898 67.6138 22.1041 67.949 21.4369C68.0027 21.3327 68.1027 21.2764 68.2027 21.2826Z" fill="#1D6E65" stroke="#1D6E65" stroke-width="0.6"/>
<path d="M69.2813 16.7128C69.3102 16.7149 69.3391 16.721 69.368 16.7333C69.5145 16.7926 69.5877 16.9686 69.5299 17.124C69.3353 17.66 69.2505 17.9975 69.2775 18.1407L69.2813 18.2143C69.2813 18.2082 69.2967 18.2082 69.2967 18.2082C69.3256 18.2532 69.3931 18.2818 69.4971 18.2941H69.5067C69.7958 18.335 70.0771 18.3637 70.3469 18.378C70.9962 18.4169 71.5935 18.3862 72.1388 18.2839C72.6706 18.1591 72.9577 17.9525 73.0001 17.662C73.0232 17.5066 73.1543 17.3981 73.2969 17.4084C73.3065 17.4084 73.3161 17.4084 73.3277 17.4104C73.4818 17.437 73.5878 17.5925 73.5627 17.7561C73.478 18.3187 73.0444 18.691 72.2621 18.873L72.2506 18.8771C71.659 18.9876 71.0155 19.0224 70.316 18.9815C70.0328 18.9651 69.7399 18.9365 69.4393 18.8935C69.0019 18.8485 68.7591 18.6296 68.7148 18.2327L68.7129 18.1816C68.6898 17.9157 68.7881 17.4902 69 16.9051C69.0462 16.7804 69.1619 16.7067 69.2813 16.7128Z" fill="#1D6E65" stroke="#1D6E65" stroke-width="0.6"/>
<path d="M41.8412 7.00251C41.843 7.00251 41.8464 7.00251 41.8499 7.00251C42.0516 7.02211 42.3194 7.09691 42.6533 7.22873C42.9124 7.34273 43.175 7.48346 43.4498 7.65982C43.5698 7.73641 43.6063 7.89851 43.5315 8.02143C43.4793 8.10515 43.3889 8.14969 43.2985 8.14434C43.2568 8.14256 43.215 8.13009 43.1768 8.10515C42.9281 7.94661 42.6916 7.81836 42.4673 7.72039C42.1786 7.60638 41.9578 7.54047 41.803 7.52622C41.6621 7.51375 41.5578 7.38549 41.5717 7.2412C41.5839 7.10048 41.7039 6.99361 41.8412 7.00251Z" fill="#1D6E65" stroke="#1D6E65" stroke-width="0.6"/>
<path d="M48.9583 16.7145C48.9932 16.7145 49.0251 16.718 49.0571 16.7233C49.2835 16.7636 49.4142 16.9072 49.3474 17.0439C49.2835 17.1753 49.2661 17.3189 49.2951 17.4731C49.3126 17.5835 49.3445 17.6886 49.3852 17.7884L49.3968 17.8655H49.42C49.4461 17.9163 49.4868 17.9882 49.5419 18.0828C49.6203 18.2177 49.5042 18.3648 49.2806 18.4121C49.2254 18.4244 49.1674 18.4296 49.1122 18.4279C48.9467 18.4226 48.7928 18.3561 48.7319 18.2562C48.6331 18.0828 48.5692 17.9654 48.5489 17.9041L48.5402 17.8357H48.5228C48.4879 17.7359 48.4589 17.6343 48.4415 17.5292C48.4008 17.3067 48.4298 17.0964 48.5257 16.8985C48.5808 16.7811 48.7667 16.7075 48.9583 16.7145Z" fill="#1D6E65" stroke="#1D6E65" stroke-width="0.6"/>
<path d="M58.1233 20.7126C58.1926 20.715 58.2599 20.7429 58.314 20.7941C58.4484 20.9174 58.4636 21.1339 58.3487 21.2781C58.1255 21.5597 57.9802 21.853 57.9174 22.1579C57.8805 22.3231 57.7396 22.4348 57.5857 22.4255C57.5684 22.4232 57.5511 22.4208 57.5337 22.4162C57.3603 22.3743 57.2519 22.1904 57.2909 22.0066C57.3798 21.59 57.5706 21.1967 57.8632 20.8313C57.9304 20.7452 58.0279 20.7057 58.1233 20.7126Z" fill="#1D6E65" stroke="#1D6E65" stroke-width="0.6"/>
</svg>
