<svg width="52" height="42" viewBox="0 0 52 42" fill="none" xmlns="http://www.w3.org/2000/svg">
<path d="M2.48334 1.00018C2.52034 1.00213 2.44632 1.00636 2.48171 1.02537C3.51284 1.59295 5.93705 2.32253 9.02724 3.17658L9.05621 3.18682C9.60636 3.41609 13.8612 4.23148 21.8223 5.63247L21.848 5.63815C29.6692 7.8698 35.6324 9.34376 39.7425 10.0597L39.7634 10.0646C40.5806 10.2843 41.1999 10.5338 41.623 10.8132C42.1425 11.1047 42.5945 11.5478 42.979 12.1427C48.0108 19.6005 50.6844 23.7863 50.9964 24.6996L51.0045 24.7001C51.4983 25.2521 51.0527 28.0876 49.6693 33.2067C49.6564 33.2557 49.6291 33.2998 49.5905 33.3332L44.6986 37.622L44.6858 37.6334C44.3882 37.8625 44.0954 37.9681 43.8107 37.9535C43.5597 37.9405 43.312 37.8333 43.0707 37.6318L43.0514 37.6139C42.4305 36.9818 42.1811 36.0091 42.3034 34.6962C42.3838 33.6478 42.9951 32.3646 44.134 30.8465L44.1437 30.8471C44.6938 28.7458 44.9319 27.5058 44.8547 27.1271L44.8643 27.1276C44.7968 27.1176 44.734 27.0795 44.6922 27.0193L41.5473 22.4244L41.557 22.4249C38.6132 22.1732 36.5911 21.81 35.4876 21.3357C35.3589 21.2802 35.2994 21.129 35.3541 20.9982C35.3975 20.8962 35.4973 20.8366 35.6018 20.8421C35.6308 20.8436 35.6598 20.8502 35.6871 20.8622C36.7536 21.321 38.7612 21.674 41.7098 21.9215C41.7854 21.9279 41.8546 21.9683 41.898 22.0317L45.0365 26.6185L45.0461 26.619C45.1555 26.6484 45.2375 26.7199 45.2922 26.8336C45.4788 27.2218 45.2568 28.6134 44.6279 31.0082C44.6198 31.041 44.6054 31.0717 44.5844 31.0985C43.4761 32.5624 42.8857 33.7749 42.8117 34.736C42.7024 35.8957 42.9034 36.7332 43.4133 37.2515C43.5517 37.3588 43.6917 37.4173 43.8332 37.4238C44.0053 37.4335 44.1823 37.3702 44.3641 37.2337C44.3657 37.2337 49.1867 33.007 49.1867 33.007L49.1948 33.0075C50.5267 28.0698 51.0061 25.4182 50.6345 25.0522C50.5766 25.0158 50.5364 24.9586 50.5219 24.893C50.3707 24.2307 47.7165 20.0759 42.556 12.4285C42.2101 11.894 41.8128 11.5039 41.3607 11.254L41.343 11.2434C40.9698 10.9964 40.4052 10.7706 39.6508 10.5663C35.5327 9.84829 29.5566 8.37239 21.729 6.13895C13.8435 4.75063 9.56131 3.92859 8.8873 3.6725C5.76494 2.80838 3.5241 2.07522 2.45758 1.48879C2.33371 1.42087 2.40773 1.27089 2.4753 1.1461C2.52356 1.05624 2.38843 0.995308 2.48334 1.00018Z" fill="#1D6E65" stroke="#1D6E65" stroke-width="0.6"/>
<path d="M15.9474 15.2033C15.9523 15.2037 15.9588 15.204 15.9637 15.2046C16.1059 15.2212 16.2072 15.3496 16.1908 15.4918C16.0422 16.7831 16.3411 17.9264 17.091 18.9217C17.1253 18.9675 17.1433 19.0227 17.1433 19.0781L17.1531 19.0788C17.5256 19.4643 19.2084 20.6996 22.1998 22.7847L22.2194 22.7999C23.4153 23.8166 24.3351 24.6939 24.9772 25.4322C25.2811 25.7712 25.5866 26.2134 25.8921 26.7588L25.8986 26.773C27.9849 31.0962 29.2479 33.5026 29.6873 33.9918C31.46 35.5023 33.2359 37.4414 35.0183 39.8102C35.3957 40.1734 35.7176 40.3959 35.9904 40.4744C37.3726 40.0818 38.0032 38.8859 37.8823 36.8901C37.7761 36.1306 37.5114 35.3748 37.0867 34.623C36.6602 33.842 35.9724 32.9424 35.0167 31.921L35.0085 31.9115C35.0085 31.9112 35.002 31.9028 35.002 31.9028C34.8713 31.7366 34.7634 31.5012 34.6769 31.1968L34.6671 31.149C34.3926 28.1496 33.7979 25.0915 32.8863 21.9746L32.8781 21.9398C32.7114 20.8107 32.7327 20.0017 32.9434 19.5128C32.9875 19.4105 33.0888 19.3511 33.1934 19.3565C33.2244 19.358 33.2538 19.3649 33.2832 19.3773C33.4139 19.4339 33.4744 19.5864 33.4189 19.7176C33.2473 20.1166 33.2375 20.8321 33.3894 21.8639C34.3076 25.0008 34.9056 28.0799 35.1833 31.1017C35.2536 31.3178 35.3271 31.4788 35.4088 31.5845C36.3874 32.631 37.0964 33.5598 37.5392 34.3712C37.995 35.1793 38.2809 35.995 38.3953 36.8182L38.3969 36.8378C38.5423 39.1591 37.763 40.5447 36.0574 40.993C36.0312 41.0011 36.0051 41.0028 35.9789 41.0011C35.9642 41.0011 35.9496 40.9995 35.9348 40.9962C35.5476 40.9095 35.1131 40.6265 34.6311 40.1505L34.605 40.1227C32.8356 37.7719 31.076 35.8512 29.3279 34.3624L29.3034 34.3383C28.8312 33.813 27.5438 31.3712 25.4395 27.0123C25.152 26.4988 24.8694 26.0867 24.59 25.7756L24.5606 25.7349C23.9332 25.027 23.0494 24.1857 21.9025 23.2097C18.6202 20.9209 16.8721 19.6135 16.6564 19.2875C16.6221 19.2343 16.6009 19.183 16.5944 19.1331L16.6042 19.1336C15.8265 18.0519 15.5177 16.818 15.6778 15.4322C15.6925 15.2956 15.8118 15.1963 15.9474 15.2033Z" fill="#1D6E65" stroke="#1D6E65" stroke-width="0.6"/>
<path d="M6.19548 16.3555C7.5609 16.4515 8.73478 16.5721 9.72201 16.7172L10.9073 16.88L10.9172 16.8815L12.15 17.0987C12.1549 17.0997 14.65 17.5958 14.65 17.5958C15.3196 17.7195 15.9106 17.906 16.4214 18.1554C16.5507 18.2189 16.6064 18.3803 16.5458 18.516C16.5 18.6189 16.4001 18.6775 16.297 18.672C16.2659 18.6703 16.2331 18.6621 16.202 18.647C15.7321 18.4173 15.1837 18.2448 14.5566 18.1292C14.5534 18.1287 12.0616 17.6333 12.0616 17.6333L10.8353 17.4171L9.6516 17.2547C8.67583 17.1114 7.51832 16.9923 6.17418 16.8974L6.16437 16.8969C5.46692 16.8659 1.52127 16.661 1.27897 16.6585C0.427624 16.6424 1.83727 16.7528 1.27407 16.7612C1.19385 16.7612 1.37231 16.7727 1.27407 16.7676C1.28226 16.7679 1.26589 16.7671 1.27407 16.7676C1.13164 16.7594 1.27897 16.6453 1.28715 16.4959C1.29534 16.3465 1.15783 16.2181 1.30026 16.226C1.30845 16.2263 1.29208 16.2254 1.30026 16.226C1.38867 16.2306 1.2315 16.2205 1.30026 16.2206C1.86837 16.2124 0.450571 16.1011 1.30519 16.1174C1.55404 16.1199 5.48657 16.3238 6.19548 16.3555Z" fill="#1D6E65"/>
<path d="M1.27407 16.7676C1.37231 16.7727 1.19385 16.7612 1.27407 16.7612C1.83727 16.7528 0.427624 16.6424 1.27897 16.6585C1.52127 16.661 5.46692 16.8659 6.16437 16.8969L6.17418 16.8974C7.51832 16.9923 8.67583 17.1114 9.6516 17.2547L10.8353 17.4171L12.0616 17.6333C12.0616 17.6333 14.5534 18.1287 14.5566 18.1292C15.1837 18.2448 15.7321 18.4173 16.202 18.647C16.2331 18.6621 16.2659 18.6703 16.297 18.672C16.4001 18.6775 16.5 18.6189 16.5458 18.516C16.6064 18.3803 16.5507 18.2189 16.4214 18.1554C15.9106 17.906 15.3196 17.7195 14.65 17.5958C14.65 17.5958 12.1549 17.0997 12.15 17.0987L10.9172 16.8815L10.9073 16.88L9.72201 16.7172C8.73478 16.5721 7.5609 16.4515 6.19548 16.3555C5.48657 16.3238 1.55404 16.1199 1.30519 16.1174C0.450571 16.1011 1.86837 16.2124 1.30026 16.2206C1.2315 16.2205 1.38867 16.2306 1.30026 16.226M1.27407 16.7676C1.28226 16.7679 1.26589 16.7671 1.27407 16.7676ZM1.27407 16.7676C1.13164 16.7594 1.27897 16.6453 1.28715 16.4959C1.29534 16.3465 1.15783 16.2181 1.30026 16.226M1.30026 16.226C1.30845 16.2263 1.29208 16.2254 1.30026 16.226Z" stroke="#1D6E65" stroke-width="0.6"/>
<path d="M36.7978 17.5443C36.8155 17.5453 36.8317 17.5485 36.8493 17.5538C36.9729 17.5927 37.045 17.7378 37.0112 17.8778C36.8685 18.4579 36.6669 18.9366 36.4094 19.314C36.2357 19.5791 36.0606 19.8142 35.887 20.0195L35.8811 20.0271L34.9556 21.0315C34.829 21.1992 34.6687 21.4543 34.4744 21.7966C34.1949 22.3279 34.036 22.8442 33.9977 23.3462C33.9874 23.488 33.8785 23.5939 33.7534 23.5866C33.7505 23.5864 33.749 23.5862 33.7461 23.5859C33.6181 23.5736 33.5224 23.4461 33.5342 23.3013C33.5783 22.7165 33.7593 22.1228 34.0786 21.5197L34.0831 21.5129C34.2891 21.1472 34.4641 20.871 34.6069 20.6844C34.6069 20.6845 34.6319 20.652 34.6319 20.652L35.5574 19.6476C35.7163 19.4596 35.8767 19.2425 36.0371 18.9965C36.2607 18.669 36.4359 18.2505 36.5624 17.7366C36.5918 17.6158 36.6919 17.5382 36.7978 17.5443Z" fill="#1D6E65" stroke="#1D6E65" stroke-width="0.6"/>
<path d="M34.8616 20.9232L35.0139 20.9792C35.1909 21.0439 35.4317 21.0213 35.5546 20.9287C35.6775 20.8363 35.6357 20.7089 35.4588 20.6442L35.3064 20.5882C35.1319 20.5235 34.8886 20.5461 34.7657 20.6386C34.6428 20.7312 34.6846 20.8585 34.8616 20.9232Z" fill="#1D6E65" stroke="#1D6E65" stroke-width="0.6"/>
<path d="M41.5548 21.9427C41.656 21.9478 41.7505 22.0086 41.7887 22.1043C41.9976 22.6367 41.9081 24.1464 41.5217 26.6332C41.2945 28.0935 40.9727 29.0505 40.5565 29.5039C40.1253 30.0107 39.4652 30.3502 38.5763 30.5221C38.1584 30.6044 37.772 30.6539 37.4154 30.6713L37.4021 30.6716C35.7172 30.6765 34.7702 30.7073 34.5646 30.7642C34.5347 30.7724 34.5065 30.7755 34.4783 30.7741C34.3689 30.7688 34.271 30.6998 34.2395 30.5957C34.1981 30.4643 34.2777 30.3265 34.417 30.2879C34.6707 30.218 35.6591 30.1806 37.3822 30.1753C37.7189 30.1596 38.0788 30.1132 38.4702 30.0362C39.2413 29.8872 39.8019 29.6042 40.1518 29.187L40.1601 29.1788C40.5084 28.7982 40.7903 27.9255 41.0026 26.5608C41.3757 24.1583 41.4736 22.7303 41.2961 22.2772C41.2447 22.1487 41.3144 22.0059 41.4504 21.9581C41.4852 21.946 41.52 21.941 41.5548 21.9427Z" fill="#1D6E65" stroke="#1D6E65" stroke-width="0.6"/>
<path d="M35.8721 22.8392C35.971 22.8465 36.0499 22.9658 36.0487 23.1103C36.0487 23.2113 36.0475 23.2755 36.0464 23.3027C36.044 23.3515 36.0369 23.7188 36.024 24.4105C36.024 24.4661 36.0181 24.6418 36.0087 24.9378C36.0063 25.0345 36.0052 25.108 36.004 25.156C36.0016 25.2645 36.0005 25.3969 36.0028 25.5546C36.0052 25.7791 36.0122 25.9456 36.0228 26.0546C36.0311 26.1645 36.0522 26.2908 36.0852 26.4391C36.1158 26.5808 36.0617 26.7322 35.964 26.7774C35.9416 26.7873 35.9192 26.7914 35.8981 26.7897C35.8227 26.7841 35.7533 26.7123 35.7297 26.6022C35.6897 26.4235 35.665 26.2657 35.6532 26.1288C35.6415 25.9985 35.6332 25.81 35.6297 25.564C35.6285 25.3969 35.6285 25.256 35.6309 25.1408C35.632 25.0864 35.6344 25.0114 35.6367 24.9151C35.6462 24.6148 35.6509 24.4442 35.6509 24.4015C35.6638 23.7114 35.6721 23.3391 35.6744 23.2782C35.6744 23.2581 35.6756 23.2006 35.6756 23.1059C35.6768 22.9573 35.7615 22.8377 35.8639 22.8389C35.8663 22.8389 35.8698 22.8389 35.8721 22.8392Z" fill="#1D6E65" stroke="#1D6E65" stroke-width="0.6"/>
<path d="M34.6766 25.8703C34.9756 25.8865 35.2336 25.9345 35.4537 26.0143C35.6828 26.0976 35.8938 26.1911 36.085 26.2946C36.1745 26.3428 36.2611 26.3919 36.3445 26.4422C36.4341 26.4965 36.5752 26.5878 36.7679 26.7158C36.8089 26.7401 36.8469 26.7616 36.8833 26.7802C37.0032 26.8408 37.0533 26.9912 36.9956 27.1163C36.9516 27.2104 36.8605 27.2635 36.7664 27.2585C36.7361 27.2567 36.7042 27.2486 36.6739 27.2336C36.6253 27.2085 36.5737 27.1798 36.5221 27.1475L36.5145 27.1435C36.3248 27.0173 36.1882 26.9295 36.1032 26.8781C36.0273 26.8317 35.9484 26.7866 35.8665 26.7424C35.6935 26.6498 35.5037 26.5656 35.2958 26.4899C35.1198 26.4256 34.9058 26.3867 34.6539 26.3732C34.5279 26.3663 34.3928 26.3659 34.2486 26.3717C34.241 26.3721 34.2334 26.3721 34.2259 26.3716C34.1029 26.3651 34.0028 26.2611 33.9982 26.1301C33.9937 25.9911 34.0969 25.8741 34.2289 25.8687C34.3867 25.8623 34.537 25.8628 34.6766 25.8703Z" fill="#1D6E65" stroke="#1D6E65" stroke-width="0.6"/>
<path d="M46.9844 26.3294C47.1012 26.3353 47.2057 26.4128 47.2371 26.5279C47.2754 26.6706 47.1883 26.8169 47.0402 26.8547C46.9635 26.8745 46.8834 26.8985 46.8015 26.9263C46.6882 26.9731 46.4739 27.0522 46.1585 27.1638C46.0784 27.1906 46.0104 27.2094 45.9477 27.221C45.8065 27.2529 45.6515 27.2646 45.4842 27.2561C45.3762 27.2509 45.2647 27.2372 45.1462 27.2154C44.9963 27.1878 44.8988 27.0477 44.9266 26.9027C44.9545 26.77 45.0765 26.6794 45.2124 26.6861C45.2246 26.6866 45.2368 26.6881 45.2507 26.6907C45.3431 26.7079 45.4302 26.7185 45.5121 26.7226C45.6306 26.7285 45.7369 26.7205 45.831 26.6988L45.8414 26.6967C45.8762 26.69 45.9198 26.6782 45.9703 26.662C46.2892 26.5482 46.5 26.4704 46.6011 26.4285L46.6185 26.4221C46.7143 26.3894 46.8085 26.3613 46.8991 26.3382C46.9269 26.3308 46.9565 26.3281 46.9844 26.3294Z" fill="#1D6E65" stroke="#1D6E65" stroke-width="0.6"/>
<path d="M46.2697 34.2331C46.3403 34.2367 46.4094 34.2512 46.4751 34.2767C46.6756 34.3372 46.9107 34.5368 47.1885 34.8764C47.2789 34.9866 47.2608 35.1483 47.149 35.2373C47.0981 35.2787 47.034 35.2971 46.9732 35.2939C46.9008 35.2903 46.8318 35.2579 46.7841 35.1989C46.5655 34.9325 46.4143 34.7886 46.3289 34.7675L46.2894 34.756C46.2746 34.7504 46.2582 34.7473 46.2417 34.7463C46.1678 34.7427 46.0691 34.7821 45.9475 34.8648C45.5744 35.1544 45.1092 35.6763 44.5537 36.4306C44.3433 36.7265 44.2545 36.9811 44.2858 37.1919C44.3071 37.333 44.2085 37.4627 44.0655 37.4838C44.0491 37.4854 44.031 37.487 44.0145 37.4854C43.8929 37.4789 43.7894 37.3897 43.7713 37.2665C43.7203 36.9195 43.8387 36.5401 44.1296 36.1321C44.723 35.3271 45.2259 34.7677 45.6401 34.4502L45.6533 34.4415C45.8719 34.2928 46.0773 34.2234 46.2697 34.2331Z" fill="#1D6E65" stroke="#1D6E65" stroke-width="0.6"/>
<path d="M34.6274 36.5819L34.6625 36.5848C35.0382 36.6358 35.4439 36.8693 35.878 37.2851C36.3806 37.7242 36.7279 38.2495 36.9249 38.8608L36.9283 38.8724C37.1102 39.5757 37.0201 40.1038 36.6578 40.4569C36.601 40.5108 36.5242 40.5356 36.4474 40.5327C36.3889 40.5298 36.3305 40.5108 36.2838 40.4729C36.1752 40.3883 36.1669 40.2424 36.2637 40.1476C36.5041 39.9156 36.5543 39.5275 36.4157 38.9848C36.2437 38.4479 35.9365 37.9883 35.4973 37.6046L35.4873 37.5973C35.1483 37.272 34.8562 37.0881 34.6074 37.0458L34.5974 37.0444C34.569 37.0473 34.5372 37.056 34.5022 37.0721C33.9412 37.3741 33.5872 37.5433 33.4419 37.5783C33.4002 37.5885 33.3601 37.5915 33.3234 37.59C33.3084 37.59 33.2967 37.5885 33.2833 37.5871C33.1397 37.5623 33.0462 37.4412 33.0729 37.3157C33.0946 37.2151 33.1881 37.1421 33.2983 37.1304H33.3083C33.4135 37.1027 33.7241 36.9495 34.2417 36.6709C34.2434 36.6694 34.2651 36.6592 34.2651 36.6592C34.387 36.6052 34.5072 36.5804 34.6274 36.5819ZM33.3468 37.129C33.3418 37.129 33.3535 37.129 33.3535 37.129C33.3518 37.129 33.3501 37.129 33.3468 37.129Z" fill="#1D6E65" stroke="#1D6E65" stroke-width="0.6"/>
<path d="M12.4246 13.1355C12.4444 13.1364 12.4626 13.139 12.4824 13.1435C13.6765 13.4245 14.3965 13.6881 14.6443 13.9345C14.7384 14.0273 14.7252 14.1664 14.6145 14.245C14.5617 14.2829 14.4956 14.2999 14.4312 14.2971C14.3618 14.2941 14.2941 14.268 14.2462 14.2197C14.0662 14.0419 13.432 13.8247 12.342 13.568C12.2033 13.5352 12.1207 13.4135 12.1603 13.2964C12.1934 13.1953 12.3057 13.1304 12.4246 13.1355Z" fill="#1D6E65" stroke="#1D6E65" stroke-width="0.6"/>
</svg>
