<svg width="58" height="31" viewBox="0 0 58 31" fill="none" xmlns="http://www.w3.org/2000/svg">
<path d="M37.0937 3.15907C37.089 3.17594 37.0828 3.19264 37.075 3.20863C36.528 4.27937 35.7232 5.00035 34.6621 5.3712L34.6543 5.37366C33.3541 5.76473 32.057 5.75401 30.7615 5.34185C30.6599 5.30898 30.5989 5.18876 30.6286 5.07294C30.6583 4.95711 30.7646 4.88979 30.8677 4.92248C32.0914 5.31232 33.3181 5.32322 34.548 4.95483C35.5122 4.61807 36.242 3.96353 36.739 2.99156C36.7921 2.88716 36.9109 2.85131 37.0031 2.91107C37.0812 2.96186 37.1171 3.06521 37.0937 3.15907Z" fill="#1D6E65" stroke="#1D6E65" stroke-width="0.6"/>
<path d="M30.8382 5.43062C30.835 5.44043 30.8317 5.45056 30.8285 5.46101C30.806 5.52002 30.7577 5.56182 30.703 5.57967L30.6998 5.58835C30.5614 5.7046 30.1447 6.095 29.4496 6.75922C29.3853 6.82305 29.086 7.05507 28.5454 7.46139C28.481 7.52104 28.4343 7.57458 28.407 7.6233C28.3973 7.64211 28.3877 7.66511 28.3796 7.69244C28.3651 7.74598 28.3539 7.81609 28.3474 7.90243L28.3474 7.91578C28.3378 7.99086 28.3346 8.47838 28.3346 9.37831C28.3313 9.53862 28.3088 9.75135 28.2702 10.0205C28.2364 10.3218 28.1383 10.7605 27.9758 11.337C27.913 11.558 27.8406 11.7992 27.7602 12.0604L27.7569 12.0691C27.5574 12.7652 27.0731 13.3895 26.304 13.9421C26.2155 14.0065 26.09 13.9862 26.0256 13.897C25.9886 13.8455 25.9806 13.7826 25.9951 13.7262C26.0079 13.6842 26.0337 13.646 26.0707 13.6186C26.769 13.117 27.2034 12.5603 27.3772 11.9487C27.4593 11.6818 27.5317 11.4412 27.5928 11.2221C27.7489 10.6715 27.8422 10.2565 27.8728 9.97725C27.9114 9.71356 27.9323 9.5145 27.9355 9.37381C27.9355 8.46181 27.9404 7.96032 27.95 7.86995C27.9581 7.76013 27.9741 7.66462 27.9967 7.5831C28.0144 7.52426 28.0337 7.47264 28.0594 7.42842C28.1093 7.34031 28.1817 7.25365 28.2782 7.16602C28.2782 7.16795 28.3056 7.14286 28.3056 7.14286C28.8124 6.76163 29.0972 6.54248 29.16 6.48524C29.16 6.48668 29.1745 6.47125 29.1745 6.47125C29.9693 5.7104 30.415 5.29668 30.5116 5.22979C30.5791 5.18381 30.6467 5.174 30.7127 5.20005C30.8285 5.2462 30.8688 5.32273 30.8382 5.43062ZM30.4762 5.50072C30.444 5.45361 30.4327 5.39364 30.4488 5.33624C30.4488 5.33559 30.4472 5.34154 30.4456 5.34749C30.4279 5.41342 30.4359 5.46744 30.4729 5.50941L30.4762 5.50072Z" fill="#1D6E65" stroke="#1D6E65" stroke-width="0.6"/>
<path d="M37.0577 3.34018C37.0239 3.45793 36.9709 3.58222 36.8987 3.71288C36.8457 3.80864 36.7252 3.84386 36.6289 3.79144C36.5454 3.74634 36.5084 3.65122 36.5325 3.56469C36.5357 3.55051 36.5421 3.53681 36.5502 3.52342C36.5983 3.43578 36.6337 3.35245 36.6562 3.27405C36.7429 2.96732 36.6321 2.73006 36.3237 2.56243C36.1744 2.48148 35.9833 2.41313 35.7504 2.35688C35.7504 2.35736 29.3811 1.30873 29.3811 1.30873C28.9283 1.23862 28.5637 1.25217 28.2891 1.34968L28.2586 1.35765C28.0032 1.44274 27.6178 1.63076 27.1055 1.92315C24.234 3.8445 21.9086 5.23523 20.1292 6.09631C19.6169 6.42838 18.255 7.02241 16.0429 7.88078C15.7177 8.02244 15.4574 8.16075 15.2616 8.29555C14.4387 8.94088 13.9335 9.59243 13.7464 10.2507C13.6896 10.4508 13.6621 10.6516 13.664 10.853C13.6642 10.8723 13.6616 10.8909 13.6565 10.9086C13.633 10.991 13.5572 11.0515 13.4667 11.0525C13.3568 11.0534 13.2669 10.9658 13.2657 10.8568C13.2635 10.6165 13.2959 10.3785 13.3631 10.1423C13.5741 9.40011 14.128 8.67877 15.0251 7.97814L15.0346 7.97113C15.2528 7.82055 15.5382 7.66886 15.8904 7.51573L15.8978 7.51271C18.1185 6.65099 19.4627 6.06492 19.9316 5.75453L19.9541 5.74114C21.7191 4.88707 24.0333 3.50287 26.8951 1.58822L26.9063 1.58073C27.4604 1.26507 27.8779 1.06335 28.1622 0.97523L28.1847 0.969651C28.5203 0.856518 28.9395 0.840266 29.4454 0.918662C29.447 0.918981 35.8291 1.97016 35.8291 1.97016L35.8452 1.97303C36.1117 2.0374 36.335 2.11834 36.5132 2.21586C37.0127 2.48611 37.1942 2.86088 37.0577 3.34018Z" fill="#1D6E65" stroke="#1D6E65" stroke-width="0.6"/>
<path d="M36.1596 9.43953C36.1454 9.48399 36.1154 9.52391 36.0712 9.54946C35.3918 9.93913 34.7093 10.3767 34.022 10.8621L34.0125 10.8685C33.8355 10.9779 33.6507 11.039 33.4548 11.052C33.4548 11.0511 33.439 11.0525 33.439 11.0525C31.3045 11.0284 29.4812 10.7735 27.9692 10.2878C27.8697 10.2559 27.816 10.1551 27.8428 10.0593C27.8444 10.0565 27.846 10.0534 27.846 10.0504C27.8807 9.95229 27.9913 9.89952 28.094 9.93248C29.5634 10.4046 31.3408 10.6528 33.4279 10.6775C33.5559 10.6695 33.6791 10.6283 33.7992 10.5546C34.4928 10.0637 35.1832 9.62174 35.8705 9.22784C35.9622 9.17461 36.0822 9.2035 36.1391 9.29226C36.1675 9.33837 36.1739 9.3916 36.1596 9.43953Z" fill="#1D6E65" stroke="#1D6E65" stroke-width="0.6"/>
<path d="M38.0206 9.90993C38.0191 9.92009 38.0147 9.92991 38.0117 9.93974C37.9687 10.0416 37.8603 10.0863 37.7668 10.0396C37.0214 9.66221 36.5731 9.38943 36.4246 9.22094C36.2168 9.03527 35.9926 8.70043 35.7535 8.21807C35.4833 7.66793 35.2547 7.01561 35.0661 6.2603L35.0647 6.24884C34.9934 5.8824 35.0067 5.5104 35.1032 5.13283C35.1255 5.04343 35.1537 4.95387 35.1849 4.86398C35.222 4.75984 35.3289 4.70859 35.4239 4.74969C35.513 4.78833 35.559 4.89443 35.5338 4.99332C35.5323 5.00004 35.5293 5.00659 35.5279 5.01298C35.4997 5.0896 35.4774 5.16574 35.4581 5.24138C35.3779 5.55182 35.366 5.85522 35.421 6.15207C35.6021 6.87774 35.8203 7.50091 36.0757 8.02241C36.2984 8.47087 36.4973 8.77002 36.6711 8.91967L36.6889 8.93801C36.8062 9.06998 37.2159 9.31427 37.9212 9.67056C38.0043 9.7128 38.0459 9.81546 38.0206 9.90993Z" fill="#1D6E65" stroke="#1D6E65" stroke-width="0.6"/>
<path d="M41.8837 10.3973C41.8127 10.6379 41.689 10.8978 41.5158 11.1771L41.5076 11.189C41.3031 11.4675 41.1365 11.681 41.0062 11.8297C41.0045 11.8299 38.6887 14.4667 38.6887 14.4667C38.6162 14.5496 38.4875 14.56 38.4001 14.49C38.3374 14.4386 38.3143 14.3582 38.3358 14.2863C38.344 14.2601 38.3572 14.2351 38.377 14.213L40.6928 11.5764C40.8132 11.438 40.9715 11.2368 41.1645 10.9731C41.3228 10.7229 41.4317 10.4948 41.4911 10.2901C41.5521 10.0812 41.5637 9.89651 41.5224 9.73624L41.5208 9.72261C41.4713 9.44138 41.3707 9.202 41.2173 9.0048C39.7394 7.17445 38.6657 5.82032 37.996 4.94193C37.4962 4.32796 37.0806 3.94845 36.7523 3.80356C36.66 3.76266 36.6138 3.66342 36.6402 3.57179C36.6435 3.56212 36.6468 3.55245 36.6517 3.54309C36.6979 3.44433 36.82 3.40106 36.9222 3.44624C37.3131 3.61808 37.7799 4.03754 38.3226 4.70477C38.9939 5.58539 40.066 6.93777 41.5422 8.76653C41.7352 9.01399 41.8606 9.30536 41.9199 9.64334C41.9777 9.86988 41.9645 10.1208 41.8837 10.3973Z" fill="#1D6E65" stroke="#1D6E65" stroke-width="0.6"/>
<path d="M55.6135 13.8594C55.601 13.9062 55.5746 13.9485 55.5357 13.9773C51.2745 17.0556 46.2883 19.1631 40.5755 20.3C40.4713 20.321 40.3702 20.2453 40.3515 20.1313C40.3453 20.0986 40.3468 20.0664 40.3546 20.0366C40.3748 19.9619 40.4308 19.9018 40.5071 19.8868C46.1669 18.7603 51.1049 16.6738 55.321 13.6274C55.4097 13.5633 55.5295 13.5896 55.5886 13.6863C55.6213 13.7393 55.629 13.8025 55.6135 13.8594Z" fill="#1D6E65" stroke="#1D6E65" stroke-width="0.6"/>
<path d="M56.9565 12.7173C56.8362 13.1506 56.4833 13.5821 55.8962 14.0114C55.8064 14.0769 55.6829 14.0555 55.6187 13.9636C55.5834 13.9113 55.5738 13.8472 55.5898 13.7896C55.6011 13.7464 55.6267 13.7071 55.6652 13.6789C56.1689 13.3113 56.4672 12.955 56.5619 12.6098C56.6228 12.387 56.5988 12.1688 56.4913 11.9555L56.4785 11.9269C56.294 11.3704 55.5417 11.0613 54.2248 10.9997C53.6875 10.9981 52.9913 11.168 52.1364 11.5099C50.2196 12.6268 49.1305 13.1995 48.869 13.2311C48.6381 13.3217 47.4928 13.6494 45.4317 14.2113C45.4317 14.2118 42.3776 15.2592 42.3776 15.2592L42.3504 15.2668C40.0871 15.6778 38.5087 15.4016 37.6169 14.4386C37.5672 14.3844 37.5512 14.3095 37.5704 14.2423C37.5784 14.2084 37.5977 14.1762 37.6249 14.1501C37.7035 14.0723 37.8302 14.0756 37.9056 14.1573C38.6948 15.0107 40.1448 15.2482 42.2525 14.8696C42.2525 14.872 45.3178 13.8204 45.3178 13.8204L45.329 13.8167C47.4367 13.242 48.5675 12.9199 48.7215 12.8502C48.752 12.8328 48.7872 12.8239 48.8225 12.8247C49.0327 12.8002 50.0801 12.2391 51.9664 11.142L51.992 11.1295C52.8983 10.7672 53.6458 10.5878 54.2345 10.5915L54.2874 10.5992C55.7374 10.669 56.5891 11.0585 56.8442 11.7628C57.0046 12.0841 57.0431 12.4013 56.9565 12.7173Z" fill="#1D6E65" stroke="#1D6E65" stroke-width="0.6"/>
<path d="M38.2527 14.536L38.1472 14.5733C38.0533 14.6068 37.9984 14.7254 38.0273 14.838C38.0547 14.9506 38.1544 15.0147 38.2498 14.981L38.3552 14.9441C38.4492 14.9105 38.5026 14.7918 38.4752 14.6792C38.4463 14.5666 38.3466 14.5026 38.2527 14.536Z" fill="#1D6E65" stroke="#1D6E65" stroke-width="0.6"/>
<path d="M31.3083 28.4863C31.2809 28.5825 31.186 28.6455 31.0847 28.6293C28.9348 28.2865 26.7414 27.7871 24.5046 27.1311C23.1442 26.7456 21.8964 26.3557 20.7627 25.9616C20.7595 25.9608 19.1981 25.4019 19.1981 25.4019C19.1949 25.4006 19.1852 25.3969 19.1852 25.3969C17.1457 24.6118 16.0174 24.1901 15.7993 24.1314L15.7861 24.1274C15.4719 24.0189 15.0707 23.9252 14.5823 23.8461C11.6692 23.5682 5.41426 23.7133 1.04553 24.2815C0.936346 24.2957 1.05968 24.2184 1.04553 24.1088C1.04215 24.0812 1.03846 24.0541 1.04553 24.0289C1.0666 23.9542 0.963843 23.8953 1.04553 23.8847C5.45044 23.3118 11.688 23.1667 14.633 23.4493L14.6459 23.4509C15.15 23.5325 15.569 23.6305 15.9027 23.7446C16.1341 23.8074 17.2755 24.2334 19.3267 25.0229L19.3364 25.0266L20.893 25.5833C22.0218 25.9755 23.2616 26.3634 24.6156 26.7465C26.8363 27.3982 29.0136 27.8939 31.1474 28.2341C31.2568 28.2515 31.3308 28.354 31.3131 28.4633C31.3115 28.471 31.3099 28.4787 31.3083 28.4863Z" fill="#1D6E65" stroke="#1D6E65" stroke-width="0.6"/>
<path d="M13.7204 9.96713C13.7038 10.0354 13.6603 10.0939 13.5986 10.1207C13.0254 10.3709 11.5395 10.5268 9.14103 10.5883C7.88943 10.639 3.06449 10.5113 1.05198 10.2052C0.94256 10.1886 1.03763 10.0725 1.05198 9.94606C1.05343 9.93468 1.04956 9.92368 1.05198 9.91306C1.07856 9.80437 0.95239 9.73185 1.05198 9.74695C3.0437 10.0501 7.89958 10.1763 9.12959 10.1263C11.4853 10.0657 12.9271 9.91958 13.4577 9.68841C13.561 9.64329 13.6761 9.7037 13.7151 9.8232C13.7307 9.87111 13.7317 9.92126 13.7204 9.96713Z" fill="#1D6E65" stroke="#1D6E65" stroke-width="0.6"/>
<path d="M48.6143 27.5473C48.5651 27.724 48.4825 27.9098 48.365 28.1047L48.3507 28.125C47.8236 28.7943 47.1123 29.2227 46.2168 29.4099C45.0276 29.7675 43.5017 29.9639 41.6345 30L41.6218 29.9998C37.9113 29.8259 34.369 29.3237 30.9983 28.4932C30.8919 28.4671 30.8268 28.3591 30.8538 28.2517C30.8839 28.1413 30.9871 28.079 31.0903 28.1044C34.4341 28.9279 37.9462 29.4262 41.6266 29.5997C43.4668 29.5643 44.9641 29.3718 46.1215 29.0223L46.1374 29.0181C46.9329 28.8518 47.5632 28.4763 48.03 27.8915C48.1157 27.7507 48.1777 27.6129 48.2142 27.4818C48.3364 27.0425 48.1713 26.6818 47.7172 26.3996C47.5807 26.3134 47.4155 26.2334 47.2266 26.1592C46.6344 25.9746 45.9389 25.9021 45.1403 25.9418C44.4115 25.9919 43.4239 26.1677 42.176 26.4696L42.168 26.4714C41.96 26.5072 41.7171 26.4977 41.4377 26.4441L41.4218 26.4401C40.3231 26.1288 39.7197 25.9677 39.6118 25.9568L39.5752 25.9496C39.3942 25.8952 38.6734 25.7821 37.4111 25.6104C37.4111 25.6101 37.4048 25.6093 37.4048 25.6093C37.2032 25.5743 37.019 25.5207 36.8475 25.4481L36.8396 25.4442C35.9726 25.0253 35.2598 24.4118 34.7025 23.6039C34.6659 23.5526 34.658 23.4905 34.6739 23.4345C34.685 23.3917 34.712 23.3527 34.7501 23.3252C34.839 23.2618 34.9613 23.2835 35.0248 23.374C35.5408 24.1219 36.1997 24.6902 36.9999 25.0787C37.1412 25.1391 37.2952 25.1841 37.4635 25.2136C38.6798 25.3792 39.4085 25.4933 39.6515 25.556C39.7801 25.5717 40.3993 25.7355 41.5107 26.0503C41.7425 26.0956 41.9362 26.1046 42.0934 26.0785C43.3604 25.7721 44.3687 25.5935 45.1181 25.5425C45.9723 25.4999 46.7169 25.5796 47.3568 25.7814L47.3695 25.786C47.5807 25.8689 47.7648 25.9597 47.9236 26.0585C48.5508 26.4495 48.781 26.9456 48.6143 27.5473Z" fill="#1D6E65" stroke="#1D6E65" stroke-width="0.6"/>
<path d="M55.589 21.0021C55.3646 21.7935 52.1238 23.0013 45.8635 24.6259L45.849 24.6288C43.6562 25.0433 40.4946 25.2134 36.3673 25.1386C36.2575 25.1365 36.1687 25.0456 36.172 24.9355C36.172 24.918 36.1736 24.9009 36.1784 24.8848C36.2026 24.7997 36.2818 24.738 36.3754 24.7396C40.4671 24.8137 43.5948 24.6468 45.7618 24.2391C51.8994 22.6469 55.0464 21.5741 55.2031 21.0213C55.2111 20.9947 55.2111 20.9693 55.2047 20.945C55.1934 20.9131 55.1886 20.8795 55.1934 20.8467C55.321 19.9227 54.6379 19.3304 53.1427 19.07C52.4936 18.9912 51.7104 19.0361 50.7917 19.2049C50.3331 19.2892 49.9924 19.365 49.7631 19.4336C48.2581 19.9647 47.3927 20.2238 47.165 20.2111C47.1392 20.2098 47.1166 20.2059 47.0956 20.1998L47.0923 20.2084C43.9226 20.4025 42.2272 20.4837 42.0076 20.4517C41.9769 20.4472 41.9494 20.4396 41.9268 20.4293L41.9236 20.4379C39.445 20.3326 37.8141 19.7756 37.0294 18.7663C36.989 18.7144 36.9777 18.6487 36.9955 18.5898C37.0068 18.5502 37.0294 18.5137 37.0649 18.4865C37.1521 18.419 37.278 18.4348 37.3459 18.522C38.0628 19.4447 39.6226 19.9517 42.0269 20.0426C42.0415 20.0431 42.0544 20.0452 42.0673 20.0484L42.0657 20.0569C42.2595 20.0851 43.9468 20.0016 47.1311 19.8063C47.1504 19.805 47.1682 19.8067 47.1876 19.811C47.362 19.8223 48.179 19.5696 49.6387 19.0544L49.6484 19.0514C49.8923 18.9786 50.2475 18.8993 50.7158 18.8132C51.683 18.6353 52.5097 18.5896 53.2024 18.6754L53.2121 18.677C54.9334 18.9768 55.7279 19.7 55.5971 20.8458L55.5955 20.8545C55.6051 20.902 55.6035 20.9511 55.589 21.0021Z" fill="#1D6E65" stroke="#1D6E65" stroke-width="0.6"/>
<path d="M26.4446 13.8734C26.4328 13.9236 26.4049 13.9688 26.3637 13.9981C25.6639 14.498 24.6025 14.8284 23.1809 14.989C23.0795 15.0004 22.9913 14.9143 22.981 14.7966C22.9795 14.7694 22.981 14.743 22.9869 14.7182C23.0075 14.6357 23.0677 14.572 23.1457 14.5632C24.5128 14.4087 25.5213 14.0985 26.1755 13.6326C26.2608 13.5714 26.3725 13.6033 26.4255 13.7043C26.4534 13.7573 26.4578 13.8184 26.4446 13.8734Z" fill="#1D6E65" stroke="#1D6E65" stroke-width="0.6"/>
<path d="M28.2968 7.32228C28.2825 7.38304 28.2423 7.43466 28.1863 7.45802C27.8661 7.59017 27.5115 7.68246 27.121 7.73457C26.8511 7.77246 26.4505 7.76675 25.9207 7.71758C25.8231 7.70859 25.7499 7.61091 25.7585 7.49918C25.7599 7.48595 25.7614 7.47305 25.7642 7.46063C25.7872 7.36932 25.8633 7.30594 25.9495 7.31395C26.4563 7.36099 26.8324 7.3672 27.0779 7.33257C27.444 7.28356 27.7713 7.19862 28.0642 7.07725C28.1575 7.03903 28.2595 7.09342 28.2925 7.19846C28.3054 7.23995 28.3069 7.28307 28.2968 7.32228Z" fill="#1D6E65" stroke="#1D6E65" stroke-width="0.6"/>
<path d="M15.1069 22.2547C15.0952 22.2862 15.0734 22.3161 15.0414 22.3414C14.9384 22.4224 14.7687 22.4246 14.6623 22.346C14.4497 22.1886 14.2447 21.9836 14.0471 21.7309C13.6286 21.215 13.3882 20.841 13.3257 20.609C13.2619 20.4011 13.2489 20.027 13.2868 19.4866C13.3073 19.2125 13.373 18.9239 13.4833 18.6197C13.5238 18.5103 13.671 18.4469 13.8131 18.4769C13.9558 18.5071 14.0395 18.6199 13.9999 18.7289C13.9 19.0046 13.8408 19.2645 13.8222 19.5084C13.7867 20.0148 13.7956 20.3518 13.8488 20.5195C13.9007 20.7114 14.1186 21.0419 14.5051 21.5181C14.6807 21.7427 14.8567 21.9197 15.0355 22.0519C15.1086 22.1061 15.1328 22.1845 15.1069 22.2547Z" fill="#1D6E65" stroke="#1D6E65" stroke-width="0.6"/>
<path d="M13.7233 22.715C13.7122 22.7497 13.6907 22.7821 13.6586 22.8085C13.5641 22.8867 13.4152 22.8829 13.326 22.8002C13.055 22.549 12.8715 22.3549 12.7753 22.2178C12.6688 22.0843 12.532 21.857 12.365 21.5361C12.3409 21.4899 12.3381 21.4401 12.3525 21.395C12.3707 21.3387 12.4159 21.2897 12.4815 21.2633C12.5998 21.2163 12.7392 21.262 12.7931 21.3654C12.9351 21.6379 13.0497 21.8331 13.1366 21.9506C13.1341 21.958 13.1765 22.0026 13.1765 22.0026C13.2556 22.1153 13.4193 22.287 13.6681 22.5176C13.7269 22.5722 13.7452 22.6476 13.7233 22.715Z" fill="#1D6E65" stroke="#1D6E65" stroke-width="0.6"/>
<path d="M27.8367 18.8507C27.8194 18.9295 27.771 19.0002 27.6966 19.0409C27.2453 19.2862 26.692 19.4011 26.0332 19.3876C25.5698 19.3889 24.9162 19.2579 24.0724 18.9948C23.9583 18.9589 23.8874 18.8124 23.9168 18.6679C23.9497 18.52 24.0638 18.4357 24.1762 18.471C24.9871 18.7243 25.6079 18.8501 26.035 18.8479C26.6453 18.8605 27.1468 18.7569 27.5445 18.5374L27.5635 18.5276C27.6672 18.4851 27.7814 18.5476 27.8263 18.6753C27.8471 18.7326 27.8488 18.7937 27.8367 18.8507Z" fill="#1D6E65" stroke="#1D6E65" stroke-width="0.6"/>
<path d="M20.8967 17.0127C20.8934 17.0259 20.8885 17.039 20.8819 17.0517C20.8309 17.1551 20.7075 17.1961 20.6071 17.1431C19.8733 16.7549 19.4735 16.5479 19.4094 16.5223C19.4028 16.5213 19.3962 16.5187 19.3913 16.5159C19.2053 16.4303 18.9355 16.3296 18.5818 16.2134C17.792 15.961 17.1372 15.8401 16.615 15.8508C15.4225 15.9202 14.587 16.363 14.1089 17.1791C14.0506 17.2786 13.9253 17.3105 13.8289 17.2504C13.7486 17.2003 13.7138 17.1022 13.738 17.0132C13.743 16.9954 13.7502 16.9779 13.7599 16.9614C14.3132 16.0166 15.2599 15.5062 16.5999 15.4302C17.1734 15.4184 17.8727 15.5456 18.7035 15.8119C19.0721 15.9328 19.3567 16.0392 19.5558 16.1313C19.6348 16.1611 20.0461 16.3737 20.793 16.7683C20.8802 16.8149 20.923 16.9183 20.8967 17.0127ZM19.6232 16.4663C19.6167 16.4743 19.6084 16.4816 19.6002 16.4885C19.5574 16.5238 19.5031 16.5391 19.4489 16.5325C19.5196 16.5522 19.5772 16.5323 19.6216 16.4753L19.6232 16.4663ZM19.671 16.3792C19.6743 16.3673 19.6759 16.3551 19.6775 16.3425C19.6759 16.3568 19.6726 16.369 19.6693 16.3807L19.6677 16.3895C19.6693 16.386 19.6693 16.3826 19.671 16.3792Z" fill="#1D6E65" stroke="#1D6E65" stroke-width="0.6"/>
<path d="M39.3861 6.23738C39.3186 6.45615 39.1214 6.67035 38.7946 6.87981L38.784 6.88667C38.276 7.17183 37.9119 7.19875 37.6952 6.96725L37.6863 6.95698C36.8871 5.98338 36.4466 5.34355 36.3685 5.03767C36.1695 4.49002 36.1216 4.04661 36.2246 3.70891C36.2441 3.64676 36.269 3.58836 36.2974 3.53338C36.3507 3.43305 36.4821 3.39161 36.5922 3.44088C36.6881 3.48444 36.7361 3.58493 36.7077 3.6771C36.7041 3.68869 36.6988 3.70011 36.6935 3.71136C36.6739 3.74611 36.6597 3.78347 36.6473 3.8236C36.5674 4.08054 36.6153 4.44809 36.7912 4.92641L36.7965 4.94403C36.8622 5.19412 37.2725 5.78027 38.0291 6.70265C38.0824 6.76056 38.2529 6.70868 38.5424 6.54767C38.7822 6.39415 38.9225 6.25532 38.9598 6.13167C38.9722 6.09235 38.974 6.05467 38.9651 6.01861C38.958 5.98566 38.9598 5.95287 38.9687 5.92252C38.99 5.85237 39.0521 5.79528 39.1356 5.77929C39.2546 5.75645 39.3718 5.82644 39.3967 5.9359C39.4198 6.03737 39.4163 6.1377 39.3861 6.23738Z" fill="#1D6E65" stroke="#1D6E65" stroke-width="0.6"/>
<path d="M41.7688 27.5911C41.7516 27.6646 41.6953 27.7181 41.6286 27.717C41.5504 27.7158 41.4871 27.6372 41.4883 27.5417C41.4894 27.4408 41.4929 27.3556 41.4998 27.286C41.5044 27.2237 41.5136 27.1614 41.5274 27.0991C41.5285 27.0889 41.5308 27.0805 41.5331 27.0722C41.5492 27.0004 41.5699 26.9318 41.5929 26.8663C41.6044 26.83 41.6343 26.7576 41.6838 26.65C41.7217 26.5661 41.8079 26.5353 41.8769 26.5813C41.9367 26.6208 41.9632 26.7041 41.9459 26.7801C41.9425 26.7924 41.939 26.8047 41.9333 26.8164C41.8907 26.9109 41.8654 26.9694 41.8585 26.9926L41.8631 26.9772L41.8562 26.9999C41.8367 27.0524 41.8206 27.1079 41.8068 27.1663C41.8057 27.1724 41.8045 27.1784 41.8033 27.1847C41.793 27.2305 41.7872 27.2764 41.7826 27.3219C41.778 27.3821 41.7746 27.4562 41.7735 27.5462C41.7735 27.5617 41.7711 27.5768 41.7688 27.5911Z" fill="#1D6E65" stroke="#1D6E65" stroke-width="0.6"/>
<path d="M47.8543 21.0707C47.827 21.1399 47.7497 21.1965 47.645 21.2134C47.4925 21.2377 47.3401 21.1691 47.3082 21.0601C47.265 20.9266 47.2741 20.7826 47.3332 20.628C47.3446 20.5985 47.356 20.5668 47.3674 20.5345C47.3765 20.5147 47.3833 20.495 47.3924 20.4749C47.4083 20.4346 47.4402 20.3646 47.488 20.2663C47.5449 20.1529 47.604 20.0473 47.6677 19.9477C47.7337 19.8462 47.9021 19.8016 48.0432 19.8483C48.1706 19.8906 48.2344 19.9926 48.1957 20.0869C48.1934 20.0969 48.1866 20.1068 48.182 20.1166C48.1251 20.2053 48.0705 20.3001 48.0205 20.4011C47.9772 20.4909 47.9476 20.5526 47.934 20.5864C47.9249 20.608 47.9181 20.6262 47.9112 20.644C47.8999 20.6736 47.8885 20.7023 47.8794 20.7307C47.843 20.825 47.8361 20.9039 47.8589 20.9718C47.868 21.0057 47.8657 21.0395 47.8543 21.0707Z" fill="#1D6E65" stroke="#1D6E65" stroke-width="0.6"/>
<path d="M49.5226 13.8132C49.5069 13.885 49.4641 13.9454 49.4041 13.9693C49.3114 14.0069 49.2114 13.9397 49.1829 13.8195C49.1229 13.5721 49.1272 13.2956 49.1929 12.9895C49.2114 12.9065 49.2343 12.8211 49.2614 12.7336C49.2985 12.6169 49.4027 12.5606 49.4926 12.6081C49.5769 12.6523 49.6211 12.7708 49.5968 12.8813C49.594 12.8894 49.5926 12.8975 49.5897 12.9054C49.5669 12.9775 49.5483 13.0471 49.534 13.1139C49.4855 13.3326 49.4812 13.5226 49.5212 13.6835C49.5312 13.7273 49.5312 13.7722 49.5226 13.8132Z" fill="#1D6E65" stroke="#1D6E65" stroke-width="0.6"/>
</svg>
