<svg width="95" height="33" viewBox="0 0 95 33" fill="none" xmlns="http://www.w3.org/2000/svg">
<path d="M29.1102 1.20463C27.145 0.873287 25.4251 0.944466 23.9482 1.4157C23.3226 1.60714 22.7534 1.85504 22.2357 2.15447L22.2137 2.16919C19.0365 4.38058 17.1547 5.54149 16.5708 5.65194L16.5463 5.65685C8.78371 8.45728 2.52751 10.4846 1.05792 11.2994C0.898449 11.3878 1.10947 11.4811 1.19779 11.6406C1.24686 11.7339 1.19288 11.8492 1.28611 11.8639C1.35971 11.8762 1.23701 11.9449 1.3057 11.9081C2.72377 11.1178 8.77635 9.17641 16.6935 6.29989C17.3682 6.17226 19.326 4.9819 22.5694 2.72633C23.0429 2.44899 23.5679 2.22319 24.1469 2.04402C25.5233 1.60469 27.1401 1.54333 28.9998 1.85749C29.3678 1.91885 29.7481 1.99739 30.1357 2.0882C33.4724 3.11903 38.5141 5.66176 45.2585 9.71146L45.3395 9.74828L48.7104 10.6932C49.736 10.9877 51.3429 11.5792 53.5265 12.4702L53.5461 12.4775C53.9092 12.6002 54.2649 12.6911 54.6158 12.75C54.6992 12.7647 54.7851 12.777 54.8685 12.7892C55.4009 12.8629 55.9701 12.858 56.5761 12.7721L56.6055 12.7671C58.9657 12.1977 60.4426 11.9253 61.0388 11.9449L61.0781 11.9425C61.689 11.8934 62.3023 11.9228 62.9206 12.0259C63.1634 12.0677 63.4063 12.1192 63.6517 12.1855C66.1124 12.8481 67.6753 13.9207 68.3401 15.4056L68.3524 15.4301C68.4334 15.5749 68.5045 15.7197 68.5708 15.8572C69.1645 17.1163 69.0982 17.9311 68.3671 18.2968C64.4515 18.8736 60.4058 19.7768 56.2179 21.0065C55.526 21.1365 54.6967 21.1463 53.7203 21.031C52.7929 20.9304 51.4901 20.7389 49.8169 20.4542C48.9533 20.3094 47.994 20.1376 46.9317 19.9437C46.4926 19.8774 46.0117 19.8382 45.4842 19.821C44.9126 19.8161 44.4489 19.8431 44.0882 19.9044L44.0661 19.9093C42.8909 20.2039 41.6864 20.4542 40.4523 20.6677C40.2413 20.6972 40.0843 20.7046 39.9788 20.6874C39.9616 20.6825 39.9468 20.68 39.9346 20.6776C39.9223 20.6727 39.9125 20.6702 39.9003 20.6677C39.7359 20.6407 39.5739 20.7414 39.5273 20.9058C39.4783 21.0801 39.5813 21.2642 39.7555 21.3132C39.7899 21.3206 39.8242 21.3304 39.861 21.3353C40.0425 21.3672 40.2756 21.3599 40.5578 21.3182C41.8065 21.1046 43.0185 20.8518 44.2035 20.5573C44.52 20.5008 44.942 20.4763 45.4646 20.4812C45.9626 20.4959 46.4116 20.5328 46.8139 20.5941C47.8812 20.7905 48.8405 20.9598 49.7041 21.1046C51.392 21.3918 52.7046 21.5857 53.6442 21.6863C54.7041 21.8115 55.6143 21.7968 56.3749 21.647L56.4019 21.6397C60.5874 20.4125 64.6281 19.5117 68.5241 18.9374C68.556 18.9325 68.588 18.9252 68.6174 18.9104C69.7754 18.3631 69.9594 17.2513 69.1669 15.5749C69.1007 15.4326 69.0271 15.2878 68.9437 15.1356C68.1929 13.4593 66.4854 12.264 63.821 11.5473C63.556 11.4762 63.2935 11.4197 63.0285 11.3755C62.3587 11.2626 61.6914 11.2307 61.0241 11.2847C60.3322 11.2749 58.8111 11.5571 56.4509 12.1241C55.9161 12.1953 55.4205 12.1977 54.9593 12.1339C54.8783 12.1241 54.8022 12.1118 54.7262 12.0996C54.417 12.048 54.1006 11.967 53.7816 11.859C51.5686 10.9583 49.9396 10.357 48.8895 10.0575L45.575 9.12732C38.779 5.05307 33.6956 2.49317 30.3099 1.45252L30.2878 1.44515C29.8855 1.35189 29.4929 1.27089 29.1102 1.20463Z" fill="#1D6E65" stroke="#1D6E65" stroke-width="0.6"/>
<path d="M76.1649 16.2347C75.401 16.1072 72.9552 15.9576 68.8323 15.7885C68.6511 15.7811 68.4969 15.9233 68.4895 16.1048C68.4822 16.2715 68.6022 16.4161 68.7638 16.4431C68.776 16.4456 68.7907 16.448 68.8054 16.448C72.9356 16.6172 75.335 16.757 75.9984 16.8697C76.0425 16.8771 76.0792 16.8845 76.1086 16.8918C76.1404 16.9261 76.1943 16.9506 76.2506 16.9605C76.2604 16.9605 76.2702 16.9629 76.28 16.9629C76.3436 16.9678 76.422 16.9776 76.515 16.9948C77.2152 17.1125 78.7552 17.5415 81.13 18.2845C81.1349 18.2845 81.1912 18.2967 81.1912 18.2967C82.741 18.4806 84.0116 18.6572 85.0056 18.8263C86.4378 19.0691 87.2923 19.2946 87.5665 19.503L87.6106 19.5325C88.6829 20.1062 89.5545 20.6726 90.2253 21.2292C91.9195 22.6365 92.2794 23.9851 91.305 25.2772C84.6335 24.5931 78.1847 24.5637 71.949 25.1889C65.013 26.1255 58.5716 27.452 52.6101 29.1732L52.5733 29.1855C52.5097 29.1953 52.4264 29.1904 52.3163 29.1708C51.7532 29.0751 50.5217 28.624 48.6169 27.8198L48.5557 27.8002C46.2299 27.3221 44.2981 26.8415 42.7606 26.3585C38.4247 24.7304 35.1416 23.6295 32.9039 23.0558C31.337 22.6022 30.0223 22.2835 28.9524 22.1045C27.8972 21.9255 27.0844 21.8789 26.509 21.9647L26.4625 21.9745C21.0102 23.6246 14.346 26.5595 9.14582 31.3824C9.01361 31.5049 9.18254 31.6423 9.30496 31.7771C9.35637 31.831 9.29761 31.9169 9.36616 31.9267C9.4641 31.9438 9.30006 32.0247 9.37841 31.9536C14.4904 27.2117 21.2721 24.2401 26.6143 22.6169C27.1186 22.5409 27.858 22.585 28.8251 22.7469C29.8607 22.9234 31.1583 23.2372 32.7178 23.6884C34.9433 24.2597 38.2093 25.3557 42.5256 26.9763L42.5428 26.9812C44.0999 27.4716 46.056 27.9595 48.4039 28.4426C50.2695 29.2345 51.5573 29.6906 52.2599 29.8083C52.468 29.8426 52.6248 29.8499 52.73 29.8254C52.7521 29.8205 52.7741 29.8156 52.7937 29.8083C58.7209 28.0969 65.1281 26.7753 72.0151 25.846C78.268 25.2184 84.7338 25.2527 91.4176 25.9515C91.5278 25.9613 91.6356 25.9171 91.7066 25.8338C93.0898 24.1641 92.7373 22.46 90.6464 20.7216C89.9536 20.1454 89.06 19.5643 87.9705 18.9783C87.6057 18.7086 86.5945 18.434 84.9322 18.1521C83.9504 17.9853 82.7385 17.8162 81.299 17.6445C78.9168 16.9016 77.3499 16.4676 76.6007 16.3401C76.5468 16.3303 76.4954 16.323 76.4489 16.3181C76.4268 16.3034 76.3999 16.2936 76.3706 16.2837C76.3289 16.2666 76.2579 16.2519 76.1649 16.2347ZM75.9813 16.578C75.9715 16.6368 75.9764 16.6957 75.9984 16.752C75.9593 16.6957 75.9519 16.6393 75.969 16.578H75.9813Z" fill="#1D6E65" stroke="#1D6E65" stroke-width="0.6"/>
<path d="M67.1419 15.2353C66.9144 15.1943 66.6769 15.166 66.4271 15.1455C64.7453 15.0147 63.3478 15.1583 62.2324 15.5714C62.2349 15.5714 62.2101 15.5791 62.2101 15.5791C61.7723 15.7792 61.5547 16.0614 61.5547 16.4258C61.5547 16.4642 61.5597 16.5002 61.572 16.5361L62.2646 18.6989C62.3437 19.0016 62.3659 19.3198 62.3338 19.6456C62.314 19.8278 62.4377 19.992 62.6084 20.0228C62.6158 20.0253 62.6232 20.0253 62.6281 20.0253C62.8136 20.0459 62.9769 19.9073 62.9942 19.72C63.0387 19.3018 63.0065 18.8965 62.9026 18.5039L62.8953 18.4808L62.2324 16.4104C62.2349 16.3539 62.314 16.2898 62.46 16.2205C63.4839 15.8408 64.7898 15.7125 66.3752 15.8331C66.6077 15.8511 66.8253 15.8793 67.0331 15.9152C67.9358 16.0743 68.6185 16.4027 69.0785 16.9004C69.1305 16.9568 69.1948 16.9902 69.2616 17.003C69.363 17.021 69.4693 16.9902 69.5485 16.9132C69.682 16.7798 69.687 16.5617 69.5584 16.4258C68.9969 15.8151 68.1931 15.4175 67.1419 15.2353Z" fill="#1D6E65" stroke="#1D6E65" stroke-width="0.6"/>
<path d="M89.3609 15.6159C88.8538 15.5266 88.2462 15.4397 87.5381 15.3554C86.9697 15.2942 86.4161 15.2584 85.8795 15.2482C83.9196 15.2661 82.8196 15.2635 82.5672 15.238C82.5501 15.2303 82.5304 15.2252 82.5108 15.2226C79.4361 14.7093 77.5864 14.459 76.9593 14.4743C73.4877 14.2879 70.6751 14.385 68.5167 14.7655C68.3379 14.7961 68.2154 14.9724 68.2472 15.1613C68.2717 15.3095 68.382 15.4193 68.5167 15.4423C68.551 15.4499 68.5878 15.4499 68.627 15.4423C70.7437 15.0694 73.5195 14.9775 76.9494 15.1613H76.9739C77.557 15.146 79.343 15.3886 82.332 15.8892C82.3687 15.8994 82.3957 15.9071 82.4251 15.9122C82.6431 15.948 83.7873 15.9556 85.8673 15.9352C86.3842 15.9454 86.9158 15.9786 87.4646 16.0399C88.1702 16.1216 88.7705 16.2059 89.2629 16.2953C89.8362 16.3949 90.2649 16.4996 90.5516 16.6043C92.3915 17.2173 93.5283 18.2618 93.9693 19.7482C94.1113 21.2882 93.4744 22.2076 92.051 22.5013C91.8721 22.5397 91.757 22.721 91.7913 22.9049C91.8182 23.0504 91.9285 23.1551 92.0608 23.1781C92.0975 23.1858 92.1391 23.1858 92.1783 23.1756C94.0183 22.795 94.8292 21.6049 94.6112 19.6077L94.5989 19.5439C94.0893 17.8353 92.8154 16.6375 90.7746 15.9582C90.4536 15.8381 89.9832 15.7258 89.3609 15.6159ZM82.6137 15.2558C82.6921 15.2865 82.7436 15.3452 82.7681 15.4346C82.7313 15.3529 82.6725 15.289 82.6015 15.2533L82.6137 15.2558Z" fill="#1D6E65" stroke="#1D6E65" stroke-width="0.6"/>
<path d="M85.2675 12.7901C85.0069 12.7467 84.7367 12.7147 84.4545 12.6896C83.2183 12.58 81.2287 12.6531 78.486 12.9065C78.3282 12.9042 78.1823 12.8951 78.0317 12.8814C76.8241 12.7375 76.0542 12.6599 75.717 12.6531C74.9112 12.6143 74.1603 12.6097 73.4645 12.6439C71.7356 12.733 69.9614 12.9887 68.1369 13.4065C67.9647 13.4476 67.8571 13.612 67.9001 13.7786C67.9312 13.9019 68.0364 13.9887 68.1584 14.0092C68.2014 14.0161 68.2444 14.0138 68.2875 14.0047C70.0737 13.5937 71.8098 13.3448 73.4956 13.2581C74.1723 13.2261 74.8992 13.2284 75.6811 13.2649L75.7002 13.2672C76.0183 13.2741 76.7715 13.3494 77.9599 13.4932C78.1536 13.5115 78.3354 13.5184 78.5147 13.5206L78.5482 13.5184C81.2503 13.2672 83.1991 13.1942 84.3947 13.3015C84.6602 13.3243 84.9136 13.3563 85.1551 13.3951C86.9892 13.6896 88.1872 14.4293 88.7515 15.6096C88.797 15.7055 88.8878 15.7695 88.9906 15.7854C89.0504 15.7946 89.1174 15.7877 89.1772 15.7626C89.3398 15.6918 89.4091 15.5092 89.3374 15.3562C88.6774 13.975 87.3216 13.1211 85.2675 12.7901Z" fill="#1D6E65" stroke="#1D6E65" stroke-width="0.6"/>
</svg>
