<svg width="41" height="42" viewBox="0 0 41 42" fill="none" xmlns="http://www.w3.org/2000/svg">
<path d="M17.5311 13.4704C17.4437 13.4618 17.3646 13.5234 17.3523 13.6152C17.1396 15.1969 16.7893 16.6465 16.3015 17.9633C15.9829 18.7554 15.6414 19.4763 15.2765 20.1259C15.0813 20.482 14.5886 21.2335 13.7975 22.3795C13.7976 22.3795 13.7936 22.3861 13.7936 22.3861C13.6668 22.58 13.5619 22.7673 13.4789 22.9481C13.3709 23.1814 13.2865 23.4115 13.2257 23.6394C13.0045 24.5793 12.8725 25.1118 12.8288 25.2411C12.8002 25.3254 12.8464 25.4164 12.9321 25.4448C12.944 25.4492 12.956 25.4514 12.9681 25.4525C13.0423 25.4602 13.1146 25.4164 13.1392 25.3429C13.1861 25.2038 13.3206 24.6637 13.5421 23.7215C13.598 23.5123 13.6763 23.2986 13.7769 23.0817C13.853 22.9152 13.9496 22.7432 14.0667 22.5635C14.8637 21.4088 15.3623 20.6485 15.5625 20.2826C15.9349 19.6198 16.2831 18.8858 16.6071 18.0784C17.1053 16.7341 17.4613 15.2595 17.6771 13.6534L17.6778 13.6479C17.6866 13.5606 17.6244 13.4824 17.5367 13.471C17.5348 13.4708 17.533 13.4706 17.5311 13.4704Z" fill="#1D6E65" stroke="#1D6E65" stroke-width="0.6"/>
<path d="M18.1829 12.8255C17.8984 12.7969 17.6386 12.9384 17.4033 13.2493C17.3486 13.322 17.3621 13.4259 17.4338 13.4816C17.4587 13.5011 17.4876 13.5121 17.5168 13.515C17.5712 13.5205 17.6271 13.4981 17.6627 13.451C17.8162 13.248 17.9867 13.1558 18.174 13.1746C18.2957 13.1869 18.4246 13.2458 18.5607 13.3515C18.7101 13.4677 18.8688 13.6352 19.0365 13.8538C19.4938 14.5029 19.7411 15.4518 19.7782 16.6987C19.8005 17.3649 19.7162 18.0873 19.5252 18.8692L19.5232 18.8793C19.4425 19.3208 19.0862 20.2139 18.4544 21.5609L18.4482 21.5766C18.4479 21.5766 18.4455 21.5844 18.4455 21.5844C18.2853 22.1169 18.161 22.7607 18.0727 23.5145C17.9916 24.202 17.9675 24.9951 18.0004 25.895L18.001 25.904C18.2485 28.7305 18.3534 30.2426 18.3157 30.4414C18.3159 30.4414 18.3106 30.4774 18.3106 30.4774C18.288 31.3671 18.1799 32.076 17.9859 32.604C17.7781 33.1758 17.4456 33.6656 16.9884 34.0734C16.8129 34.2262 16.5973 34.3419 16.3421 34.4183H16.3338C15.0053 34.6014 14.2123 34.8384 13.9549 35.1294L13.9459 35.1283C13.4619 35.417 11.4306 37.2785 7.85176 40.7139C7.78629 40.7768 7.78352 40.8813 7.84556 40.9475C7.8737 40.9779 7.91026 40.9947 7.94803 40.9992C7.99357 41.0037 8.04065 40.9891 8.07655 40.9543C11.8131 37.3684 13.8292 35.5181 14.1246 35.4058C14.1514 35.3956 14.1752 35.3788 14.1934 35.3563C14.383 35.1227 15.1221 34.9182 16.4105 34.7418L16.4354 34.7362C16.736 34.6452 16.9919 34.5082 17.203 34.3228C17.7026 33.8768 18.0653 33.3432 18.2921 32.7197C18.4971 32.1625 18.6119 31.4255 18.6368 30.5088C18.6804 30.2853 18.5777 28.7428 18.3272 25.8826C18.2948 25.0007 18.3182 24.2245 18.3971 23.5538C18.4828 22.8236 18.6024 22.2012 18.7558 21.6889C19.3919 20.333 19.7539 19.4196 19.8426 18.9489C20.0407 18.1378 20.1281 17.384 20.1048 16.6886C20.0657 15.3709 19.7967 14.3596 19.2982 13.6554L19.2944 13.6503C19.1096 13.4094 18.9312 13.2221 18.7593 13.0886C18.5571 12.9314 18.3649 12.8437 18.1829 12.8255Z" fill="#1D6E65" stroke="#1D6E65" stroke-width="0.6"/>
<path d="M20.6721 2.94968C20.4065 2.92355 20.1037 2.97785 19.7636 3.11281C19.7442 3.12061 19.7264 3.1317 19.7111 3.14595C19.5272 3.31768 19.3703 3.60988 19.2406 4.02267L19.2389 4.02843C18.4657 6.83844 17.9824 8.46618 17.7886 8.91167L17.7842 8.9231C17.365 10.12 16.8936 11.2363 16.3698 12.2717C16.051 12.9243 15.7937 13.3812 15.597 13.6447L12.9002 17.136C12.8862 17.1541 12.8763 17.1745 12.8706 17.1971C11.5152 22.48 10.3232 25.8398 9.29448 27.2754L9.28326 27.2935C8.31319 29.0876 5.58766 30.8501 1.10678 32.5798C1.02073 32.6137 0.977994 32.7098 1.01132 32.7958C1.03479 32.8569 1.09 32.8954 1.15088 32.9022C1.17616 32.9044 1.20234 32.901 1.22751 32.8908C5.7704 31.1374 8.55047 29.3297 9.56781 27.4699C10.6159 26.005 11.8208 22.626 13.1811 17.3317L13.1718 17.3306L15.8636 13.846C16.0741 13.5639 16.342 13.09 16.6685 12.422C17.1967 11.3776 17.6725 10.2516 18.0957 9.04448C18.2952 8.58485 18.7833 6.94421 19.5597 4.12255C19.6644 3.78974 19.7814 3.5549 19.911 3.41802L19.9019 3.41711C20.1654 3.31439 20.4001 3.2731 20.6057 3.29335C20.9857 3.33091 21.2669 3.57831 21.4493 4.03579C21.5985 4.41011 21.6883 4.91816 21.7185 5.55957C21.7095 6.05347 21.6511 6.55778 21.5431 7.07227L21.5412 7.08245C21.5038 7.33913 21.2552 8.16697 20.7954 9.56587L20.7886 9.59471C20.5067 11.6016 20.1657 13.193 19.7655 14.3687C19.7359 14.456 19.7826 14.5508 19.8701 14.5803C19.8825 14.5846 19.8949 14.5872 19.9076 14.5885C19.9831 14.5958 20.0567 14.5509 20.0821 14.476C20.4871 13.286 20.8316 11.684 21.1157 9.67005C21.5733 8.26991 21.8257 7.42691 21.8705 7.14082C21.9835 6.60201 22.0441 6.07315 22.0526 5.55448V5.54396C22.0205 4.86533 21.9231 4.32143 21.76 3.91248C21.5234 3.31881 21.1608 2.99787 20.6721 2.94968Z" fill="#1D6E65" stroke="#1D6E65" stroke-width="0.6"/>
<path d="M19.1312 1.00461C18.8106 0.97324 18.56 1.10509 18.3792 1.40017C18.3003 1.53029 18.2501 1.75348 18.2279 2.06986C18.228 2.06986 18.2274 2.0841 18.2274 2.0841C18.2404 3.71751 18.1823 5.0394 18.0532 6.04943C18.0011 6.58044 17.7706 7.63168 17.3609 9.20779C17.3373 9.29912 17.3927 9.39219 17.4849 9.41581C17.4937 9.41789 17.5024 9.41952 17.5112 9.42033C17.5942 9.42843 17.6734 9.37553 17.6948 9.29299C18.1076 7.70472 18.3409 6.63786 18.3952 6.09227C18.5259 5.07055 18.5849 3.73754 18.5721 2.09348C18.5898 1.8322 18.624 1.66006 18.674 1.57717C18.7758 1.41117 18.926 1.33801 19.1249 1.35746C19.2815 1.37274 19.4684 1.44555 19.6853 1.5759C19.7296 1.60253 19.7753 1.63158 19.8223 1.66307L19.8285 1.66701C20.2138 1.90212 20.5185 2.3999 20.7423 3.16058C20.7627 3.22946 20.823 3.27611 20.8909 3.28271C20.9121 3.2849 20.9342 3.28294 20.956 3.2768C21.0474 3.25029 21.1 3.1556 21.0732 3.06507C20.8258 2.22417 20.4733 1.66249 20.0158 1.38038C19.9642 1.34599 19.9137 1.31393 19.864 1.28406C19.5888 1.11864 19.3445 1.02545 19.1312 1.00461Z" fill="#1D6E65" stroke="#1D6E65" stroke-width="0.6"/>
<path d="M17.9805 12.8226C17.8911 12.815 17.8049 12.8629 17.7775 12.9404C17.7463 13.0289 17.8035 13.1225 17.9053 13.1496C18.1539 13.2159 18.3563 13.4896 18.5122 13.9707C18.5679 14.1712 18.5934 14.3864 18.5884 14.6164C18.5914 14.9565 18.5636 15.2703 18.5048 15.5622C18.4558 15.7587 18.3887 15.8655 18.3036 15.8848L18.2909 15.8893L18.2783 15.8882C18.2664 15.8882 18.2517 15.887 18.2338 15.8859C18.2207 15.8848 18.2061 15.8825 18.1898 15.8814C18.036 15.8473 17.7255 15.8007 17.2524 15.7394C17.2494 15.7382 17.2462 15.7382 17.2429 15.7382C17.1412 15.7291 17.0486 15.7916 17.0334 15.8802C17.0178 15.9711 17.0902 16.0563 17.1956 16.0699C17.6659 16.1313 17.9658 16.1767 18.0953 16.2062L18.1021 16.2085C18.1023 16.2085 18.1187 16.2108 18.1187 16.2108C18.143 16.213 18.1658 16.2164 18.1873 16.2176C18.2529 16.2233 18.3057 16.2244 18.3456 16.2199C18.366 16.2176 18.3848 16.2142 18.4023 16.2096C18.6401 16.1551 18.801 15.9609 18.8831 15.6269L18.8844 15.6201C18.947 15.3089 18.9769 14.9769 18.9739 14.6229C18.9795 14.3614 18.9498 14.1156 18.8849 13.8854L18.8833 13.8799C18.6895 13.2814 18.4011 12.9312 18.0183 12.8293C18.0057 12.8259 17.9932 12.8238 17.9805 12.8226Z" fill="#1D6E65" stroke="#1D6E65" stroke-width="0.6"/>
<path d="M19.8956 3.27055C19.8502 3.26593 19.8015 3.26628 19.75 3.27148C19.6581 3.28095 19.5911 3.36449 19.6004 3.4582C19.6085 3.54024 19.6725 3.60287 19.7501 3.61072C19.761 3.61188 19.7723 3.61188 19.7835 3.61072C19.8013 3.60888 19.8182 3.60876 19.8345 3.61049C19.9583 3.62286 20.0369 3.73598 20.0702 3.94963L20.0716 3.95691C20.1016 4.1077 20.1079 4.37762 20.0901 4.76679C20.0804 4.94947 20.0403 5.19131 19.9701 5.49243C19.8887 5.78603 19.8221 5.9552 19.7699 5.9998C19.7558 6.0028 19.7435 6.00396 19.7293 6.00303C19.51 5.93844 19.3302 5.89916 19.1895 5.88495C19.178 5.88379 19.167 5.88287 19.1561 5.88206C19.0641 5.87512 18.9838 5.94561 18.977 6.03932C18.9704 6.13187 19.0374 6.21252 19.1274 6.22165C19.1402 6.22257 19.1489 6.22327 19.158 6.22431C19.2802 6.23644 19.4444 6.2733 19.6504 6.33454L19.6759 6.33997C19.6811 6.34067 19.6863 6.34124 19.6914 6.34182C19.7675 6.34944 19.8381 6.33904 19.9033 6.31074C19.9317 6.29953 19.9592 6.28301 19.985 6.26082C20.0903 6.17069 20.1932 5.94307 20.2937 5.57782L20.2953 5.57135C20.3706 5.24954 20.4134 4.98714 20.4241 4.78366C20.4429 4.37115 20.4351 4.07569 20.4006 3.89636C20.34 3.50685 20.1717 3.2984 19.8956 3.27055Z" fill="#1D6E65" stroke="#1D6E65" stroke-width="0.6"/>
<path d="M18.9735 1.32586C18.8929 1.31657 18.8109 1.33838 18.7279 1.39119L18.7213 1.40267L18.7134 1.40175C18.6543 1.45066 18.6345 1.54468 18.6699 1.6209C18.6862 1.65592 18.7116 1.68164 18.7467 1.68565C18.7889 1.69059 18.845 1.6643 18.916 1.58566L18.924 1.58658L18.8706 1.68083L18.8781 1.68175C18.9013 1.66946 18.9243 1.66464 18.947 1.66728C18.9697 1.66981 18.9922 1.67991 19.0144 1.69748L19.0229 1.70368C19.0836 1.74477 19.1389 1.84167 19.189 1.99401C19.2405 2.13774 19.2838 2.39868 19.3205 2.78177L19.3211 2.78739C19.3422 2.95638 19.3389 3.21675 19.3112 3.56827C19.3039 3.66091 19.3621 3.74311 19.4411 3.75218C19.5217 3.76091 19.5921 3.69237 19.5994 3.59927C19.629 3.22456 19.6319 2.93951 19.6082 2.74411C19.5686 2.33255 19.5191 2.04223 19.4592 1.87267C19.3866 1.65144 19.2924 1.49956 19.1768 1.41679C19.1096 1.3641 19.042 1.3339 18.9735 1.32586Z" fill="#1D6E65" stroke="#1D6E65" stroke-width="0.6"/>
<path d="M18.9141 4.08328C18.8452 4.07786 18.7887 4.0759 18.7447 4.07758C18.6417 4.08094 18.5378 4.10037 18.4327 4.13607C18.3458 4.16541 18.305 4.24623 18.3414 4.31641C18.3665 4.36471 18.4217 4.39546 18.482 4.40022C18.5093 4.40237 18.5376 4.39929 18.5646 4.39023C18.6322 4.36733 18.6971 4.3549 18.7591 4.35294C18.7869 4.35182 18.8249 4.35332 18.8744 4.35705L18.8838 4.3579C18.9335 4.3621 19.0047 4.37126 19.0974 4.38555C19.1026 4.3864 19.1077 4.38696 19.1128 4.38733C19.1996 4.39434 19.2801 4.34659 19.2967 4.27595C19.3144 4.2012 19.2537 4.12906 19.1612 4.11477C19.0564 4.09869 18.9742 4.08823 18.9145 4.08328H18.9141Z" fill="#1D6E65" stroke="#1D6E65" stroke-width="0.6"/>
<path d="M23.9827 13.471C23.8919 13.4824 23.8277 13.5606 23.8368 13.647C23.8368 13.6479 23.8375 13.6534 23.8375 13.6534C24.0604 15.2595 24.4284 16.7341 24.9415 18.0751C25.278 18.8858 25.6377 19.6198 26.0224 20.2826C26.2296 20.6485 26.7447 21.4088 27.5683 22.5635C27.6892 22.7432 27.7891 22.9152 27.8676 23.0817C27.9717 23.2986 28.0525 23.5123 28.1104 23.7215C28.3393 24.6637 28.4781 25.2038 28.5267 25.3429C28.5522 25.4164 28.6268 25.4602 28.7035 25.4525C28.716 25.4514 28.7283 25.4492 28.7406 25.4448C28.8293 25.4164 28.8771 25.3254 28.8474 25.2411C28.8022 25.1118 28.6658 24.5793 28.4386 23.6437C28.3744 23.4115 28.2873 23.1814 28.1756 22.9481C28.09 22.7673 27.9815 22.58 27.8504 22.3861L27.8464 22.3795C27.0289 21.2335 26.5199 20.482 26.3192 20.1281C25.941 19.4763 25.5882 18.7554 25.2592 17.9633C24.755 16.6465 24.393 15.1969 24.1732 13.6152C24.1605 13.5234 24.0787 13.4618 23.9885 13.4704C23.9865 13.4706 23.9847 13.4708 23.9827 13.471Z" fill="#1D6E65" stroke="#1D6E65" stroke-width="0.6"/>
<path d="M22.7909 13.0886C22.6146 13.2221 22.4315 13.4094 22.2417 13.6503L22.2379 13.6554C21.7262 14.3596 21.4501 15.3709 21.41 16.6886C21.3861 17.384 21.476 18.1378 21.6794 18.9489C21.7702 19.4196 22.1417 20.333 22.7936 21.6878C22.952 22.2012 23.0747 22.8236 23.1627 23.5538C23.2438 24.2245 23.2678 25.0007 23.2347 25.8826C22.9774 28.7428 22.872 30.2853 22.9179 30.5088C22.9422 31.4255 23.06 32.1625 23.2704 32.7197C23.5031 33.3432 23.8754 33.8768 24.387 34.3217C24.6048 34.5081 24.8674 34.6452 25.176 34.7362L25.2015 34.7418C26.5239 34.9182 27.2824 35.1227 27.4771 35.3563C27.4957 35.3788 27.5202 35.3956 27.5476 35.4058C27.8507 35.5181 29.9198 37.3684 33.7548 40.9543C33.7916 40.9891 33.84 41.0037 33.8867 40.9992C33.9254 40.9947 33.963 40.9779 33.9918 40.9475C34.0556 40.8813 34.0527 40.7768 33.9854 40.7139C30.3124 37.2785 28.2277 35.417 27.7311 35.1283L27.7218 35.1294C27.4576 34.8384 26.6438 34.6014 25.2803 34.4183H25.2717C25.0098 34.3419 24.7886 34.2262 24.6085 34.0734C24.1393 33.6656 23.7981 33.1758 23.585 32.6051C23.3857 32.076 23.2746 31.3671 23.2514 30.4774L23.246 30.4414C23.2075 30.2426 23.3153 28.7305 23.5692 25.904L23.5698 25.895C23.6035 24.9951 23.5789 24.202 23.4957 23.5145C23.4051 22.7607 23.2775 22.1169 23.1131 21.5844L23.1105 21.5766C23.1103 21.5766 23.1038 21.5609 23.1038 21.5609C22.4555 20.2139 22.0898 19.3208 22.0071 18.8793L22.0049 18.8692C21.809 18.0873 21.7223 17.3649 21.7452 16.6999C21.7833 15.4518 22.0371 14.5029 22.5067 13.8538C22.6786 13.6352 22.8414 13.4677 22.9949 13.3515C23.1345 13.2458 23.2667 13.1869 23.3916 13.1746C23.584 13.1558 23.7588 13.248 23.9163 13.451C23.9529 13.4981 24.0102 13.5205 24.0661 13.515C24.0961 13.5121 24.1258 13.5011 24.1514 13.4816C24.225 13.4259 24.2389 13.322 24.1826 13.2493C23.9411 12.9384 23.6745 12.7969 23.3825 12.8255C23.1957 12.8437 22.9984 12.9314 22.7909 13.0886Z" fill="#1D6E65" stroke="#1D6E65" stroke-width="0.6"/>
<path d="M21.1066 9.62582L21.1003 9.59707C21.0472 9.42132 20.997 9.2548 20.9501 9.0972C20.8881 9.24274 20.8257 9.38806 20.7578 9.53056C20.7752 9.58828 20.7907 9.64104 20.8088 9.70068C21.067 11.708 21.3831 13.3044 21.7548 14.4904C21.7781 14.5651 21.8456 14.6098 21.9148 14.6025C21.9263 14.6013 21.9378 14.5987 21.9492 14.5944C22.0295 14.5648 22.0724 14.4705 22.0452 14.3834C21.678 13.2119 21.3652 11.6259 21.1066 9.62582Z" fill="#1D6E65" stroke="#1D6E65" stroke-width="0.6"/>
<path d="M40.5722 32.5798C36.168 30.8501 33.4889 29.0876 32.5355 27.2935L32.5245 27.2754C31.5134 25.8398 30.3418 22.48 29.0094 17.1971C29.004 17.1745 28.9941 17.1541 28.9805 17.136L26.3296 13.6447C26.1365 13.3812 25.8836 12.9243 25.571 12.2738C25.0551 11.2363 24.5918 10.12 24.1799 8.9231L24.1755 8.91167C23.9851 8.46618 23.5099 6.83844 22.75 4.02843L22.7483 4.02267C22.6207 3.60988 22.4667 3.31768 22.2859 3.14595C22.271 3.1317 22.2535 3.12061 22.2343 3.11281C21.9002 2.97785 21.6025 2.92355 21.3414 2.94968C21.25 2.95885 21.1644 2.98102 21.082 3.00998C21.123 3.11202 21.1576 3.21586 21.1868 3.32118C21.1909 3.32966 21.1951 3.33826 21.1994 3.34686C21.2656 3.32299 21.3326 3.30082 21.4065 3.29335C21.6088 3.2731 21.8395 3.31439 22.0985 3.41711L22.0893 3.41802C22.2168 3.5549 22.3318 3.78974 22.4347 4.12255C23.1978 6.94421 23.6776 8.58485 23.874 9.04448C24.2895 10.2516 24.7572 11.3776 25.2765 12.422C25.5976 13.09 25.8607 13.5639 26.0661 13.8439C26.0677 13.8461 28.7135 17.3306 28.7135 17.3306L28.7043 17.3317C30.0415 22.626 31.2256 26.005 32.2571 27.4688C33.2557 29.3297 35.9884 31.1374 40.4536 32.8908C40.4783 32.901 40.5041 32.9044 40.5289 32.9022C40.5887 32.8954 40.6429 32.8569 40.6661 32.7958C40.6988 32.7098 40.6567 32.6137 40.5722 32.5798Z" fill="#1D6E65" stroke="#1D6E65" stroke-width="0.6"/>
<path d="M24.1534 9.20779C23.7621 7.63156 23.5416 6.58044 23.4923 6.05441C23.3685 5.03941 23.313 3.71751 23.3254 2.0841L23.3248 2.06986C23.3037 1.75348 23.2558 1.53029 23.1806 1.40075C23.0076 1.10509 22.7682 0.973239 22.4619 1.00461C22.2579 1.02545 22.0246 1.11864 21.7614 1.28406C21.7139 1.31393 21.6658 1.346 21.6166 1.38026C21.265 1.60727 20.9795 2.018 20.7578 2.60607C20.8359 2.75008 20.9 2.90057 20.9549 3.05407C21.1657 2.35487 21.4452 1.89066 21.7956 1.66712L21.8014 1.66307C21.8463 1.63158 21.89 1.60253 21.9323 1.5759C22.1398 1.44555 22.3181 1.37274 22.4678 1.35746C22.6579 1.33801 22.8015 1.41117 22.8986 1.57717C22.9467 1.66006 22.9792 1.8322 22.9964 2.09348C22.9839 3.73754 23.0401 5.07055 23.1651 6.09227C23.217 6.63786 23.4399 7.70472 23.8343 9.29299C23.8549 9.37553 23.9305 9.42843 24.0099 9.42033C24.0181 9.41952 24.0266 9.4179 24.0349 9.4157C24.123 9.3922 24.1761 9.29912 24.1534 9.20779Z" fill="#1D6E65" stroke="#1D6E65" stroke-width="0.6"/>
<path d="M23.7407 12.8293C23.4536 12.9312 23.2373 13.2814 23.092 13.8799L23.0907 13.8854C23.042 14.1156 23.0197 14.3614 23.0239 14.6229C23.0217 14.9769 23.0441 15.3089 23.0911 15.6201L23.0921 15.6269C23.1537 15.9609 23.2744 16.1551 23.4541 16.2096C23.4659 16.2142 23.48 16.2176 23.4953 16.2199C23.5252 16.2244 23.5647 16.2233 23.6139 16.2176C23.6301 16.2164 23.6471 16.213 23.6654 16.2108L23.6776 16.2085C23.6778 16.2085 23.683 16.2062 23.683 16.2062C23.7801 16.1767 24.005 16.1313 24.3577 16.0699C24.4367 16.0563 24.4911 15.9711 24.4793 15.8802C24.4679 15.7916 24.3985 15.7291 24.3222 15.7382C24.3198 15.7382 24.3174 15.7382 24.315 15.7394C23.9602 15.8007 23.7274 15.8473 23.6166 15.8802C23.5999 15.8825 23.5888 15.8848 23.579 15.8859C23.5657 15.887 23.5546 15.8882 23.5458 15.8882L23.5362 15.8893L23.5267 15.8848C23.4628 15.8655 23.4126 15.7587 23.376 15.5622C23.3318 15.2703 23.3109 14.9565 23.3131 14.621C23.3094 14.3864 23.3284 14.1712 23.3705 13.9707C23.4871 13.4896 23.6389 13.2159 23.8254 13.1496C23.9017 13.1225 23.9447 13.0289 23.9212 12.9404C23.9007 12.8629 23.8361 12.815 23.769 12.8226C23.7595 12.8238 23.7501 12.8259 23.7407 12.8293Z" fill="#1D6E65" stroke="#1D6E65" stroke-width="0.6"/>
<path d="M22.4982 5.88206C22.4857 5.88287 22.4733 5.88379 22.4603 5.88495C22.3009 5.89916 22.0973 5.93844 21.8488 6.00303C21.8328 6.00396 21.8188 6.0028 21.807 5.99945C21.7436 5.95519 21.6681 5.78604 21.5762 5.49231C21.4963 5.19131 21.4509 4.94947 21.4399 4.76679C21.4198 4.37762 21.427 4.1077 21.461 3.95691L21.4624 3.94963C21.5003 3.73598 21.5891 3.62286 21.7295 3.61049C21.7479 3.60876 21.7671 3.60888 21.7873 3.61072C21.8003 3.61188 21.8126 3.61188 21.8251 3.61072C21.9131 3.60287 21.9855 3.54024 21.9949 3.4582C22.0052 3.36449 21.9295 3.28095 21.8253 3.27148C21.7669 3.26628 21.7119 3.26593 21.6602 3.27055C21.3474 3.2984 21.1568 3.50685 21.0882 3.89636C21.0856 3.9078 21.0842 3.92386 21.082 3.93622C21.3734 4.62547 21.5246 5.37688 21.5463 6.07248C21.548 6.12956 21.5413 6.18537 21.5413 6.2421C21.5471 6.2473 21.553 6.25631 21.5591 6.26082C21.5882 6.28301 21.6195 6.29953 21.6523 6.31074C21.7254 6.33904 21.8054 6.34944 21.8916 6.34182C21.8975 6.34124 21.9034 6.34067 21.9091 6.33997L21.938 6.33454C22.1717 6.2733 22.3575 6.23644 22.496 6.22419C22.5063 6.22327 22.5163 6.22257 22.526 6.22188C22.6327 6.21252 22.7086 6.13187 22.7009 6.03932C22.6933 5.94561 22.6023 5.87512 22.4982 5.88206Z" fill="#1D6E65" stroke="#1D6E65" stroke-width="0.6"/>
<path d="M22.6477 1.41679C22.4928 1.49956 22.3673 1.65143 22.2705 1.87264C22.1906 2.0422 22.1245 2.33251 22.0719 2.74406C22.0403 2.93944 22.0442 3.22448 22.0836 3.59918C22.0934 3.69228 22.1872 3.76081 22.2933 3.7522C22.4 3.74302 22.4775 3.66082 22.4678 3.56818C22.4308 3.21667 22.4265 2.95631 22.4546 2.78733L22.4554 2.78171C22.5043 2.39864 22.5621 2.1377 22.6285 1.99903C22.6974 1.84164 22.7712 1.74476 22.8523 1.70366L22.8634 1.69746C22.8931 1.6799 22.9231 1.6698 22.9535 1.66727C22.9837 1.66463 23.0143 1.66945 23.0453 1.68173L23.0552 1.68082L22.9841 1.58657L22.9948 1.58565C23.0895 1.66429 23.1644 1.69058 23.2205 1.68564C23.2672 1.68162 23.3011 1.65591 23.3229 1.62089C23.37 1.54467 23.3437 1.45065 23.2648 1.40175L23.2544 1.40267L23.2455 1.39119C23.1348 1.33838 23.0257 1.31657 22.918 1.32586C22.8267 1.3339 22.7367 1.3641 22.6477 1.41679Z" fill="#1D6E65" stroke="#1D6E65" stroke-width="0.6"/>
<path d="M22.8245 4.08328C22.7549 4.08823 22.6591 4.09869 22.5368 4.11477C22.4287 4.12906 22.3579 4.2012 22.3786 4.27595C22.398 4.34659 22.4919 4.39434 22.5933 4.38733C22.5992 4.38696 22.6052 4.3864 22.6111 4.38555C22.7193 4.37126 22.8024 4.3621 22.8604 4.3579L22.8714 4.35705C22.929 4.35332 22.9734 4.35182 23.0041 4.35285C23.0782 4.35491 23.1538 4.36733 23.2327 4.39023C23.2643 4.39929 23.2972 4.40237 23.3292 4.40022C23.3995 4.39546 23.4639 4.36471 23.4931 4.31641C23.5355 4.24623 23.4879 4.16541 23.3866 4.13607C23.264 4.10037 23.1428 4.08094 23.0226 4.07758C22.9712 4.0759 22.9054 4.07786 22.8252 4.08328H22.8245Z" fill="#1D6E65" stroke="#1D6E65" stroke-width="0.6"/>
</svg>
