<svg width="68" height="42" viewBox="0 0 68 42" fill="none" xmlns="http://www.w3.org/2000/svg">
<path d="M38.0146 17.9785C38.1158 17.9785 38.213 18.0324 38.2596 18.1249C38.6644 18.9244 39.1746 19.5967 39.79 20.1419C40.5147 20.7815 41.45 21.3864 42.5938 21.9547L42.6404 21.9856C42.7335 22.0588 42.8023 22.1243 42.8428 22.1821C42.94 22.3169 42.9461 22.4422 42.857 22.5577L42.8367 22.5809C42.2699 23.1646 41.9116 23.4979 41.7638 23.5826C41.7031 23.6154 41.6444 23.6308 41.5857 23.6308C41.5715 23.6308 41.5573 23.6308 41.5431 23.6289L41.527 23.625C40.9804 23.5171 40.4601 23.4613 39.9682 23.4613C38.9904 23.4613 38.1158 23.677 37.3486 24.1086C36.802 24.4226 36.4579 24.7462 36.3121 25.0795L36.304 25.0949C36.0712 25.5457 36.0165 25.9118 36.14 26.1911C36.2433 26.403 36.4862 26.5841 36.8688 26.7325C39.6584 27.5474 41.7537 28.3025 43.1586 29.0019C43.2922 29.0693 43.3428 29.2234 43.274 29.3506C43.2254 29.4392 43.1323 29.4893 43.0331 29.4893C42.9906 29.4893 42.9481 29.4796 42.9076 29.4604C41.5269 28.7726 39.454 28.0251 36.6886 27.2179L36.6664 27.2102C36.1441 27.0079 35.8039 26.7363 35.642 26.3953C35.4557 25.9715 35.5124 25.4687 35.812 24.883C36.0023 24.4457 36.4214 24.0392 37.0692 23.6655C37.9275 23.1858 38.8912 22.945 39.9641 22.945C40.4662 22.945 40.9905 22.997 41.5411 23.1029C41.6626 23.0105 41.9096 22.7716 42.2841 22.3901H42.2983C41.1322 21.8064 40.1726 21.1822 39.4216 20.5195C38.7556 19.93 38.2069 19.2056 37.7717 18.3503C37.7069 18.2212 37.7616 18.0671 37.8972 18.0054C37.9357 17.9881 37.9762 17.9785 38.0146 17.9785Z" fill="#1D6E65" stroke="#1D6E65" stroke-width="0.6"/>
<path d="M39.2905 19.705C39.4091 19.705 39.5194 19.7829 39.5522 19.9007C39.593 20.0425 39.5092 20.1902 39.3641 20.2302C38.8531 20.3699 37.9599 21.0528 36.6825 22.2807C36.6845 22.2807 32.3963 27.5799 32.3963 27.5799L32.3902 27.5879C31.4745 28.6321 30.6549 29.4068 29.9314 29.908C28.8092 30.7805 27.6238 31.2158 26.3749 31.2158C25.6698 31.2158 24.9442 31.0781 24.1981 30.8005C24.0571 30.7466 23.9876 30.5929 24.0408 30.4551C24.0816 30.3473 24.1859 30.2834 24.2963 30.2834C24.329 30.2834 24.3616 30.2894 24.3943 30.3014C25.0688 30.5529 25.7249 30.6787 26.3647 30.6787C27.5011 30.6787 28.5803 30.2794 29.6023 29.4827L29.6145 29.4727C30.2993 28.9975 31.0821 28.2568 31.9671 27.2484L36.2757 21.9233L36.2982 21.8994C37.6431 20.6075 38.616 19.8807 39.2149 19.715C39.2394 19.709 39.266 19.705 39.2905 19.705Z" fill="#1D6E65" stroke="#1D6E65" stroke-width="0.6"/>
<path d="M39.8275 9.63304C39.9087 9.63304 39.9919 9.67345 40.0434 9.74619C40.8397 10.8817 43.7793 13.9146 48.8642 18.8467C49.4366 19.4387 49.7714 20.0004 49.8784 20.5379C49.9893 21.1663 49.8883 21.7623 49.5733 22.3321L49.5654 22.3463C47.5608 25.5043 46.1187 27.6764 45.2352 28.8665C44.7044 29.6646 44.1675 30.0647 43.6268 30.0647C43.3851 30.0647 43.1434 29.9859 42.9018 29.8263C42.779 29.7455 42.7433 29.5777 42.8225 29.4525C42.8721 29.3717 42.9573 29.3292 43.0444 29.3292C43.0939 29.3292 43.1435 29.3413 43.187 29.3717C43.3237 29.4606 43.4624 29.505 43.605 29.505C43.9833 29.505 44.3835 29.1878 44.8054 28.5513L44.8133 28.5392C44.8727 28.4584 44.9361 28.3715 45.0035 28.2806C45.0213 28.2806 45.0391 28.2725 45.053 28.2523C45.0708 28.228 45.1144 28.1614 45.1817 28.0522C45.1817 28.0522 45.1857 28.0482 45.1897 28.0401H45.1758C45.2551 27.929 45.3382 27.8118 45.4234 27.6885H45.4095C45.4511 27.6724 45.4789 27.6542 45.4928 27.63C45.5165 27.6037 45.5621 27.535 45.6274 27.4239C45.6334 27.4117 45.6393 27.3996 45.6453 27.3875H45.6314C46.4911 26.1408 47.6499 24.3668 49.1098 22.0674C49.3633 21.6128 49.4445 21.138 49.3574 20.6429C49.2742 20.2126 48.987 19.7458 48.4977 19.2387C43.3911 14.2823 40.4277 11.2232 39.6116 10.0614C39.5264 9.94016 39.5541 9.77044 39.673 9.68356C39.7205 9.64921 39.774 9.63304 39.8275 9.63304Z" fill="#1D6E65" stroke="#1D6E65" stroke-width="0.6"/>
<path d="M37.4538 8.19426C37.9704 8.19426 38.4407 8.3343 38.8689 8.61048C38.9915 8.69022 39.0257 8.85165 38.9433 8.97224C38.891 9.04615 38.8046 9.08699 38.7181 9.08699C38.6679 9.08699 38.6156 9.07338 38.5694 9.04226C38.2357 8.82637 37.8619 8.71745 37.4478 8.71745C37.0639 8.71745 36.6458 8.81081 36.1935 8.99752C25.7394 13.9824 19.5747 16.719 17.7054 17.2052C15.3396 17.9579 7.10658 19.794 1.19913 20.568C1.18506 20.57 1.20919 20.5622 1.19713 20.5622C1.06447 20.5622 1.13682 20.4183 1.11873 20.288C1.09863 20.144 0.911701 20.0896 1.05843 20.0701C6.94577 19.298 15.217 17.4522 17.5526 16.7073L17.5667 16.7034C19.4019 16.225 25.5364 13.5001 35.9704 8.5249L35.9825 8.51907C36.5071 8.30318 36.9975 8.19426 37.4538 8.19426Z" fill="#1D6E65" stroke="#1D6E65" stroke-width="0.6"/>
<path d="M45.7155 27.1871C46.3323 27.4482 47.4298 28.0873 49.006 29.1024H49.016C51.1951 29.9987 52.3848 30.5231 52.583 30.6715C52.6211 30.6992 52.6511 30.7288 52.6711 30.7625H52.6852C53.5183 31.3066 54.3495 32.0565 55.1767 33.0102L55.1967 33.0359C57.3998 36.3264 57.7082 38.9422 56.118 40.8872C56.0799 40.9327 56.0278 40.9644 55.9698 40.9782C55.9057 40.9921 55.8396 41 55.7715 41C55.5672 41 55.3409 40.9347 55.0905 40.8081L55.0665 40.7942C52.0102 38.8096 49.1082 37.2643 46.3644 36.1563C44.1693 35.3134 41.5256 34.7435 38.4333 34.4447C38.1309 34.419 37.7944 34.4071 37.4279 34.4071C36.3564 34.4071 35.0165 34.516 33.4103 34.7356L33.3742 34.7376C32.9436 34.7376 31.1952 35.1531 28.1269 35.9861L28.1169 35.9881C27.5481 36.1187 26.9913 36.184 26.4446 36.184C26.4305 36.184 26.4165 36.184 26.4025 36.184H26.3885C26.3284 36.1899 26.2603 36.1939 26.1882 36.1939C25.2189 36.1939 23.2721 35.6082 20.346 34.4368L20.3561 34.4388C19.8854 34.3379 19.4308 34.2884 18.9882 34.2884C18.7338 34.2884 18.4815 34.3042 18.2371 34.3379L18.2131 34.3399C16.8151 34.4111 10.5304 35.0799 5.51137 37.2999C5.47532 37.3138 5.54543 37.294 5.50938 37.294C5.40723 37.294 5.49734 37.1852 5.45329 37.0862C5.3912 36.9537 5.23698 36.8547 5.37317 36.7934C10.4142 34.5654 16.6709 33.9046 18.151 33.8135H18.165C18.4354 33.7779 18.7098 33.7581 18.9882 33.7581C19.4668 33.7581 19.9615 33.8135 20.4683 33.9204L20.5123 33.9342C23.3963 35.0878 25.2789 35.6656 26.1602 35.6656C26.2283 35.6656 26.2883 35.6616 26.3444 35.6557L26.3785 35.6537C26.4005 35.6537 26.4225 35.6537 26.4446 35.6537C26.9453 35.6537 27.46 35.5943 27.9847 35.4756C31.0229 34.6525 32.8075 34.2291 33.3362 34.2093H33.3502C34.9745 33.9877 36.3344 33.8769 37.4319 33.8769C37.8124 33.8769 38.1609 33.8907 38.4793 33.9164C41.6237 34.2212 44.3155 34.8029 46.5586 35.6636C49.3405 36.7855 52.2726 38.3486 55.3609 40.351C55.5251 40.4302 55.6593 40.4697 55.7675 40.4697C57.1114 38.7384 56.7789 36.368 54.7681 33.3545C53.9429 32.4008 53.1158 31.6628 52.2926 31.1404C52.2646 31.1246 52.2406 31.1008 52.2225 31.0771H52.2345C51.9962 30.9267 50.8366 30.4241 48.7557 29.5674L48.7136 29.5456C47.0793 28.493 45.9798 27.8578 45.419 27.6382C45.399 27.6303 45.381 27.6224 45.365 27.6105H45.3509L45.367 27.5788C45.4431 27.565 45.4931 27.5393 45.5152 27.5036C45.5392 27.4779 45.5853 27.4106 45.6513 27.3018C45.6754 27.2603 45.6914 27.2246 45.6994 27.193C45.7014 27.1871 45.7155 27.1871 45.7155 27.1871Z" fill="#1D6E65" stroke="#1D6E65" stroke-width="0.6"/>
<path d="M51.0854 36.108C51.4548 36.108 51.948 36.2475 52.5689 36.5246L52.5866 36.5341C54.8796 37.7628 56.1942 38.9494 56.5322 40.0978C56.5734 40.2335 56.4929 40.3749 56.3514 40.415C56.3278 40.4207 56.3042 40.4246 56.2806 40.4246C56.1647 40.4246 56.0606 40.3519 56.0272 40.2392C55.7305 39.2303 54.5043 38.1469 52.3488 36.9889C51.7967 36.7424 51.3801 36.6182 51.0972 36.6182C51.0598 36.6182 51.0244 36.6201 50.991 36.6258C50.9655 36.6316 50.9243 36.666 50.8692 36.7271C50.8732 36.7271 50.4055 37.4112 50.4055 37.4112C50.3564 37.4857 50.2719 37.5258 50.1874 37.5258C50.1363 37.5258 50.0872 37.5125 50.042 37.4838C49.9201 37.4055 49.8887 37.2469 49.9673 37.1303L50.4526 36.4176L50.4723 36.3908C50.6118 36.2341 50.7592 36.1443 50.9144 36.1195C50.9714 36.1118 51.0264 36.108 51.0854 36.108Z" fill="#1D6E65" stroke="#1D6E65" stroke-width="0.6"/>
<path d="M42.432 9.05756C42.4902 9.05756 42.5484 9.0752 42.5962 9.11047L49.6443 14.0346L49.6693 14.0542C50.1763 14.501 51.0988 16.0823 52.4411 18.7942C52.9419 19.7661 52.9191 20.593 52.3767 21.271C51.9944 21.8706 50.8516 22.5878 48.9524 23.4206C48.915 23.4382 48.8755 23.446 48.836 23.446C48.7321 23.446 48.6303 23.3892 48.5846 23.2952C48.5202 23.1639 48.5805 23.0071 48.7197 22.9464C50.5399 22.1469 51.6037 21.4924 51.9154 20.983L51.9341 20.9555C52.3393 20.4461 52.3414 19.8014 51.9404 19.0196C50.6459 16.4056 49.7711 14.8851 49.3098 14.4559C49.3139 14.4559 42.2658 9.53176 42.2658 9.53176C42.1432 9.44554 42.1162 9.28094 42.2076 9.16337C42.2637 9.09479 42.3468 9.05756 42.432 9.05756Z" fill="#1D6E65" stroke="#1D6E65" stroke-width="0.6"/>
<path d="M45.2963 7.6186C45.3463 7.6186 45.3963 7.633 45.4403 7.6618C50.0047 10.6814 52.753 12.9564 53.6851 14.4848C54.2131 15.2664 54.3632 16.083 54.1351 16.9367C54.1071 17.3172 53.5691 18.0207 52.529 19.0512C52.477 19.1027 52.411 19.1294 52.343 19.1294C52.273 19.1294 52.203 19.1006 52.151 19.0451C52.0469 18.934 52.051 18.7612 52.157 18.6542C53.1091 17.7142 53.5931 17.1259 53.6111 16.8935C53.6091 16.8606 53.6111 16.8235 53.6211 16.7906C53.8051 16.0995 53.6771 15.433 53.2391 14.7892L53.2311 14.7769C52.341 13.3164 49.6487 11.099 45.1523 8.12461C45.0283 8.04233 44.9922 7.87366 45.0723 7.74407C45.1223 7.66385 45.2083 7.6186 45.2963 7.6186Z" fill="#1D6E65" stroke="#1D6E65" stroke-width="0.6"/>
<path d="M52.5917 0.999963C52.9217 0.999963 53.3158 1.01203 53.7699 1.03617L53.7799 1.03818C57.3366 1.36403 61.6414 2.17665 66.6923 3.47805C66.7403 3.49012 66.7823 3.51627 66.8163 3.55047C67.6765 4.43349 67.6965 5.43719 66.8744 6.55958C66.2442 7.59748 65.046 8.1285 63.2777 8.15264C63.0176 8.16471 62.7556 8.17074 62.4915 8.17074C61.5374 8.17074 60.5852 8.0923 59.635 7.93943H59.621C59.1149 7.93943 57.4426 7.57335 54.598 6.84521C54.476 6.82509 54.348 6.81302 54.22 6.81302C54.074 6.81302 53.9279 6.8271 53.7779 6.85325C53.3178 6.93572 52.7057 7.16905 51.9375 7.54921C49.6771 8.87877 48.3889 9.57271 48.0788 9.62702C48.0528 9.63104 48.0268 9.63306 48.0048 9.63306C47.9988 9.63306 47.9928 9.63306 47.9868 9.63306C47.8387 9.62501 47.7247 9.5003 47.7327 9.35146C47.7387 9.21669 47.8448 9.10807 47.9748 9.096H47.9868C48.2568 9.04169 49.4871 8.36786 51.6835 7.07451L51.7015 7.06646C52.5137 6.66418 53.1738 6.41475 53.6839 6.32424C53.8659 6.29206 54.0439 6.27597 54.22 6.27597C54.378 6.27597 54.536 6.28803 54.6901 6.31418L54.7121 6.32022C57.5266 7.04031 59.1529 7.40237 59.591 7.40237C59.607 7.40237 59.619 7.40036 59.633 7.40036L59.693 7.40237C60.6232 7.55524 61.5574 7.63168 62.4935 7.63168C62.7496 7.63168 63.0056 7.62564 63.2617 7.61357C64.852 7.59346 65.9042 7.14089 66.4303 6.25988L66.4443 6.23976C67.0664 5.38892 67.0824 4.63664 66.4883 3.98494H66.5023C61.5074 2.69963 57.2526 1.89707 53.7399 1.57524C53.2778 1.54909 52.8857 1.53702 52.5637 1.53702C52.1196 1.53702 51.8075 1.56116 51.6315 1.60943L51.6175 1.61144C51.1014 1.72609 50.1612 2.05195 48.7969 2.59503C45.8344 3.68523 41.5456 5.70472 35.9265 8.6555C35.8865 8.67561 35.8445 8.68567 35.8025 8.68567C35.7065 8.68567 35.6124 8.63337 35.5644 8.54084C35.4964 8.4101 35.5464 8.24717 35.6785 8.17879C41.3135 5.21996 45.6224 3.19042 48.6009 2.09418C49.9772 1.54707 50.9414 1.21116 51.4895 1.09048C51.7115 1.03013 52.0776 0.999963 52.5917 0.999963Z" fill="#1D6E65" stroke="#1D6E65" stroke-width="0.6"/>
<path d="M41.4041 5.89201C41.9291 5.89201 42.454 5.98225 42.983 6.16275C43.8861 6.49016 44.9139 7.09252 46.0704 7.97612C46.189 8.06637 46.2152 8.24267 46.1287 8.3686C46.0764 8.44206 45.9939 8.48193 45.9115 8.48193C45.8552 8.48193 45.7988 8.46514 45.7526 8.42946C44.6423 7.58154 43.6628 7.00437 42.8161 6.69585C42.3434 6.53424 41.8708 6.45448 41.4041 6.45448C41.0884 6.45448 40.7766 6.49017 40.4648 6.56362C40.4447 6.56782 40.4246 6.56992 40.4065 6.56992C40.2818 6.56992 40.1712 6.48177 40.143 6.35164C40.1108 6.20053 40.2013 6.04941 40.3462 6.01583C40.6981 5.93188 41.0501 5.89201 41.4041 5.89201Z" fill="#1D6E65" stroke="#1D6E65" stroke-width="0.6"/>
<path d="M40.9639 7.61881C41.0223 7.61881 41.0825 7.64025 41.1315 7.68312C41.5948 8.08262 42.4742 8.76664 43.7735 9.73714C43.8865 9.82093 43.9129 9.98268 43.8319 10.0996C43.783 10.1717 43.7057 10.2087 43.6266 10.2087C43.5758 10.2087 43.525 10.1931 43.4798 10.16C42.1654 9.17783 41.2747 8.48602 40.8039 8.08067C40.6965 7.98323 40.6833 7.82149 40.7718 7.71235C40.8208 7.65194 40.8924 7.61881 40.9639 7.61881Z" fill="#1D6E65" stroke="#1D6E65" stroke-width="0.6"/>
<path d="M62.278 2.43881C62.2958 2.43881 62.3136 2.4411 62.3333 2.4457C62.4616 2.48471 62.5401 2.64998 62.5098 2.81524C62.4599 3.09067 62.4902 3.272 62.6007 3.36151C62.6917 3.4166 62.7755 3.45791 62.8575 3.48316L64.3751 3.97205C64.5052 4.00878 64.7603 4.05927 65.1401 4.12124C65.1758 4.12583 65.2114 4.12583 65.2471 4.12583C65.3202 4.12583 65.3933 4.11895 65.4646 4.10059C65.7232 4.01796 65.8498 3.90779 65.848 3.76777C65.8462 3.59792 65.9514 3.45791 66.0834 3.45561C66.2171 3.45561 66.3224 3.59103 66.3241 3.75859C66.3295 4.21994 66.0834 4.53439 65.5859 4.69736L65.5716 4.69965C65.4646 4.72719 65.3559 4.74097 65.2489 4.74097C65.1954 4.74097 65.1419 4.73867 65.0884 4.73179C64.68 4.66523 64.4072 4.61243 64.2627 4.56882C64.2591 4.56653 62.7416 4.07993 62.7416 4.07993C62.6186 4.04091 62.4937 3.97894 62.3653 3.89631L62.3439 3.88024C62.0444 3.63465 61.9445 3.23297 62.0462 2.67522C62.0711 2.53292 62.1692 2.43881 62.278 2.43881Z" fill="#1D6E65" stroke="#1D6E65" stroke-width="0.6"/>
<path d="M53.5288 4.74091C53.5744 4.74091 53.6161 4.81499 53.6284 4.92706C53.6416 5.04483 53.6524 5.16829 53.6593 5.29556C53.6647 5.40952 53.6655 5.52539 53.6617 5.64506C53.657 5.76663 53.6478 5.88249 53.6339 5.99076C53.6153 6.12753 53.5929 6.24719 53.5667 6.34976C53.5474 6.42574 53.5142 6.46753 53.4794 6.46753C53.4609 6.46753 53.4416 6.45613 53.4246 6.42954C53.3759 6.35546 53.362 6.1978 53.3921 6.07814C53.4091 6.01166 53.4238 5.93188 53.4369 5.83691C53.4462 5.76283 53.4524 5.68495 53.4555 5.60137C53.4586 5.5178 53.4578 5.43802 53.4539 5.36394C53.4485 5.25757 53.44 5.15879 53.4292 5.06382C53.4145 4.92896 53.4462 4.7884 53.501 4.75041C53.5111 4.74471 53.5203 4.74091 53.5288 4.74091Z" fill="#1D6E65" stroke="#1D6E65" stroke-width="0.6"/>
<path d="M44.7116 21.7195C44.8481 21.7195 44.9747 21.8221 45.0169 21.9788C45.069 22.1726 44.9747 22.3777 44.8059 22.4375C44.7116 22.4689 44.5626 22.5287 44.3591 22.6199C44.2598 22.6569 44.1679 22.6883 44.0786 22.7139C43.7161 22.8136 43.4381 22.8649 43.2445 22.8649C43.1775 22.8678 43.1129 22.8706 43.0533 22.8706C42.9714 22.8706 42.897 22.8678 42.8299 22.8621C42.7257 22.8564 42.619 22.8421 42.5122 22.8222C42.2764 22.7794 42.0356 22.7025 41.7849 22.5942C41.6186 22.523 41.5367 22.3093 41.5987 22.1213C41.6459 21.9731 41.7675 21.8848 41.8966 21.8848C41.9338 21.8848 41.9735 21.8905 42.0108 21.9076C42.2218 21.9988 42.4229 22.0643 42.614 22.0985C42.7009 22.1156 42.7828 22.127 42.8672 22.1298C42.9243 22.1355 42.9863 22.1355 43.0533 22.1355C43.108 22.1355 43.165 22.1355 43.2271 22.1327C43.386 22.1298 43.6144 22.0871 43.9272 22.0016C43.9967 21.9817 44.0637 21.9589 44.1307 21.9332C44.3516 21.8392 44.513 21.7708 44.6197 21.7338C44.6495 21.7252 44.6818 21.7195 44.7116 21.7195Z" fill="#1D6E65" stroke="#1D6E65" stroke-width="0.6"/>
</svg>
