<svg width="40" height="46" viewBox="0 0 40 46" fill="none" xmlns="http://www.w3.org/2000/svg">
<path d="M14.1859 0L39.6719 6.28646V43.8075L14.2093 46L0.326958 43.6409V5.62134L14.1859 0ZM16.9136 42.3831L25.2317 41.6667V34.5307L30.1809 34.4699V41.2405L36.3 40.7135V8.9275L16.9136 4.14566V42.3831Z" fill="#7E7E7E"/>
<path d="M18.6273 6.91211L22.6445 7.75547V12.4845L18.6273 11.7918V6.91211Z" fill="#7E7E7E"/>
<path d="M32.3452 10.0664L35.1445 10.6584V14.8088L32.3452 14.3282V10.0664Z" fill="#7E7E7E"/>
<path d="M25.9278 8.61914L29.4844 9.36377V13.7479L25.9278 13.1347V8.61914Z" fill="#7E7E7E"/>
<path d="M32.345 18.2539L35.1445 18.637V22.7944L32.345 22.5159V18.2539Z" fill="#7E7E7E"/>
<path d="M25.9278 17.3203L29.4844 17.8021V22.1862L25.9278 21.8359V17.3203Z" fill="#7E7E7E"/>
<path d="M18.6273 16.2656L22.6445 16.8098V21.465L18.6273 21.0692V16.2656Z" fill="#7E7E7E"/>
<path d="M18.6273 25.707L22.6445 25.9545V30.6095L18.6273 30.5105V25.707Z" fill="#7E7E7E"/>
<path d="M25.9278 26.1875L29.4844 26.4065V30.7907L25.9278 30.7031V26.1875Z" fill="#7E7E7E"/>
<path d="M32.3452 26.6113L35.1445 26.7854V30.9428L32.3452 30.8732V26.6113Z" fill="#7E7E7E"/>
</svg>
