<svg width="16" height="16" viewBox="0 0 16 16" fill="none" xmlns="http://www.w3.org/2000/svg">
<path d="M3.1 9.60045C1.80405 10.1721 1 10.9688 1 11.85C1 13.5897 4.13401 15 8 15C11.866 15 15 13.5897 15 11.85C15 10.9688 14.196 10.1721 12.9 9.60045M12.2 5.2C12.2 8.0446 9.05 9.4 8 11.5C6.95 9.4 3.8 8.0446 3.8 5.2C3.8 2.8804 5.6804 1 8 1C10.3196 1 12.2 2.8804 12.2 5.2ZM8.7 5.2C8.7 5.5866 8.3866 5.9 8 5.9C7.6134 5.9 7.3 5.5866 7.3 5.2C7.3 4.8134 7.6134 4.5 8 4.5C8.3866 4.5 8.7 4.8134 8.7 5.2Z" stroke="#010101" stroke-width="1.4" stroke-linecap="round" stroke-linejoin="round"/>
</svg>
